<svg xmlns="http://www.w3.org/2000/svg" width="488" height="333" viewBox="0 0 488 333" fill="none"><path opacity="0.3" d="M44.1639 228.037C54.0145 227.601 64.9059 227.55 73.3275 221.711C80.8881 216.474 87.0688 208.432 91.8303 200.686C95.595 194.568 99.879 188.29 107.611 184.572L110.296 185.02L113.275 198.353C97.5068 204.58 79.9734 217.921 85.3035 215.728C93.4141 212.386 99.9427 209.94 106.151 208.274C107.51 207.905 110.704 207.202 115.057 206.326L115.655 208.981C106.971 211.572 98.4246 214.602 90.0475 218.059C83.0459 220.909 76.469 226.847 69.1893 228.27C59.0055 230.218 48.3354 228.583 38.0522 229.808C30.8705 230.721 23.8499 232.625 17.1906 235.465C24.5761 229.503 34.6828 228.459 44.1639 228.037Z" fill="#3999D5"></path><path opacity="0.3" d="M55.3337 175.879C65.1842 175.443 76.081 175.385 84.4973 169.553C92.0641 164.315 98.2439 156.267 103 148.527C110.661 136.06 120.486 122.942 157.181 132.129C207.376 144.67 237.599 110.72 226.206 135.952C219.613 150.557 203.146 162.826 194.438 172.575L188.17 173.255C194.646 163.334 191.374 148.507 157.791 150.929C138.304 152.35 119.238 158.577 101.239 165.879C94.244 168.728 87.6671 174.667 80.3874 176.089C70.2036 178.037 59.5324 176.44 49.2441 177.628C42.0638 178.54 35.0451 180.445 28.3896 183.29C35.7416 177.314 45.8509 176.289 55.3337 175.879ZM96.4778 163.557C104.587 160.208 111.117 157.769 117.318 156.098C123.519 154.427 167.787 145.835 186.841 145.336C213.344 144.642 189.316 159.852 200.814 160.007C200.814 160.007 225.949 133.898 221.196 131.601C216.444 129.303 197.757 139.606 179.85 141.628C159.861 143.88 154.29 144.098 138.321 143.142C122.352 142.185 89.4513 166.455 96.4778 163.557Z" fill="#3999D5"></path><path opacity="0.3" d="M176.597 109.556C184.864 113.158 195.538 115.969 213.087 115.644C226.312 115.405 248.776 98.1519 274.423 92.429C300.07 86.7061 309.971 92.26 322.106 101.207C329.285 106.512 347.248 105.174 361.924 101.394C372.109 98.7665 377.022 97.8895 368.153 102.029C355.046 108.116 336.884 114.414 327.164 108.389C310.833 98.2576 294.924 105.058 272.609 122.523C250.294 139.989 214.999 150.776 204.263 129.631C199.042 119.344 187.719 113.287 176.312 109.765L176.597 109.556ZM225.104 125.834C240.52 123.544 232.403 127.347 241.429 128.327C250.455 129.307 264.77 117.913 264.77 117.913C264.77 117.913 285.256 97.8106 301.12 96.8561C301.12 96.8561 288.383 87.4198 265.981 97.0193C243.578 106.619 221.824 114.839 219.957 116.506C218.091 118.172 209.669 128.127 225.104 125.834Z" fill="#3999D5"></path><path d="M157.701 164.004L156.538 170.142L133.65 183.671L111.572 193.522L154.753 165.171L157.701 164.004Z" fill="#3C66B0"></path><path d="M212.016 99.9852C212.016 99.9852 209.032 111.093 189.657 130.35C170.282 149.607 158.864 157.866 157.701 164.004L154.753 165.171L111.572 193.522C111.572 193.522 99.2733 187.549 110.485 182.138C117.184 180.524 127.673 180.517 127.673 180.517C127.673 180.517 125.795 177.522 144.317 158.929C162.84 140.336 175.494 133.241 189.507 122.398C203.52 111.555 207.919 94.489 207.919 94.489C207.919 94.489 215.29 94.734 232.898 99.9703C250.507 105.207 268.047 119.048 268.047 119.048C268.047 119.048 245.183 107.72 231.478 104.149C217.773 100.578 212.016 99.9852 212.016 99.9852Z" fill="#4076BB"></path><path d="M157.701 164.004C158.864 157.866 170.278 149.583 189.657 130.35C209.035 111.117 212.016 99.9851 212.016 99.9851C212.016 99.9851 217.765 100.61 231.466 104.15C245.167 107.69 268.035 119.05 268.035 119.05L260.531 123.328L157.701 164.004Z" fill="#3C66B0"></path><path d="M111.572 193.522L103.388 198.895C103.388 198.895 98.9245 198.464 97.2019 196.599C95.4794 194.735 105.392 190.861 105.392 190.861C105.392 190.861 101.806 187.66 105.795 184.091C106.732 183.264 108.426 182.629 110.453 182.136C99.2735 187.549 111.572 193.522 111.572 193.522Z" fill="#3C66B0"></path><path d="M249.317 122.995C247.528 121.068 245.615 119.261 243.589 117.585C237.653 112.531 214.239 100.315 214.239 100.315C222.25 103.511 230.053 107.206 237.601 111.38C245.113 115.67 249.523 120.286 251.526 122.679C250.896 122.766 250.161 122.867 249.317 122.995Z" fill="#202F60"></path><path d="M210.492 107.891C218.504 111.088 226.307 114.785 233.855 118.961C236.705 120.583 239.411 122.444 241.945 124.525C241.251 124.696 240.515 124.885 239.757 125.09C233.682 119.992 210.492 107.891 210.492 107.891Z" fill="#202F60"></path><path d="M205.829 114.522C213.84 117.717 221.641 121.415 229.186 125.594C230.217 126.182 231.185 126.772 232.104 127.363C231.386 127.594 230.653 127.84 229.901 128.094C220.877 122.369 205.829 114.522 205.829 114.522Z" fill="#202F60"></path><path d="M202.502 119.894C209.329 123.16 215.976 126.79 222.415 130.766L220.561 131.467C212.288 125.847 202.502 119.894 202.502 119.894Z" fill="#202F60"></path><path d="M196.64 126.401C196.64 126.401 203.99 129.977 212.114 134.876L210.591 135.519C203.521 130.728 196.64 126.401 196.64 126.401Z" fill="#202F60"></path><path d="M190.863 132.072C190.863 132.072 196.469 134.774 203.305 138.723L202.043 139.293C196.039 135.305 190.863 132.072 190.863 132.072Z" fill="#202F60"></path><path d="M184.283 137.67C184.283 137.67 188.585 139.759 194.244 142.933L193.212 143.434C188.229 140.148 184.283 137.67 184.283 137.67Z" fill="#202F60"></path><path d="M177.531 142.425C177.531 142.425 181.152 144.186 186.107 146.909L185.212 147.353C180.819 144.509 177.531 142.425 177.531 142.425Z" fill="#202F60"></path><path d="M170.149 146.763C170.149 146.763 173.154 148.577 177.379 151.432L176.627 151.824C172.89 148.852 170.149 146.763 170.149 146.763Z" fill="#202F60"></path><path d="M162.754 150.869C162.754 150.869 165.579 152.702 169.576 155.594L168.868 155.981C165.333 152.969 162.754 150.869 162.754 150.869Z" fill="#202F60"></path><path d="M155.384 156.306C155.384 156.306 157.757 157.867 161.212 160.293L160.631 160.644C157.512 158.052 155.384 156.306 155.384 156.306Z" fill="#202F60"></path><path d="M147.524 162.295C147.524 162.295 149.527 163.592 152.536 165.702L152.04 166.034C149.359 163.785 147.524 162.295 147.524 162.295Z" fill="#202F60"></path><path d="M121.866 183.404C115.414 183.115 108.125 184.702 108.125 184.702C108.125 184.702 109.548 183.607 116.18 182.965C122.812 182.324 123.91 182.531 123.91 182.531L124.31 182.646L123.16 183.434C122.783 183.441 122.359 183.424 121.866 183.404Z" fill="#202F60"></path><path d="M107.737 187.549C107.737 187.549 109.159 186.454 115.791 185.813C117.741 185.626 119.205 185.513 120.309 185.449L119.221 186.228C115.362 186.333 111.519 186.775 107.737 187.549V187.549Z" fill="#202F60"></path><path d="M107.322 190.526C107.322 190.526 108.762 189.516 115.207 189.159L114.403 189.766C112.031 189.895 109.667 190.149 107.322 190.526Z" fill="#202F60"></path><path d="M105.776 193.105C105.776 193.105 106.878 192.425 111.251 192.239L110.584 192.79C107.771 192.874 105.776 193.105 105.776 193.105Z" fill="#202F60"></path><path d="M101.995 195.764C101.995 195.764 103.219 195.011 108.221 194.87C108.021 195.061 107.826 195.245 107.668 195.424C104.399 195.49 101.995 195.764 101.995 195.764Z" fill="#202F60"></path><path d="M288.412 183.079C288.412 183.079 290.72 201.557 284.331 217.461C277.941 233.366 275.545 234.791 275.545 234.791C285.882 216.071 285.813 192.138 285.356 183.191C287.17 183.061 288.412 183.079 288.412 183.079Z" fill="#4076BB"></path><path d="M271.255 193.304C268.312 185.358 279.678 183.581 285.355 183.185C285.812 192.132 285.881 216.065 275.543 234.785C275.544 234.791 275.137 203.781 271.255 193.304Z" fill="#3C66B0"></path><path d="M284.508 210.748C282.003 220.531 280.918 222.027 280.918 222.027C280.918 222.027 286.229 206.195 284.776 189.311C284.716 188.602 284.664 187.948 284.619 187.344L286.028 186.748C286.193 189.871 286.688 202.256 284.508 210.748Z" fill="#202F60"></path><path d="M281.473 209.498C279.352 219.373 278.33 220.911 278.33 220.911C278.33 220.911 282.856 205.369 281 188.893L282.278 188.352C282.615 193.365 282.947 202.644 281.473 209.498Z" fill="#202F60"></path><path d="M279.119 204.731C278.498 214.815 277.722 216.489 277.722 216.489C278.647 207.859 278.378 199.143 276.922 190.586L277.998 190.13C278.771 194.743 279.4 200.187 279.119 204.731Z" fill="#202F60"></path><path d="M273.919 191.855C275.382 200.576 275.048 202.22 275.048 202.22C274.639 198.83 274.021 195.469 273.199 192.155L273.919 191.855Z" fill="#202F60"></path><path d="M129.889 221.156C130.349 220.235 130.855 219.338 131.407 218.468V218.468C131.407 218.468 137.255 221.874 142.686 220.183C148.116 218.492 146.785 220.249 152.96 219.399C159.136 218.55 163.311 213.955 163.311 213.949C162.243 216.254 160.039 219.898 156.395 221.129C150.905 222.986 145.236 221.802 138.124 223.252C131.012 224.702 129.053 223.083 129.889 221.156Z" fill="#F0EFEF"></path><path d="M186.468 217.623C192.843 216.117 191.629 221.79 200.357 221.062C209.085 220.334 225.676 205.31 225.676 205.31C222.088 210.151 213.897 220.597 207.353 224.536C198.706 229.74 194.837 226.181 190.122 223.369C185.406 220.557 173.955 221.892 172.071 221.919C170.186 221.945 167.108 221.89 168.361 218.968C168.967 217.853 169.745 216.841 170.667 215.97V215.97C172.882 219.492 180.106 219.127 186.468 217.623Z" fill="#F0EFEF"></path><path d="M178.343 209.145C175.659 211.262 173.097 213.53 170.669 215.938C168.482 212.388 163.311 213.949 163.311 213.949C163.615 213.301 163.879 212.634 164.099 211.953L178.343 209.145Z" fill="#D4D3D5"></path><path d="M142.655 220.187C137.224 221.878 131.376 218.472 131.376 218.472C133.086 215.626 135.504 211.889 135.504 211.889L194.928 205.291L227.482 202.752C227.482 202.752 226.799 203.733 225.646 205.282C225.646 205.282 209.06 220.337 200.338 221.064C191.616 221.792 192.855 216.115 186.468 217.623C180.081 219.131 172.845 219.496 170.657 215.94C173.084 213.532 175.646 211.264 178.331 209.146L164.089 211.973C163.869 212.654 163.605 213.321 163.301 213.969C163.301 213.969 159.095 218.574 152.919 219.424C146.744 220.273 148.085 218.497 142.655 220.187Z" fill="#D4D3D5"></path><path d="M210.143 216.18C205.6 220.894 203.3 222.469 203.3 222.469C203.3 222.469 213.237 211.821 217.041 205.163C217.188 204.904 217.331 204.664 217.47 204.437L219.761 204.122C217.295 207.513 213.144 213.061 210.143 216.18Z" fill="#202F60"></path><path d="M207.195 211.992C203.131 217.125 200.999 218.916 200.999 218.916C200.999 218.916 206.437 211.832 210.291 205.406L211.872 205.188C210.272 207.692 208.619 210.172 207.195 211.992Z" fill="#202F60"></path><path d="M203.298 210.42C199.43 215.696 197.359 217.566 197.359 217.566C197.359 217.566 201.354 211.933 204.781 206.107L206.251 205.905C205.226 207.6 204.184 209.178 203.298 210.42Z" fill="#202F60"></path><path d="M199.053 207.92C195.45 213.387 193.474 215.351 193.474 215.351C193.474 215.351 195.912 211.524 198.507 206.875L199.803 206.697C199.551 207.147 199.297 207.547 199.053 207.92Z" fill="#202F60"></path><path d="M189.091 215.048C189.091 215.048 190.834 211.756 192.81 207.546L193.927 207.392C190.864 212.979 189.091 215.048 189.091 215.048Z" fill="#202F60"></path><path d="M185.109 214.141C185.109 214.141 186.473 211.569 188.149 208.06L189.131 207.925C187.96 210.102 186.615 212.181 185.109 214.141V214.141Z" fill="#202F60"></path><path d="M181.119 214.69C181.119 214.69 182.513 212.057 184.218 208.488L185.206 208.352C184.015 210.57 182.649 212.69 181.119 214.69V214.69Z" fill="#202F60"></path><path d="M176.37 214.475C176.37 214.475 177.574 212.201 179.112 209.014L180.031 208.925C178.954 210.866 177.731 212.721 176.37 214.475V214.475Z" fill="#202F60"></path><path d="M161.734 211.636C158.578 217.375 156.768 219.492 156.768 219.492C156.768 219.492 158.891 215.488 161.102 210.653L162.303 210.557C162.108 210.937 161.918 211.296 161.734 211.636Z" fill="#202F60"></path><path d="M153.94 218.428C153.94 218.428 155.678 215.137 157.653 210.926L158.755 210.838C155.69 216.369 153.94 218.428 153.94 218.428Z" fill="#202F60"></path><path d="M150.654 218.32C150.654 218.32 152.117 215.236 153.822 211.208L154.845 211.136C152.206 216.338 150.654 218.32 150.654 218.32Z" fill="#202F60"></path><path d="M147.628 217.779C147.628 217.779 148.913 215.086 150.469 211.442L151.416 211.375C150.327 213.608 149.06 215.749 147.628 217.779V217.779Z" fill="#202F60"></path><path d="M144.073 217.821C144.073 217.821 145.313 215.222 146.833 211.678L147.763 211.619C146.701 213.782 145.467 215.856 144.073 217.821Z" fill="#202F60"></path><path d="M140.799 217.309C140.799 217.309 141.874 215.059 143.25 211.887L144.099 211.84C143.141 213.744 142.037 215.573 140.799 217.309V217.309Z" fill="#202F60"></path><path d="M136.917 217.081C136.917 217.081 137.898 215.059 139.172 212.108L139.972 212.068C139.08 213.813 138.059 215.489 136.917 217.081V217.081Z" fill="#202F60"></path><path d="M94.2373 230.18C92.7909 236.629 90.8665 242.962 88.48 249.125C88.9418 242.456 90.9103 235.979 94.2373 230.18V230.18Z" fill="#4076BB"></path><path d="M87.8995 254.283C90.5388 246.285 92.7088 238.139 94.3986 229.887C97.9668 223.714 103 218.514 109.054 214.746C109.269 215.931 109.319 217.139 109.202 218.338C109.202 218.338 97.6229 232.515 94.6319 256.522C91.641 280.53 67.5832 282.895 67.5832 282.895C67.5832 282.895 67.8601 282.712 68.3063 282.342C72.0424 280.683 84.737 274.526 87.8995 254.283Z" fill="#4076BB"></path><path d="M81.2495 209.081C77.9676 207.179 73.8922 204.952 69.0527 202.522C63.093 198.855 56.6072 194.794 49.3509 192.589C32.7597 187.477 25.3723 196.673 25.3723 196.673C25.3723 196.673 36.0038 182.469 57.8906 190.629C79.7774 198.788 79.3008 205.618 95.149 205.326C97.3878 205.241 99.6245 205.544 101.76 206.223C99.5448 207.641 95.8554 209.319 90.0098 210.28C87.1669 210.746 84.2568 210.222 81.2495 209.081Z" fill="#4076BB"></path><path d="M87.5687 255.31L87.8994 254.283C84.7369 274.526 72.0238 280.686 68.3124 282.341C69.5632 281.294 70.6856 280.103 71.6563 278.792C75.445 276.006 83.0663 268.967 87.5687 255.31Z" fill="#3C66B0"></path><path d="M49.3506 192.589C56.6111 194.825 63.096 198.879 69.0524 202.522C67.4896 201.742 65.8525 200.942 64.1412 200.12C51.6652 194.184 41.6448 194.574 36.7594 195.334C32.915 194.634 28.9492 195.101 25.3719 196.673C25.3719 196.673 32.7594 187.477 49.3506 192.589Z" fill="#3C66B0"></path><path d="M57.5786 213.802C56.4353 212.26 55.2428 210.543 54.0477 208.625C53.322 207.466 52.5948 206.433 51.8576 205.465C70.7824 207.368 88.3841 215.984 88.3841 215.984C88.3841 215.984 78.1433 210.653 59.279 204.935C56.1543 203.984 52.9535 203.304 49.712 202.903C47.754 200.735 45.4485 198.909 42.8903 197.499C66.2538 198.093 91.2471 215.389 91.2471 215.389C91.2471 215.389 87.8351 212.907 81.2239 209.078C84.2312 210.219 87.1165 210.747 89.9841 210.277C95.8297 209.316 99.5192 207.638 101.734 206.22C103.632 206.805 105.326 207.916 106.618 209.425C107.91 210.933 108.748 212.777 109.035 214.743C102.987 218.514 97.9609 223.715 94.3986 229.887C95.0125 226.802 95.2302 225.136 95.2302 225.136C95.2302 225.136 94.9353 227.064 94.2314 230.181C90.9043 235.98 88.9359 242.457 88.474 249.126C85.4011 256.98 81.0999 265.374 75.2599 272.004C76.3537 268.811 76.8986 265.455 76.8714 262.08C78.311 259.975 79.6084 257.776 80.7549 255.499C89.663 237.913 92.8448 226.779 92.8448 226.779C92.8448 226.779 87.4195 243.929 76.6976 258.573C76.5748 257.269 76.388 255.91 76.1354 254.485C75.7064 252.235 75.3742 250.185 75.1103 248.22C85.8801 234.885 90.7444 226.193 90.7444 226.193C86.1731 233.566 80.868 240.458 74.9099 246.763C73.2097 232.386 75.9674 226.998 75.9674 226.998C75.9674 226.998 68.9385 228.323 58.7049 215.22C68.3383 215.038 77.9615 215.944 87.3919 217.92C87.3919 217.92 76.6396 215.139 57.5786 213.802Z" fill="#3C66B0"></path><path d="M88.4605 249.348C88.4503 249.274 88.478 249.201 88.4802 249.126C90.8667 242.962 92.7911 236.629 94.2375 230.18L94.4048 229.887C92.713 238.139 90.5409 246.285 87.8995 254.283C88.144 252.721 88.3403 251.083 88.4605 249.348Z" fill="#202F60"></path><path d="M88.4802 249.125C88.4904 249.199 88.4997 249.267 88.4605 249.348C88.3404 251.083 88.144 252.72 87.881 254.286L87.5503 255.313C83.0513 268.994 75.4267 276.008 71.638 278.794C73.1817 276.732 74.3953 274.442 75.2352 272.007C81.1061 265.373 85.4073 256.979 88.4802 249.125Z" fill="#202F60"></path><path d="M95.2363 225.135C95.2363 225.135 95.0187 226.801 94.4048 229.887L94.2375 230.18C94.9415 227.063 95.2363 225.135 95.2363 225.135Z" fill="#202F60"></path><path d="M80.7486 255.5C79.6021 257.777 78.3047 259.976 76.8651 262.081C76.863 260.967 76.81 259.804 76.6938 258.593C87.4167 243.955 92.8411 226.798 92.8411 226.798C92.8411 226.798 89.6356 237.898 80.7486 255.5Z" fill="#202F60"></path><path d="M90.7444 226.193C90.7444 226.193 85.8862 234.884 75.0943 248.242C75.0255 247.741 74.9576 247.247 74.8913 246.766C80.856 240.46 86.1674 233.568 90.7444 226.193V226.193Z" fill="#202F60"></path><path d="M81.2493 209.081C77.3868 207.624 73.3558 205.17 69.0525 202.521C73.892 204.952 77.9674 207.179 81.2493 209.081Z" fill="#202F60"></path><path d="M64.1414 200.12C65.861 200.941 67.498 201.741 69.0526 202.522C73.3558 205.17 77.3869 207.624 81.2494 209.081C87.8607 212.91 91.2726 215.392 91.2726 215.392C91.2726 215.392 66.2381 198.07 42.9159 197.501C40.9916 196.461 38.9141 195.734 36.7613 195.346C41.645 194.574 51.6654 194.184 64.1414 200.12Z" fill="#202F60"></path><path d="M88.4123 216.005C88.4123 216.005 70.8107 207.389 51.8858 205.486C51.1731 204.559 50.4573 203.701 49.7402 202.924C52.9779 203.31 56.1764 203.973 59.3004 204.907C78.1672 210.644 88.4123 216.005 88.4123 216.005Z" fill="#202F60"></path><path d="M87.3979 217.919C77.9676 215.943 68.3444 215.038 58.711 215.219C58.3528 214.765 57.9912 214.286 57.6279 213.795C76.6394 215.139 87.3979 217.919 87.3979 217.919Z" fill="#202F60"></path><path d="M308.24 157.461C308.24 157.461 333.565 152.506 344.202 155.133L354.845 157.76C354.845 157.76 405.036 158.245 431.528 157.93C458.02 157.616 475.251 157.864 475.251 157.864C475.251 157.864 414.014 160.981 383.244 160.933C352.474 160.886 338.868 163.619 338.868 163.619C341.451 164.672 343.956 165.909 346.362 167.32C351.435 170.165 367.637 180.182 367.637 180.182C367.637 180.182 345.698 168.947 331.766 163.721C317.833 158.495 308.24 157.461 308.24 157.461Z" fill="#841C1B"></path><path d="M334.725 154.448C334.725 154.448 337.151 160.054 335.125 165.09C333.1 170.125 308.24 157.46 308.24 157.46L324.623 151.91L334.725 154.448Z" fill="#48101A"></path><path d="M346.007 169.772C344.34 167.016 341.84 164.861 338.868 163.618C335.952 162.278 332.649 162.041 329.571 162.953L346.007 169.772Z" fill="#E43590"></path><path d="M134.607 186.648C115.917 194.831 119.113 187.596 122.027 183.294C142.725 167.784 164.988 154.48 188.452 143.597C242.803 118.599 267.412 116.077 290.117 119.48C312.822 122.883 324.2 133.96 324.2 133.96C324.2 133.96 333.482 137.403 381.262 146.249C429.042 155.094 475.251 157.864 475.251 157.864C475.251 157.864 416.129 156.14 393.347 155.196C370.565 154.251 354.939 153.87 354.939 153.87C354.939 153.87 347.586 150.735 335.703 150.116C323.819 149.498 309.806 152.84 309.806 152.84C309.806 152.84 287.924 148.141 266.24 151.753C249.63 154.515 215.709 160.199 177.102 173.354C177.102 173.354 159.838 175.609 134.607 186.648Z" fill="#4678BC"></path><path d="M77.8662 224.472L78.2593 224.311L77.3825 225.117L77.8662 224.472Z" fill="#4678BC"></path><path d="M122.027 183.294C119.114 187.596 115.918 194.831 134.607 186.648C159.84 175.627 177.101 173.342 177.101 173.342C165.308 177.361 153.082 182.075 140.774 187.612C102.129 205.02 84.7578 218.396 78.2611 224.323L77.868 224.484C86.1577 213.522 101.671 198.533 122.027 183.294Z" fill="#3C66B0"></path><path d="M277.685 186.202C246.971 193.151 241.286 199.174 176.054 205.999C112.869 212.605 109.363 212.143 78.0076 225.591C115.455 196.273 176.756 174.956 236.08 161.223C296.04 147.315 308.24 157.46 308.24 157.46C308.24 157.46 317.828 158.552 331.759 163.765C343.915 168.286 362.123 177.423 366.6 179.689C364.045 178.819 351.725 175.115 330.501 175.988C306.519 176.977 308.402 179.235 277.685 186.202Z" fill="#FCFCFA"></path><path d="M354.175 179.113C344.13 178.341 334.025 178.999 324.165 181.069C311.166 183.681 286.564 188.266 286.564 188.266C286.564 188.266 254.37 198.91 224.96 205.05C195.551 211.189 139.872 213.95 118.747 216.276C99.1539 218.436 79.1578 225.811 76.3778 226.872L76.7444 226.564C77.1579 226.23 77.5854 225.907 78.0059 225.579C109.361 212.13 112.868 212.605 176.052 205.986C241.285 199.162 253.551 189.433 284.379 182.992C299.897 179.75 313.784 177.186 330.501 175.988C351.687 174.472 364.045 178.819 366.6 179.689L367.624 180.177C367.624 180.177 362.221 179.643 354.175 179.113Z" fill="#D4D3D5"></path><path d="M335.701 150.104C347.584 150.723 354.937 153.858 354.937 153.858C354.937 153.858 370.562 154.227 393.346 155.183C416.13 156.14 475.251 157.864 475.251 157.864C475.251 157.864 458.02 157.616 431.528 157.93C405.036 158.245 354.843 157.747 354.843 157.747L344.2 155.121C333.563 152.493 308.238 157.448 308.238 157.448C308.259 155.781 308.808 154.164 309.805 152.828C309.805 152.828 323.818 149.485 335.701 150.104Z" fill="#4068B2"></path><path d="M77.3825 225.117C83.1262 219.709 100.268 205.855 140.774 187.612C193.374 163.924 244.566 155.349 266.238 151.74C287.91 148.131 309.805 152.828 309.805 152.828C308.807 154.164 308.259 155.781 308.238 157.448C308.238 157.448 296.042 147.327 236.079 161.211C176.115 175.095 114.065 196.734 76.7411 226.539L76.3746 226.848L76.0274 226.977C76.4563 226.39 76.9056 225.768 77.3825 225.117Z" fill="#F9A92F"></path><path d="M306.561 147.498C311.834 149.969 315.462 143.172 315.462 143.172C312.204 139.07 306.951 138.572 306.951 138.572C306.951 138.572 301.282 145.027 306.561 147.498Z" fill="#FEF8FB"></path><path d="M307.51 145.861C306.299 145.227 305.941 143.521 306.711 142.051C307.48 140.581 309.085 139.903 310.296 140.536C311.507 141.17 311.865 142.876 311.096 144.346C310.327 145.816 308.721 146.494 307.51 145.861Z" fill="#4278BC"></path><path d="M307.932 144.839C307.114 144.412 306.883 143.239 307.417 142.22C307.95 141.201 309.045 140.722 309.862 141.15C310.68 141.578 310.91 142.75 310.377 143.769C309.844 144.788 308.749 145.267 307.932 144.839Z" fill="#020202"></path><path d="M310.447 142.619C310.194 142.486 310.072 142.221 310.174 142.026C310.276 141.83 310.564 141.78 310.817 141.912C311.07 142.044 311.193 142.31 311.09 142.505C310.988 142.7 310.7 142.751 310.447 142.619Z" fill="#FCFAF6"></path><path d="M307.18 144.332C306.927 144.2 306.804 143.934 306.906 143.739C307.008 143.544 307.296 143.493 307.55 143.625C307.803 143.758 307.925 144.023 307.823 144.219C307.721 144.414 307.433 144.465 307.18 144.332Z" fill="#FCFAF6"></path><path d="M318.92 137.524C318.92 137.524 318.844 139.674 318.057 140.902C317.672 141.579 317.087 142.121 316.382 142.454C316.382 142.454 314.791 138.847 309.06 137.848C305.754 137.326 302.374 137.537 299.159 138.467C302.885 138.304 306.61 138.817 310.153 139.982C315.504 141.882 315.575 146.195 315.575 146.195C315.575 146.195 320.578 143.129 318.92 137.524Z" fill="#202F60"></path><path d="M291.114 142.197C291.114 142.197 284.754 149.622 285.11 151.933C285.438 154.039 295.741 161.382 295.741 161.382C295.741 161.382 284.783 154.91 284.381 151.982C283.978 149.055 291.114 142.197 291.114 142.197Z" fill="#202F60"></path><path d="M289.182 142.463C289.182 142.463 282.822 149.888 283.177 152.198C283.505 154.305 293.814 161.646 293.814 161.646C293.814 161.646 282.857 155.175 282.454 152.247C282.052 149.32 289.182 142.463 289.182 142.463Z" fill="#202F60"></path><path d="M284.971 139.021C284.971 139.021 277.233 149.744 277.757 153.189C278.24 156.332 291.557 167.652 291.557 167.652C291.557 167.652 276.538 157.818 275.905 153.444C275.272 149.07 284.971 139.021 284.971 139.021Z" fill="#202F60"></path><path d="M270.976 118.337C270.976 118.337 263.849 126.314 263.175 135.688C262.814 141.767 263.202 147.868 264.332 153.852C264.332 153.852 261.716 146.818 262.115 135.437C262.513 124.056 269.413 118.407 269.413 118.407L270.976 118.337Z" fill="#202F60"></path><path d="M290.022 187.652C290.022 187.652 281.689 184.072 276.453 177.386C273.003 172.864 270.09 167.956 267.772 162.761C267.772 162.761 269.213 169.9 275.971 178.044C282.276 185.64 288.759 187.895 288.759 187.895L290.022 187.652Z" fill="#202F60"></path><path d="M173.336 164.862C172.513 168.879 172.769 173.043 174.077 176.929C176.262 182.984 180.838 188.163 180.838 188.163C180.838 188.163 175.011 183.59 172.82 177.31C170.6 170.863 173.336 164.862 173.336 164.862Z" fill="#3999D5"></path><path d="M188.817 156.591C187.782 160.558 187.815 164.728 188.912 168.678C190.773 174.841 195.072 180.253 195.072 180.253C195.072 180.253 189.485 175.358 187.639 168.979C185.745 162.438 188.817 156.591 188.817 156.591Z" fill="#3999D5"></path><path d="M204.783 152.584C203.749 156.551 203.781 160.721 204.879 164.671C206.74 170.839 211.039 176.251 211.039 176.251C211.039 176.251 205.452 171.356 203.605 164.972C201.712 158.436 204.783 152.584 204.783 152.584Z" fill="#3999D5"></path><path d="M220.341 146.568C219.307 150.533 219.339 154.701 220.436 158.649C222.297 164.818 226.596 170.229 226.596 170.229C226.596 170.229 221.009 165.335 219.163 158.956C217.269 152.415 220.341 146.568 220.341 146.568Z" fill="#3999D5"></path><path d="M236.506 142.218C235.133 146.498 234.917 151.065 235.879 155.456C237.54 162.319 241.921 168.506 241.921 168.506C241.921 168.506 236.106 162.831 234.463 155.688C232.823 148.426 236.506 142.218 236.506 142.218Z" fill="#3999D5"></path><path d="M252.655 144.893C251.508 148.468 251.33 152.284 252.137 155.951C253.553 161.677 257.179 166.854 257.179 166.854C257.179 166.854 252.323 162.11 250.952 156.164C249.543 150.084 252.655 144.893 252.655 144.893Z" fill="#3999D5"></path><path d="M157.127 172.181C156.652 176.254 157.267 180.38 158.909 184.137C161.601 189.984 166.616 194.743 166.616 194.743C166.616 194.743 160.396 190.697 157.672 184.615C154.904 178.395 157.127 172.181 157.127 172.181Z" fill="#3999D5"></path><path d="M143.857 178.87C143.422 182.617 143.988 186.412 145.496 189.87C147.976 195.23 152.583 199.63 152.583 199.63C152.583 199.63 146.879 195.903 144.379 190.307C141.806 184.595 143.857 178.87 143.857 178.87Z" fill="#3999D5"></path><path d="M127.506 185.756C127.088 189.362 127.631 193.015 129.081 196.343C131.473 201.52 135.91 205.736 135.91 205.736C135.91 205.736 130.384 202.154 127.999 196.756C125.539 191.261 127.506 185.756 127.506 185.756Z" fill="#3999D5"></path><path d="M114.152 195.904C113.912 197.969 114.224 200.061 115.055 201.966C116.045 203.961 117.358 205.779 118.941 207.346C118.941 207.346 115.796 205.293 114.416 202.211C113.593 200.204 113.5 197.973 114.152 195.904Z" fill="#3999D5"></path><path d="M261.948 168.451L192.757 168.999C192.757 168.999 215.13 173.832 225.991 177.31C236.851 180.787 245.583 185.942 252.101 183.787C255.977 182.499 259.193 179.741 261.056 176.106L261.961 178.618C261.961 178.618 260.6 171.644 263.504 166.45C266.407 161.256 261.948 168.451 261.948 168.451Z" fill="#D4D4D6"></path><path d="M187.213 169.315C187.213 169.315 206.114 156.403 231.384 157.962C256.655 159.52 265.045 164.294 265.045 164.294C265.045 164.294 263.886 165.02 261.929 165.981C254.682 163.932 239.875 160.406 225.877 161.06C205.957 161.993 196.308 166.227 196.308 166.227C196.308 166.227 224.598 156.887 260.222 166.788C259.257 167.229 258.17 167.7 256.984 168.134C249.416 166.229 239.613 164.4 230.101 164.506C210.166 164.73 200.365 168.595 200.365 168.595C200.365 168.595 224.052 161.701 254.848 168.849C253.644 169.241 252.434 169.596 251.105 169.911C247.771 169.216 244.398 168.722 241.004 168.431C221.126 166.829 210.99 169.808 210.99 169.808C210.99 169.808 226.246 166.855 247.538 170.603C244.689 171.047 241.793 171.113 238.926 170.799C225.642 169.241 213.757 169.384 211.58 172.043C210.132 171.808 208.679 171.58 207.224 171.383C190.09 169.052 187.213 169.315 187.213 169.315Z" fill="#4076BB"></path><path d="M238.955 170.827C241.822 171.141 244.718 171.075 247.567 170.63C252.031 171.415 256.449 172.441 260.802 173.706C260.486 174.465 260 175.141 259.381 175.682C258.213 175.383 257.042 175.104 255.864 174.863C236.346 170.795 225.963 172.487 225.963 172.487C225.963 172.487 239.612 171.579 258.367 176.727L258.069 177.033C257.254 177.843 256.337 178.544 255.342 179.119C243.323 175.958 236.756 176.157 236.756 176.157C236.756 176.157 243.772 176.614 254.346 179.659C251.817 180.894 248.772 181.495 246.022 180.577C234.776 176.936 223.286 174.101 211.638 172.091V172.091C213.786 169.411 225.671 169.268 238.955 170.827Z" fill="#3C66B0"></path><path d="M262.845 167.516C262.484 168.141 262.163 168.788 261.885 169.454C260.398 169.029 258.75 168.576 256.984 168.133C258.181 167.686 259.257 167.229 260.222 166.788L262.845 167.516Z" fill="#3C66B0"></path><path d="M263.502 166.431C263.029 166.288 262.506 166.14 261.93 165.98C263.89 165 265.045 164.294 265.045 164.294C265.045 164.294 264.322 165.167 263.502 166.431Z" fill="#3C66B0"></path><path d="M261.284 171.399C261.221 171.811 261.157 172.172 261.099 172.482C257.949 171.537 254.556 170.657 251.091 169.944C252.401 169.632 253.654 169.271 254.834 168.882C257.001 169.39 259.212 169.969 261.466 170.619C261.388 170.875 261.327 171.136 261.284 171.399V171.399Z" fill="#3C66B0"></path><path d="M196.308 166.227C196.308 166.227 205.957 161.993 225.876 161.059C239.873 160.393 254.682 163.932 261.929 165.981C261.416 166.234 260.844 166.508 260.222 166.788C224.623 156.884 196.308 166.227 196.308 166.227Z" fill="#202F60"></path><path d="M262.845 167.516L260.229 166.787C260.851 166.507 261.411 166.234 261.936 165.98C262.511 166.14 263.035 166.288 263.507 166.431C263.292 166.787 263.063 167.133 262.845 167.516Z" fill="#202F60"></path><path d="M200.37 168.626C200.37 168.626 210.17 164.761 230.105 164.537C239.617 164.43 249.424 166.285 256.988 168.164C256.312 168.421 255.598 168.67 254.857 168.91C224.056 161.731 200.37 168.626 200.37 168.626Z" fill="#202F60"></path><path d="M261.484 170.616C259.242 169.96 257.031 169.381 254.852 168.879C255.593 168.639 256.308 168.39 256.983 168.133C258.749 168.576 260.397 169.029 261.884 169.454C261.726 169.832 261.592 170.221 261.484 170.616Z" fill="#202F60"></path><path d="M211.019 169.836C211.019 169.836 221.13 166.859 241.033 168.458C244.426 168.749 247.8 169.244 251.134 169.938C249.988 170.209 248.807 170.447 247.592 170.627C226.274 166.882 211.019 169.836 211.019 169.836Z" fill="#202F60"></path><path d="M260.801 173.706C256.449 172.441 252.031 171.415 247.567 170.63C248.802 170.46 249.964 170.213 251.11 169.942C254.593 170.652 257.965 171.516 261.117 172.479C261.046 172.896 260.941 173.306 260.801 173.706V173.706Z" fill="#202F60"></path><path d="M225.938 172.491C225.938 172.491 236.346 170.795 255.839 174.866C257.017 175.107 258.189 175.386 259.356 175.685C259.07 175.982 258.727 176.325 258.317 176.734C239.588 171.583 225.938 172.491 225.938 172.491Z" fill="#202F60"></path><path d="M236.731 176.16C236.731 176.16 243.298 175.961 255.317 179.122C254.997 179.311 254.664 179.495 254.322 179.662C243.753 176.616 236.731 176.16 236.731 176.16Z" fill="#202F60"></path><g opacity="0.3"><path opacity="0.3" d="M148.567 245.884C165.825 240.421 181.334 229.976 201.078 228.507C218.973 227.173 243.189 228.845 255.829 243.568C274.39 265.197 312.528 242.548 333.626 215.779C354.725 189.011 371.369 176.529 393.342 183.713C406.42 187.987 425.841 175.469 439.417 164.604C448.653 157.224 443.142 159.656 432.007 165.623C415.942 174.225 395.325 180.88 385.432 176.753C368.684 169.769 355.534 166.115 327.198 180.105C298.861 194.094 277.54 220.66 262.153 224.714C209.529 238.577 204.334 215.116 168.693 222.981C153.239 226.364 139.647 232.997 124.606 237.922C112.899 241.747 100.253 243.863 88.2638 241.101C100.637 252.236 119.464 250.817 135.972 248.736C140.247 248.167 144.463 247.212 148.567 245.884ZM270.428 223.759C272.127 221.285 295.204 205.477 318.639 187.876C342.074 170.275 359.676 177.658 359.676 177.658C341.407 183.317 323.206 212.625 323.206 212.625C323.206 212.625 309.721 230.003 298.908 231.452C288.096 232.901 296.495 226.121 279.119 233.192C261.743 240.263 268.723 226.234 270.428 223.759V223.759Z" fill="#3999D5"></path></g></svg>