<svg xmlns="http://www.w3.org/2000/svg" width="488" height="333" viewBox="0 0 488 333" fill="none"><path d="M452.93 91.5653C452.93 91.5653 447.848 88.4645 442.23 100.552C436.612 112.639 434.563 119.576 434.563 119.576C434.563 119.576 433.049 122.117 431.286 120.555C429.522 118.992 427.03 114.475 424.136 115.399C421.156 116.366 420.287 119.764 421.041 124.683C421.795 129.602 423.041 140.436 423.157 141.415C423.272 142.394 422.762 143.847 421.387 142.947C420.013 142.048 411.988 133.76 408.267 137.804C404.546 141.847 408.875 155.205 409.349 156.652C409.823 158.099 409.525 158.761 408.832 159.157C408.139 159.552 405.707 156.5 403.36 154.226C401.013 151.952 397.821 149.739 395.876 152.25C393.93 154.761 393.638 164.914 403.871 181.014L409.1 188.164L417.958 187.35C436.806 184.456 444.26 177.561 444.868 174.442C445.476 171.323 441.731 170.399 438.46 170.107C435.189 169.815 431.286 169.979 431.128 169.201C430.97 168.423 431.274 167.796 432.678 167.17C434.082 166.544 446.99 161.023 447.592 155.557C448.194 150.091 436.648 149.532 435.086 149.07C433.523 148.608 434.277 147.282 435.086 146.729C435.894 146.176 444.881 139.98 449.07 137.311C453.259 134.642 455.192 131.766 453.976 128.884C452.76 126.106 447.732 127.2 445.391 126.896C443.05 126.592 443.975 123.783 443.975 123.783C443.975 123.783 447.848 117.703 453.247 105.501C458.646 93.2981 452.815 91.5166 452.815 91.5166" fill="#5F6CAF"></path><path d="M447.896 102.382C447.896 102.382 447.866 102.473 447.793 102.643C447.72 102.813 447.61 103.081 447.477 103.403L446.224 106.291C445.13 108.802 443.525 112.426 441.524 116.895C437.524 125.832 431.894 138.126 425.631 151.684C419.369 165.243 413.69 177.536 409.641 186.456L404.856 197.017L403.555 199.887C403.403 200.203 403.287 200.452 403.208 200.628C403.17 200.714 403.127 200.797 403.081 200.878C403.107 200.788 403.14 200.701 403.178 200.616C403.257 200.434 403.36 200.184 403.494 199.862C403.786 199.187 404.211 198.215 404.747 196.968C405.841 194.457 407.446 190.84 409.446 186.371C413.447 177.433 419.077 165.139 425.339 151.575C431.602 138.01 437.262 125.729 441.312 116.816C443.33 112.371 444.96 108.766 446.097 106.261L447.404 103.391C447.55 103.069 447.665 102.825 447.75 102.643C447.835 102.461 447.896 102.382 447.896 102.382Z" fill="#E0E0E0"></path><path d="M427.388 121.868C427.497 122.059 427.581 122.263 427.637 122.476C427.783 122.859 427.972 123.425 428.203 124.124C428.653 125.528 429.23 127.474 429.826 129.638L431.328 135.183C431.51 135.846 431.662 136.399 431.79 136.861C431.864 137.057 431.911 137.261 431.93 137.469C431.821 137.279 431.737 137.074 431.681 136.861C431.535 136.478 431.346 135.913 431.121 135.208C430.684 133.803 430.13 131.845 429.534 129.681L427.996 124.148L427.528 122.476C427.458 122.279 427.412 122.075 427.388 121.868Z" fill="#E0E0E0"></path><path d="M432.751 137.597C432.751 137.518 436.691 136.15 441.609 134.557C446.528 132.964 450.541 131.705 450.565 131.785C450.59 131.864 446.626 133.232 441.707 134.825C436.788 136.417 432.775 137.676 432.751 137.597Z" fill="#E0E0E0"></path><path d="M422.19 157.989C422.406 157.949 422.626 157.93 422.847 157.935L424.622 157.874C426.118 157.819 428.191 157.74 430.471 157.564C432.751 157.388 434.812 157.181 436.308 157.011L438.071 156.81C438.287 156.77 438.508 156.757 438.728 156.773C438.531 156.845 438.327 156.896 438.12 156.925C437.706 157.005 437.104 157.108 436.362 157.217C434.879 157.442 432.812 157.698 430.526 157.868C428.24 158.038 426.16 158.087 424.652 158.081C423.905 158.081 423.297 158.081 422.877 158.05C422.646 158.062 422.415 158.041 422.19 157.989Z" fill="#E0E0E0"></path><path d="M414.213 144.832C414.354 144.977 414.476 145.138 414.578 145.313C414.797 145.629 415.113 146.097 415.49 146.681C416.25 147.842 417.277 149.459 418.396 151.253C419.515 153.046 420.518 154.682 421.229 155.874C421.588 156.482 421.868 156.956 422.056 157.296C422.171 157.464 422.263 157.646 422.33 157.837C422.183 157.696 422.058 157.534 421.959 157.357C421.74 157.035 421.43 156.573 421.047 155.989C420.293 154.828 419.265 153.211 418.141 151.411C417.016 149.611 416.019 147.982 415.307 146.79C414.955 146.182 414.699 145.708 414.48 145.373C414.37 145.204 414.28 145.023 414.213 144.832Z" fill="#E0E0E0"></path><path d="M402.6 161.65C402.777 161.835 402.934 162.039 403.068 162.258L404.242 164.009C405.215 165.492 406.552 167.553 408.011 169.839C409.471 172.125 410.778 174.211 411.708 175.725L412.802 177.549C412.944 177.765 413.066 177.992 413.167 178.23C412.99 178.044 412.833 177.84 412.699 177.622L411.532 175.871C410.553 174.381 409.215 172.32 407.756 170.034C406.297 167.748 404.996 165.662 404.059 164.149C403.622 163.431 403.257 162.823 402.971 162.325C402.824 162.113 402.7 161.887 402.6 161.65Z" fill="#E0E0E0"></path><path d="M413.027 177.756C413.297 177.694 413.572 177.662 413.848 177.658L416.098 177.5C417.995 177.366 420.621 177.172 423.509 176.892C426.397 176.612 428.981 176.284 430.896 176.023L433.128 175.725C433.401 175.676 433.677 175.651 433.955 175.652C433.692 175.742 433.421 175.805 433.146 175.84C432.623 175.944 431.863 176.077 430.927 176.229C429.042 176.54 426.434 176.904 423.54 177.196C420.646 177.488 418.013 177.652 416.11 177.731C415.155 177.768 414.389 177.792 413.854 177.792C413.578 177.803 413.301 177.791 413.027 177.756Z" fill="#E0E0E0"></path><path d="M90.8724 151.453C105.057 141.987 108.504 124.093 108.219 107.927C108.164 105.227 108.511 102.394 107.246 100.023C105.981 97.6514 102.99 95.9734 100.515 97.0738C98.4785 97.9858 97.5544 100.302 96.3931 102.211C94.8269 104.762 92.5746 106.821 89.8936 108.152C88.1425 109.015 85.9841 109.526 84.2817 108.565C81.947 107.252 81.716 104.035 81.7768 101.354L82.1051 86.373C82.1598 83.6918 82.2145 80.9558 81.4059 78.3961C80.5972 75.8364 78.7732 73.453 76.2014 72.6991C73.6296 71.9452 70.4132 73.3679 69.8235 75.9823C69.5803 77.0706 69.787 78.2076 69.6958 79.3202C69.6046 80.4329 69.0878 81.655 67.9812 81.9468C66.8747 82.2386 65.8228 81.4665 65.0203 80.6761C62.2599 77.9218 60.4116 74.4137 58.691 70.9481C56.9703 67.4825 55.2923 63.877 52.7995 60.8918C50.3067 57.9065 46.8167 55.511 42.9316 55.2313C39.0465 54.9516 34.8695 57.2681 33.8116 61.0194C32.7537 64.7708 34.9425 68.6498 37.3259 71.7446C40.8748 76.329 45.0666 80.3774 49.7716 83.7647C50.6228 84.3727 51.5348 85.0354 51.851 86.0326C52.4103 87.8566 50.6715 89.5772 48.8718 90.1426C46.835 90.7506 44.6158 90.5378 42.5243 90.7506C40.4327 90.9634 38.0919 91.8511 37.259 93.7906C36.1099 96.5145 38.3838 99.4207 40.6395 101.336C45.1584 105.172 50.2989 108.209 55.8395 110.316C57.8276 111.07 59.9191 111.733 61.506 113.143C63.0929 114.554 64.0353 116.974 63.0321 118.846C62.0289 120.719 59.5179 121.278 57.4324 120.877C55.347 120.476 53.4926 119.314 51.5105 118.542C47.7956 117.095 42.9985 117.278 40.5361 120.427C38.931 122.494 38.7486 125.407 39.5025 127.912C40.2564 130.417 41.8372 132.587 43.5153 134.6C49.3886 141.616 56.9643 147.307 65.5735 150.408C74.1828 153.508 82.1902 154.42 90.842 151.441" fill="#5F6CAF"></path><path d="M89.7841 151.763C87.5041 143.586 81.2721 124.343 77.5329 115.283L74.7543 108.595C73.8363 106.401 72.9303 104.23 71.9028 102.157C69.9284 98.1881 67.7363 94.3315 65.3364 90.6047C63.0625 87.0175 60.7764 83.6978 58.6484 80.6031C56.5204 77.5084 54.3924 74.6812 52.3982 72.1702C49.2534 68.1912 45.7971 64.4687 42.0622 61.0377C40.7428 59.8217 39.691 58.9097 38.9675 58.3017L38.1041 57.5599C37.9156 57.4079 37.8123 57.335 37.8123 57.335C37.8123 57.335 37.8974 57.4262 38.0737 57.5903L38.8763 58.3078C39.5755 58.9158 40.6151 59.8642 41.9163 61.0985C45.5951 64.5699 49.0094 68.3115 52.1307 72.2918C54.1127 74.8089 56.1678 77.6543 58.3262 80.743C60.4846 83.8316 62.7463 87.1634 65.0142 90.7446C67.399 94.4727 69.5769 98.3292 71.538 102.297C72.5534 104.364 73.4593 106.553 74.3774 108.723C75.2955 110.894 76.2014 113.155 77.1559 115.411C80.8708 124.458 87.1211 143.683 89.4193 151.836" fill="#E0E0E0"></path><path d="M71.7751 102.114C71.901 101.743 71.9906 101.36 72.0427 100.971C72.1886 100.229 72.371 99.1472 72.5777 97.8217C72.9972 95.1587 73.4532 91.462 73.9457 87.3824C74.4382 83.3027 74.955 79.6243 75.4292 76.9734C75.6603 75.648 75.8609 74.5779 76.0372 73.8422C76.1323 73.4631 76.1953 73.0767 76.2257 72.687C76.0769 73.0482 75.9629 73.4228 75.8852 73.8057C75.6846 74.5353 75.4414 75.6297 75.1739 76.9248C74.5841 79.5635 74.0369 83.2541 73.5444 87.352C73.0519 91.4499 72.6263 95.0553 72.298 97.8035C72.1339 99.0803 71.994 100.144 71.8846 100.965C71.8157 101.344 71.7791 101.729 71.7751 102.114Z" fill="#E0E0E0"></path><path d="M36.9612 95.1526C37.0773 95.1897 37.1981 95.2101 37.3199 95.2134L38.3535 95.3168C39.2533 95.408 40.5484 95.5296 42.1413 95.7302C45.3333 96.1072 49.7292 96.7942 54.5445 97.7609C59.3599 98.7277 63.6645 99.816 66.7653 100.685C68.3157 101.111 69.5621 101.488 70.4133 101.743L71.4105 102.035C71.5234 102.079 71.6423 102.106 71.7631 102.114C71.6619 102.047 71.5512 101.996 71.4348 101.962C71.1673 101.859 70.8268 101.737 70.462 101.597C69.6169 101.293 68.3765 100.868 66.814 100.381C63.7314 99.439 59.4146 98.3142 54.5932 97.3414C49.7717 96.3686 45.4002 95.7545 42.1717 95.4445C40.5727 95.2803 39.2655 95.2013 38.3657 95.1648H37.326C37.2054 95.1455 37.0828 95.1415 36.9612 95.1526Z" fill="#E0E0E0"></path><path d="M86.3914 140.631C86.4841 140.499 86.5635 140.359 86.6285 140.212L87.2365 138.996C87.7594 137.913 88.4525 136.333 89.3523 134.369C91.0912 130.447 93.3226 124.951 95.712 118.859C98.1014 112.766 100.284 107.234 101.944 103.282L103.938 98.6122C104.157 98.0893 104.34 97.6698 104.479 97.3415C104.548 97.195 104.603 97.0423 104.644 96.8855C104.545 97.0136 104.465 97.1548 104.406 97.305L103.798 98.521C103.276 99.6033 102.552 101.184 101.689 103.142C99.9498 107.07 97.7123 112.566 95.329 118.658C92.9456 124.75 90.7507 130.259 89.0787 134.211L87.0845 138.88L86.5494 140.151C86.4773 140.304 86.4242 140.465 86.3914 140.631Z" fill="#E0E0E0"></path><path d="M40.2261 125.182C40.3715 125.258 40.5243 125.319 40.6821 125.364L42.0258 125.82L46.9749 127.48C51.1518 128.878 56.8974 130.879 63.2389 133.104C69.5803 135.329 75.3502 137.287 79.5515 138.618C81.6491 139.281 83.3576 139.804 84.5371 140.145L85.9051 140.528C86.0629 140.581 86.226 140.618 86.3915 140.637C86.2439 140.559 86.0892 140.496 85.9294 140.449L84.5857 139.993L79.6366 138.345C75.4597 136.946 69.7141 134.946 63.3726 132.721C57.0312 130.496 51.2674 128.532 47.0661 127.206C44.9624 126.544 43.26 126.021 42.0744 125.68L40.7125 125.291C40.5543 125.239 40.3914 125.202 40.2261 125.182Z" fill="#E0E0E0"></path><path d="M324.326 57.7848H400.977L385.984 68.443V77.3441C385.95 81.7421 384.171 85.9465 381.038 89.033C377.904 92.1194 373.674 93.8351 369.276 93.8027H321.177C316.779 93.8351 312.548 92.1194 309.415 89.033C306.282 85.9465 304.503 81.7421 304.469 77.3441C304.488 74.7559 305.017 72.1967 306.025 69.8128C307.034 67.429 308.502 65.2672 310.346 63.4508C312.19 61.6345 314.374 60.1992 316.772 59.227C319.171 58.2548 321.738 57.7647 324.326 57.7848Z" fill="#FEFBFB"></path><path d="M373.051 69.6835C373.051 69.7686 360.283 69.8415 344.475 69.8415C328.667 69.8415 315.899 69.7686 315.899 69.6835C315.899 69.5984 328.667 69.5254 344.475 69.5254C360.283 69.5254 373.051 69.5923 373.051 69.6835Z" fill="#263238"></path><path d="M373.051 75.6053C373.051 75.6905 360.283 75.7634 344.475 75.7634C328.667 75.7634 315.899 75.6905 315.899 75.6053C315.899 75.5202 328.667 75.4473 344.475 75.4473C360.283 75.4473 373.051 75.5141 373.051 75.6053Z" fill="#263238"></path><path d="M208.034 240.215H117.333L132.107 250.904V271.88C132.107 272.455 132.22 273.025 132.441 273.557C132.661 274.088 132.984 274.571 133.391 274.978C133.798 275.384 134.282 275.706 134.814 275.926C135.345 276.146 135.915 276.258 136.491 276.258H208.034C208.609 276.258 209.179 276.146 209.711 275.926C210.243 275.706 210.726 275.384 211.133 274.978C211.54 274.571 211.863 274.088 212.084 273.557C212.304 273.025 212.418 272.455 212.418 271.88V244.593C212.416 243.431 211.953 242.318 211.132 241.497C210.31 240.676 209.196 240.215 208.034 240.215Z" fill="#FEFBFB"></path><path d="M204.252 255.038C204.252 255.13 190.572 255.197 173.7 255.197C156.828 255.197 143.148 255.13 143.148 255.038C143.148 254.947 156.822 254.88 173.7 254.88C190.579 254.88 204.252 254.953 204.252 255.038Z" fill="#263238"></path><path d="M204.252 263.094C204.252 263.179 190.572 263.252 173.7 263.252C156.828 263.252 143.148 263.179 143.148 263.094C143.148 263.009 156.822 262.936 173.7 262.936C190.579 262.936 204.252 263.009 204.252 263.094Z" fill="#263238"></path><path d="M393.225 136.843H287.074C274.049 136.843 263.49 147.402 263.49 160.428V246.824C263.49 259.85 274.049 270.409 287.074 270.409H393.225C406.25 270.409 416.809 259.85 416.809 246.824V160.428C416.809 147.402 406.25 136.843 393.225 136.843Z" fill="#FFB677"></path><path d="M416.767 183.404H439.731L416.25 206.891L416.767 183.404Z" fill="#FFB677"></path><path d="M259.817 197.844L250.193 186.9C247.59 184.298 246.697 183.045 247.22 182.589C247.913 181.981 247.615 182.182 253.02 186.237C253.02 186.237 245.359 180.382 248.016 180.346C248.484 180.346 249.785 181.099 251.178 182.011C249.281 180.4 248.746 179.312 249.117 178.795C249.725 177.895 254.418 181.148 256.577 182.711C254.814 181.397 251.451 178.85 250.862 178.047C250.047 176.953 251.695 177.044 253.032 177.5C254.534 178.011 262.833 182.249 265.289 183.343C265.486 183.46 265.706 183.534 265.934 183.558C266.163 183.582 266.393 183.557 266.61 183.484C266.828 183.41 267.026 183.291 267.193 183.133C267.36 182.975 267.49 182.784 267.575 182.571C268.481 178.765 271.223 176.29 272.269 175.968C273.315 175.646 274.124 176.983 273.376 177.956C272.672 179.088 272.128 180.311 271.759 181.592C271.42 182.596 271.253 183.651 271.266 184.711C271.266 185.927 271.351 186.979 271.43 187.86L280.228 199.929L265.514 208.441L259.817 197.844Z" fill="#B78876"></path><path d="M256.376 187.94C256.279 188.073 254.552 186.9 252.558 185.313C250.564 183.726 249.007 182.328 249.123 182.2C249.238 182.072 250.947 183.252 252.941 184.827C254.935 186.401 256.461 187.8 256.376 187.94Z" fill="#AA6550"></path><path d="M258.236 186.018C258.139 186.158 256.248 185.003 254.011 183.446C251.773 181.89 250.035 180.51 250.132 180.376C250.229 180.242 252.12 181.385 254.357 182.942C256.595 184.498 258.334 185.878 258.236 186.018Z" fill="#AA6550"></path><path d="M259.599 183.975C259.501 184.115 257.69 183.057 255.555 181.61C253.421 180.163 251.768 178.88 251.859 178.734C251.95 178.588 253.762 179.652 255.902 181.099C258.042 182.547 259.69 183.835 259.599 183.975Z" fill="#AA6550"></path><path d="M272.251 189.496L307.32 233.965L299.289 252.661C299.289 252.661 289.67 250.533 286.752 246.484C283.833 242.435 259.817 197.844 259.817 197.844L272.251 189.496Z" fill="#B78876"></path><path d="M361.274 127.285C363.798 129.474 363.791 133.329 363.5 136.655C363.208 139.98 362.983 143.768 365.287 146.188C367.19 148.182 370.638 149.052 371.075 151.77C371.179 152.408 371.082 153.063 370.799 153.645C370.515 154.226 370.058 154.705 369.491 155.016C368.924 155.328 368.274 155.456 367.631 155.383C366.989 155.31 366.384 155.039 365.901 154.609C366.643 156.755 366.132 159.436 364.272 160.738C362.411 162.039 359.292 161.236 358.715 159.041C358.809 159.408 358.827 159.79 358.768 160.163C358.708 160.537 358.572 160.894 358.368 161.213C358.164 161.532 357.897 161.805 357.582 162.016C357.268 162.227 356.914 162.371 356.541 162.439C356.169 162.507 355.787 162.497 355.418 162.411C355.05 162.324 354.703 162.163 354.4 161.936C354.097 161.71 353.844 161.423 353.656 161.095C353.468 160.766 353.35 160.402 353.31 160.026" fill="#263238"></path><path d="M325.141 149.733C324.801 150.547 324.152 151.193 323.337 151.529C322.521 151.865 321.605 151.863 320.791 151.523C319.976 151.184 319.33 150.535 318.994 149.719C318.659 148.903 318.661 147.987 319 147.173C319.578 145.908 320.946 144.996 321.079 143.61C321.238 141.938 319.529 140.74 318.039 140.011C316.55 139.281 314.75 138.333 314.586 136.655C314.422 134.977 315.875 133.779 317.085 132.697C318.295 131.614 319.517 129.936 318.745 128.495C318.362 127.754 317.565 127.334 317.048 126.671C315.911 125.224 316.507 122.92 317.96 121.807C319.414 120.695 321.42 120.518 323.232 120.841C325.044 121.163 326.746 121.917 328.509 122.446C331.432 123.296 334.499 123.53 337.517 123.135C340.536 122.739 343.439 121.722 346.044 120.147" fill="#263238"></path><path d="M335.909 188.943C339.05 189.577 342.314 188.95 344.998 187.198C347.681 185.447 349.568 182.71 350.251 179.58L358.879 140.023C359.417 137.739 359.492 135.37 359.1 133.056C358.707 130.743 357.854 128.531 356.591 126.553C355.329 124.575 353.683 122.87 351.75 121.539C349.817 120.208 347.637 119.278 345.339 118.804L344.439 118.67C340.044 118.024 335.566 119.057 331.899 121.564C328.231 124.071 325.642 127.868 324.649 132.198C322.727 140.546 320.715 149.794 320.107 154.335C318.848 163.741 328.011 166.574 328.011 166.574L326.363 174.478C326.036 176.053 326.024 177.677 326.327 179.257C326.63 180.836 327.242 182.34 328.127 183.683C329.013 185.025 330.156 186.179 331.489 187.079C332.822 187.978 334.32 188.606 335.897 188.924L335.909 188.943Z" fill="#B78876"></path><path d="M326.339 138.424C326.285 138.773 326.37 139.129 326.574 139.417C326.778 139.706 327.086 139.903 327.433 139.968C327.601 140.007 327.775 140.011 327.945 139.981C328.115 139.951 328.277 139.888 328.422 139.794C328.567 139.701 328.692 139.579 328.79 139.437C328.887 139.295 328.955 139.134 328.99 138.965C329.046 138.617 328.964 138.26 328.761 137.971C328.557 137.682 328.249 137.485 327.901 137.421C327.733 137.383 327.558 137.378 327.388 137.408C327.218 137.438 327.055 137.501 326.909 137.595C326.764 137.688 326.639 137.81 326.541 137.952C326.443 138.094 326.374 138.255 326.339 138.424Z" fill="#263238"></path><path d="M325.992 137.086C326.132 137.287 327.257 136.679 328.704 136.898C330.151 137.117 331.093 137.986 331.276 137.834C331.367 137.767 331.239 137.427 330.832 137.026C330.271 136.502 329.561 136.164 328.801 136.059C328.051 135.946 327.285 136.073 326.612 136.424C326.12 136.703 325.925 136.995 325.992 137.086Z" fill="#263238"></path><path d="M340.438 140.734C340.383 141.084 340.467 141.441 340.671 141.729C340.876 142.018 341.185 142.215 341.533 142.279C341.701 142.317 341.876 142.321 342.046 142.291C342.216 142.26 342.379 142.196 342.524 142.102C342.669 142.008 342.793 141.886 342.891 141.743C342.988 141.6 343.055 141.439 343.089 141.269C343.144 140.921 343.06 140.565 342.855 140.277C342.651 139.99 342.342 139.794 341.995 139.731C341.826 139.692 341.652 139.687 341.482 139.716C341.312 139.746 341.149 139.809 341.004 139.903C340.859 139.997 340.734 140.118 340.637 140.261C340.539 140.404 340.472 140.565 340.438 140.734Z" fill="#263238"></path><path d="M340.134 139.433C340.274 139.628 341.399 139.026 342.84 139.245C344.281 139.464 345.235 140.333 345.418 140.181C345.503 140.114 345.381 139.774 344.968 139.373C344.407 138.849 343.697 138.511 342.937 138.406C342.187 138.293 341.421 138.42 340.748 138.771C340.28 139.032 340.061 139.342 340.134 139.433Z" fill="#263238"></path><path d="M333.331 149.368C333.331 149.283 332.473 148.997 331.051 148.602C330.686 148.511 330.351 148.383 330.327 148.122C330.352 147.739 330.492 147.372 330.728 147.07C331.211 146.231 331.711 145.349 332.23 144.425C334.328 140.649 335.878 137.53 335.75 137.445C335.623 137.36 333.774 140.351 331.677 144.133L330.218 146.796C329.923 147.21 329.781 147.712 329.816 148.219C329.854 148.353 329.921 148.478 330.012 148.583C330.104 148.688 330.217 148.771 330.345 148.827C330.54 148.91 330.744 148.97 330.953 149.003C331.728 149.223 332.526 149.346 333.331 149.368Z" fill="#263238"></path><path d="M340.584 133.724C340.669 134.138 342.141 134.162 343.8 134.612C345.46 135.062 346.761 135.725 347.041 135.408C347.163 135.256 346.98 134.849 346.488 134.393C345.82 133.819 345.029 133.405 344.177 133.183C343.324 132.96 342.433 132.936 341.569 133.11C340.888 133.268 340.554 133.56 340.584 133.724Z" fill="#263238"></path><path d="M327.135 132.989C327.342 133.353 328.351 133.159 329.567 133.317C330.783 133.475 331.744 133.864 331.999 133.554C332.127 133.402 331.999 133.049 331.622 132.672C331.083 132.214 330.418 131.926 329.715 131.846C329.011 131.766 328.299 131.897 327.67 132.223C327.233 132.496 327.044 132.812 327.135 132.989Z" fill="#263238"></path><path d="M350.197 128.234L350.239 128.283C351.564 129.681 352.296 131.537 352.282 133.463V133.651C352.282 136.387 351.79 139.123 351.796 141.829C351.802 144.535 352.325 147.416 354.033 149.544C354.732 150.426 356.094 151.156 356.891 150.365C357.171 150.029 357.35 149.62 357.407 149.186C358.854 142.796 361.457 137.324 362.436 130.563C362.571 129.658 362.489 128.733 362.196 127.866C361.904 126.999 361.408 126.214 360.751 125.577C359.487 124.361 357.912 123.048 356.228 123.565C354.544 124.081 352.081 126.726 350.677 127.821" fill="#263238"></path><path d="M355.091 143.805C355.261 143.756 361.822 142.838 360.672 149.228C359.523 155.618 353.376 153.15 353.376 152.961C353.376 152.773 355.091 143.805 355.091 143.805Z" fill="#B78876"></path><path d="M355.76 150.894C355.76 150.894 355.857 150.991 356.027 151.107C356.273 151.269 356.571 151.33 356.86 151.277C357.578 151.15 358.338 150.183 358.575 149.034C358.697 148.491 358.697 147.928 358.575 147.386C358.55 147.176 358.474 146.975 358.354 146.8C358.235 146.625 358.075 146.482 357.888 146.383C357.766 146.325 357.628 146.313 357.498 146.347C357.368 146.382 357.254 146.461 357.176 146.571C357.061 146.729 357.079 146.869 357.043 146.869C357.006 146.869 356.927 146.742 357.043 146.486C357.106 146.335 357.22 146.21 357.365 146.134C357.564 146.032 357.796 146.012 358.009 146.079C358.264 146.18 358.488 146.345 358.661 146.558C358.833 146.771 358.948 147.025 358.994 147.295C359.163 147.889 359.186 148.514 359.061 149.119C358.788 150.402 357.912 151.484 356.945 151.587C356.764 151.606 356.581 151.585 356.41 151.524C356.238 151.463 356.083 151.364 355.954 151.235C355.742 151.046 355.736 150.9 355.76 150.894Z" fill="#AA6550"></path><path d="M356.301 124.592C358.259 122.251 354.477 117.934 351.437 116.469C348.397 115.004 344.019 115.94 340.712 116.524C338.626 116.895 336.511 117.527 334.431 117.132C333.051 116.787 331.731 116.235 330.516 115.496C329.297 114.771 327.945 114.297 326.539 114.104C325.833 114.017 325.115 114.125 324.465 114.415C323.815 114.705 323.256 115.167 322.849 115.752C322.125 116.968 322.63 118.871 323.992 119.266C323.581 118.954 323.101 118.747 322.593 118.662C322.085 118.576 321.564 118.615 321.074 118.776C320.584 118.936 320.141 119.213 319.781 119.582C319.422 119.952 319.158 120.403 319.011 120.897C318.865 121.391 318.84 121.913 318.94 122.419C319.039 122.924 319.26 123.398 319.583 123.8C319.906 124.202 320.321 124.519 320.794 124.725C321.266 124.93 321.782 125.018 322.296 124.981C321.487 124.154 319.918 125.097 319.864 126.252C319.809 127.407 320.721 128.386 321.688 129C324.186 130.569 327.36 130.648 330.266 130.125C333.173 129.602 335.957 128.52 338.851 127.924C341.745 127.328 346.603 126.197 349.218 127.577C351.139 128.587 352.197 131.225 353.419 130.867C353.998 130.653 354.519 130.308 354.941 129.859C355.363 129.409 355.675 128.867 355.851 128.276C356.18 127.09 356.318 125.858 356.258 124.628" fill="#263238"></path><path d="M368.807 154.232C368.927 154.205 369.04 154.155 369.142 154.086C369.442 153.893 369.683 153.619 369.835 153.296C370.071 152.778 370.143 152.201 370.042 151.642C369.884 150.906 369.481 150.246 368.899 149.769C368.208 149.201 367.43 148.747 366.594 148.426C365.655 148.083 364.753 147.647 363.901 147.124C363.008 146.497 362.327 145.613 361.949 144.589C361.534 143.487 361.342 142.313 361.384 141.136C361.445 138.704 362.119 136.424 362.284 134.277C362.448 132.131 362.174 130.119 361.262 128.726C360.577 127.607 359.489 126.791 358.222 126.446C357.883 126.361 357.532 126.326 357.182 126.343C357.061 126.345 356.94 126.363 356.824 126.398C357.285 126.395 357.745 126.452 358.192 126.568C359.396 126.949 360.418 127.761 361.061 128.848C361.907 130.198 362.198 132.156 361.986 134.253C361.773 136.351 361.122 138.631 361.049 141.13C361.011 142.35 361.217 143.566 361.657 144.705C362.064 145.786 362.792 146.717 363.743 147.374C364.615 147.898 365.538 148.334 366.497 148.675C367.31 148.976 368.071 149.403 368.753 149.94C369.308 150.379 369.702 150.991 369.871 151.678C369.982 152.202 369.932 152.747 369.726 153.241C369.538 153.664 369.215 154.012 368.807 154.232Z" fill="#455A64"></path><path d="M323.785 119.114C323.7 119.05 323.605 118.999 323.505 118.962C323.392 118.906 323.274 118.859 323.153 118.822C322.984 118.765 322.812 118.722 322.636 118.694C322.059 118.604 321.469 118.645 320.911 118.816C320.353 118.986 319.841 119.282 319.414 119.679C318.981 120.207 318.657 120.815 318.461 121.468C318.264 122.121 318.2 122.807 318.27 123.486C318.352 124.328 318.602 125.146 319.005 125.891C319.408 126.635 319.956 127.291 320.617 127.821C322.137 129.045 323.987 129.788 325.931 129.955C328.042 130.136 330.169 130.007 332.242 129.572C335.53 128.927 338.679 127.709 341.545 125.972C342.773 125.212 344.058 124.548 345.387 123.984C346.547 123.513 347.784 123.26 349.035 123.236C350.856 123.197 352.658 123.615 354.276 124.452C354.861 124.78 355.427 125.139 355.973 125.528C355.486 125.05 354.935 124.641 354.337 124.312C352.715 123.409 350.886 122.941 349.029 122.957C347.747 122.966 346.477 123.212 345.284 123.68C343.94 124.243 342.641 124.908 341.399 125.668C338.553 127.369 335.435 128.564 332.181 129.201C330.138 129.633 328.043 129.767 325.962 129.596C324.077 129.44 322.281 128.729 320.8 127.553C320.163 127.049 319.632 126.424 319.24 125.713C318.847 125.002 318.6 124.22 318.514 123.413C318.439 122.766 318.494 122.11 318.673 121.484C318.852 120.858 319.154 120.274 319.559 119.765C319.965 119.378 320.451 119.086 320.983 118.91C321.515 118.735 322.08 118.68 322.636 118.749C323.029 118.835 323.414 118.957 323.785 119.114Z" fill="#455A64"></path><path d="M327.342 113.794C327.32 114.282 327.396 114.77 327.567 115.229C328.041 116.496 328.928 117.566 330.084 118.269C330.861 118.775 331.724 119.134 332.631 119.327C333.672 119.536 334.737 119.592 335.793 119.491C338.024 119.327 340.359 118.561 342.809 117.928C345.26 117.296 347.71 116.962 349.826 117.527C351.704 118.025 353.374 119.109 354.592 120.622C355.43 121.627 356.052 122.794 356.416 124.051C356.66 124.945 356.69 125.468 356.732 125.461C356.741 125.336 356.741 125.21 356.732 125.084C356.699 124.726 356.64 124.371 356.556 124.02C356.232 122.724 355.628 121.514 354.787 120.476C353.556 118.901 351.85 117.764 349.923 117.235C347.734 116.627 345.217 116.974 342.755 117.612C340.292 118.251 337.976 119.017 335.793 119.193C334.765 119.299 333.726 119.256 332.71 119.065C331.832 118.887 330.992 118.553 330.23 118.08C329.102 117.416 328.22 116.405 327.713 115.198C327.55 114.741 327.426 114.272 327.342 113.794Z" fill="#455A64"></path><path d="M330.449 154.141C330.529 154.769 330.694 155.382 330.941 155.965C331.07 156.253 331.259 156.51 331.495 156.72C331.731 156.929 332.008 157.086 332.309 157.181C332.635 157.248 332.973 157.233 333.292 157.136C333.61 157.04 333.9 156.865 334.133 156.628C334.599 156.136 334.899 155.511 334.991 154.84C335.088 154.232 334.991 153.472 334.383 153.278C334.137 153.217 333.88 153.217 333.635 153.278L330.266 153.886" fill="#AA6550"></path><path d="M331.039 156.694C331.574 156.901 332.143 157.008 332.717 157.011C333.311 156.976 333.87 156.72 334.285 156.293C334.53 156.032 334.717 155.722 334.834 155.384C334.95 155.045 334.993 154.686 334.96 154.329C334.942 154.147 334.901 153.967 334.839 153.794C334.76 153.63 334.784 153.642 334.644 153.624C334.504 153.606 334.285 153.624 334.103 153.654L333.537 153.697C332.808 153.752 332.151 153.794 331.598 153.825C330.992 153.909 330.376 153.897 329.774 153.788C330.343 153.581 330.939 153.458 331.543 153.423C332.09 153.344 332.759 153.265 333.471 153.18L334.03 153.119C334.231 153.09 334.434 153.072 334.638 153.065C334.799 153.069 334.954 153.124 335.082 153.223C335.195 153.323 335.281 153.451 335.331 153.594C335.414 153.813 335.467 154.042 335.489 154.275C335.529 154.712 335.472 155.153 335.322 155.567C335.171 155.98 334.932 156.354 334.62 156.664C334.101 157.158 333.408 157.426 332.692 157.412C332.225 157.414 331.766 157.285 331.367 157.041C331.16 156.871 331.02 156.719 331.039 156.694Z" fill="#263238"></path><path d="M328.023 166.574C328.023 166.574 334.151 168.897 340.116 167.182C340.116 167.182 335.617 170.958 327.409 169.511L328.023 166.574Z" fill="#AA6550"></path><path d="M337.374 253.743C337.078 253.55 336.798 253.335 336.535 253.099C336.273 252.886 335.927 252.625 335.556 252.345C335.185 252.065 334.735 251.737 334.218 251.403C333.702 251.068 333.167 250.703 332.54 250.357C331.914 250.01 331.251 249.646 330.54 249.281C327.421 247.746 324.067 246.743 320.617 246.314C319.821 246.229 319.067 246.131 318.356 246.113C317.644 246.095 316.982 246.064 316.38 246.071C315.778 246.077 315.224 246.107 314.744 246.125C314.264 246.143 313.85 246.18 313.528 246.216C313.18 246.27 312.828 246.294 312.476 246.289C312.818 246.202 313.166 246.137 313.516 246.095C313.919 246.026 314.324 245.977 314.732 245.949C315.212 245.912 315.76 245.846 316.374 245.846C316.988 245.846 317.65 245.809 318.368 245.846C319.085 245.882 319.851 245.943 320.654 246.016C322.394 246.232 324.114 246.586 325.798 247.074C327.469 247.587 329.096 248.236 330.662 249.013C331.373 249.39 332.06 249.737 332.662 250.126C333.264 250.515 333.835 250.862 334.334 251.214C334.832 251.567 335.27 251.907 335.653 252.199C336.036 252.491 336.352 252.771 336.602 253.002C336.879 253.227 337.138 253.475 337.374 253.743Z" fill="#FAFAFA"></path><path d="M301.642 222.517L306.627 200.914C308.537 192.791 310.798 184.985 314.598 184.061V186.572L312.969 248.29C312.969 248.29 302.809 259.842 289.865 253.433C285.816 251.421 278.428 237.285 278.428 237.285C278.428 237.285 261.24 206.617 261.958 205.225C262.675 203.833 273.175 190.299 274.245 189.624L301.642 222.517Z" fill="#0278AE"></path><path d="M352.945 177.944C362.855 179.841 374.012 185.623 379.15 200.44C381.022 205.851 394.666 245.742 394.666 245.742L371.398 245.256L367.64 237.042L369.464 250.387L371.039 269.418L312.282 270.409L312.695 241.735L313.261 184.705C313.261 184.705 313.917 183.842 324.053 178.254C330.339 174.782 352.945 177.944 352.945 177.944Z" fill="#0278AE"></path><g opacity="0.2"><path opacity="0.2" d="M358.806 216.09C359.773 228.128 360.879 231.849 361.846 243.888C361.869 245.028 362.074 246.157 362.454 247.232C362.657 247.766 362.983 248.246 363.405 248.631C363.828 249.017 364.335 249.297 364.886 249.451C366.6 249.797 368.826 251.038 369.306 249.36L367.683 237.765C367.334 236.078 366.795 234.436 366.078 232.871C362.472 224.863 361.141 224.395 358.781 216.09" fill="black"></path></g><path d="M324.046 184.425L324.241 183.173L326.12 171.159C326.174 170.81 326.358 170.494 326.636 170.275C326.913 170.056 327.263 169.95 327.615 169.979L350.75 171.913C351.449 171.97 352.096 172.301 352.552 172.834C353.007 173.367 353.234 174.059 353.182 174.758L352.665 181.738L345.442 191.162L335.039 192.785" fill="#0278AE"></path><path d="M312.428 207.012C312.519 207.012 312.586 216.424 312.586 228.031C312.586 239.638 312.519 249.05 312.428 249.05C312.336 249.05 312.27 239.638 312.27 228.031C312.27 216.424 312.342 207.012 312.428 207.012Z" fill="#263238"></path><path d="M371.896 247.189C371.896 247.189 371.896 247.147 371.823 247.055C371.75 246.964 371.708 246.812 371.629 246.642L370.923 245.043L368.388 239.139L360.125 219.616C358.52 215.798 356.994 212.162 355.608 208.849C354.907 207.297 354.405 205.662 354.112 203.985C353.856 202.519 353.721 201.034 353.711 199.546C353.634 197.39 353.947 195.238 354.635 193.193L354.824 192.688L355.036 192.262C355.136 192.036 355.259 191.82 355.401 191.618L355.657 191.241C355.686 191.198 355.719 191.157 355.754 191.119C355.354 191.792 355.018 192.5 354.751 193.235C354.114 195.276 353.839 197.411 353.936 199.546C353.946 202.717 354.606 205.852 355.875 208.757L360.417 219.513L368.595 239.072L371.027 245.012L371.677 246.636L371.842 247.061C371.864 247.102 371.882 247.145 371.896 247.189Z" fill="#263238"></path><path d="M352.726 178.674C352.637 178.712 352.542 178.736 352.446 178.747L351.637 178.893C350.932 179.008 349.911 179.16 348.652 179.33C346.123 179.671 342.621 180.072 338.736 180.358C336.917 180.524 335.09 180.589 333.264 180.552C331.757 180.516 330.264 180.26 328.831 179.792C327.864 179.479 326.952 179.017 326.126 178.424C325.9 178.266 325.685 178.093 325.481 177.908C325.348 177.774 325.281 177.707 325.287 177.695C325.293 177.683 325.603 177.938 326.193 178.303C327.033 178.843 327.943 179.264 328.898 179.555C330.318 179.987 331.792 180.217 333.276 180.236C335.102 180.256 336.929 180.183 338.748 180.017C342.621 179.732 346.123 179.373 348.652 179.087L351.65 178.747C352.006 178.697 352.366 178.673 352.726 178.674Z" fill="#263238"></path><path d="M394.392 250.047C394.85 252.399 394.784 254.823 394.2 257.147C393.617 259.471 392.529 261.638 391.014 263.495C389.499 265.351 387.594 266.852 385.434 267.89C383.275 268.928 380.913 269.479 378.517 269.503L332.461 268.992L333.677 254.078L373.112 248.156" fill="#B78876"></path><path d="M336.498 254.728C336.286 254.795 333.629 253.603 331.245 252.503C328.717 251.332 325.942 250.793 323.159 250.934L312.178 251.494C312.178 251.494 312.853 253.318 314.002 253.926C315.151 254.534 322.04 254.728 322.04 254.728L321.687 255.087C320.247 256.571 318.283 257.431 316.215 257.483H315.164C314.385 257.421 313.616 257.27 312.871 257.033L310.166 255.938C309.345 255.573 308.482 255.628 308.123 256.455C307.764 257.282 308.038 258.23 310.275 259.355C311.522 259.963 316.155 261.587 316.155 261.587C316.186 262.246 316.278 262.901 316.428 263.544C316.629 264.219 318.447 264.894 318.447 264.894C318.919 265.895 319.459 266.861 320.064 267.788C320.277 268.031 321.925 268.548 323.682 269.041C326.514 269.833 329.513 269.81 332.333 268.974L336.517 267.721V254.953" fill="#B78876"></path><path d="M321.481 263.064C319.546 263.015 317.65 262.515 315.942 261.605C315.942 261.532 317.158 261.994 318.696 262.389C320.234 262.784 321.487 262.973 321.481 263.064Z" fill="#AA6550"></path><path d="M321.092 265.624C320.576 265.731 320.041 265.691 319.547 265.508C319.031 265.413 318.552 265.177 318.161 264.827C318.658 264.926 319.146 265.067 319.62 265.247C320.12 265.334 320.612 265.46 321.092 265.624Z" fill="#AA6550"></path><path d="M323.098 253.737C322.858 254.075 322.573 254.38 322.253 254.643C321.525 255.338 320.721 255.95 319.857 256.467C318.987 256.975 318.04 257.341 317.054 257.549C316.658 257.655 316.248 257.701 315.838 257.683C317.197 257.371 318.509 256.882 319.742 256.23C320.586 255.721 321.39 255.146 322.143 254.509C322.438 254.224 322.757 253.966 323.098 253.737Z" fill="#AA6550"></path><path d="M337.617 252.728L336.498 269.594H379.879C382.824 269.596 385.715 268.795 388.239 267.277C391.096 265.561 393.355 263.005 394.708 259.959C396.062 256.913 396.444 253.524 395.803 250.253C395.178 247.05 394.242 243.916 393.006 240.896L371.191 244.49L371.89 247.201L337.617 252.728Z" fill="#0278AE"></path><path d="M381.94 245.785C381.797 245.826 381.65 245.859 381.502 245.882L380.232 246.113L375.544 246.891L360.125 249.323L344.688 251.688L340.006 252.369L338.73 252.54C338.581 252.56 338.43 252.572 338.28 252.576C338.424 252.526 338.572 252.491 338.724 252.473L339.988 252.248L344.658 251.463L360.077 249.031L375.544 246.648L380.226 245.967L381.502 245.797C381.648 245.777 381.794 245.773 381.94 245.785Z" fill="#263238"></path><path d="M214.065 84.5977H105.422C99.0716 84.5977 92.9816 87.1202 88.4914 91.6104C84.0012 96.1006 81.4787 102.191 81.4787 108.541V147.258H58.0403L81.4787 170.697V197.017C81.4787 203.367 84.0012 209.457 88.4914 213.947C92.9816 218.437 99.0716 220.96 105.422 220.96H214.065C220.415 220.96 226.505 218.437 230.996 213.947C235.486 209.457 238.008 203.367 238.008 197.017V108.541C238.008 102.191 235.486 96.1006 230.996 91.6104C226.505 87.1202 220.415 84.5977 214.065 84.5977Z" fill="#FFB0CD"></path><path d="M169.681 88.6895C168.994 90.4709 170.174 92.4104 171.505 93.7845C172.837 95.1586 174.43 96.4597 174.849 98.3202C175.196 99.8827 174.618 101.506 174.758 103.099C174.898 104.692 175.78 106.194 176.278 107.75C177.184 110.571 176.819 113.654 176.011 116.505C175.427 118.875 174.313 121.081 172.752 122.956C171.965 123.885 170.991 124.637 169.892 125.161C168.794 125.685 167.597 125.97 166.38 125.996C166.036 126.018 165.691 125.969 165.367 125.852C165.043 125.734 164.746 125.552 164.495 125.315C164.154 124.823 163.966 124.242 163.954 123.643C162.562 111.401 162.562 99.0407 163.954 86.7986" fill="#263238"></path><path d="M168.398 128.143C173.688 127.912 178.576 132.976 178.157 138.254C183.513 139.561 187.277 145.452 186.249 150.864C185.903 152.651 185.106 154.354 184.997 156.165C184.875 158.148 185.605 160.075 185.964 162.02C186.652 165.566 186.284 169.237 184.906 172.575C184.073 174.588 182.516 176.667 180.34 176.728C179.602 176.697 178.884 176.485 178.247 176.111C177.611 175.736 177.077 175.211 176.692 174.582C175.934 173.307 175.434 171.896 175.22 170.429C174.278 165.675 174.004 160.792 172.691 156.129C171.378 151.466 168.824 146.869 164.611 144.504C162.282 143.191 159.485 142.571 157.631 140.643C156.698 139.591 156.076 138.301 155.834 136.916C155.593 135.531 155.741 134.106 156.263 132.8C156.809 131.506 157.622 130.342 158.649 129.383C159.676 128.425 160.893 127.693 162.221 127.237" fill="#263238"></path><path d="M131.785 93.0489C131.724 90.7871 133.809 89.0422 135.913 88.1849C138.017 87.3276 140.357 87.0419 142.23 85.7529C143.896 84.6342 145.009 82.8892 146.413 81.4969C148.147 79.7382 150.319 78.4727 152.704 77.8304C155.089 77.1881 157.602 77.1921 159.985 77.8419C162.367 78.4918 164.535 79.7642 166.263 81.5285C167.992 83.2927 169.22 85.4852 169.821 87.8809C170.63 91.0972 170.077 94.9033 167.541 97.0435C164.598 99.5241 160.245 98.9708 156.457 98.1987C152.67 97.4265 148.414 96.6665 145.264 98.8857C143.367 100.217 142.273 102.394 141.111 104.406C139.95 106.419 138.497 108.468 136.302 109.228C134.107 109.988 131.122 108.674 131.037 106.358" fill="#263238"></path><path d="M140.698 93.511C139.756 93.6128 138.887 94.064 138.263 94.7755C137.638 95.4869 137.303 96.4069 137.323 97.3536L139.579 148.426C139.676 154.457 148.492 157.843 154.949 157.691C161.473 157.539 161.68 154.341 161.765 148.602C161.899 139.02 161.887 135.42 161.893 135.475C161.899 135.53 170.131 134.089 171.815 123.315C172.648 117.971 172.362 109.203 171.894 102.035C171.475 95.5843 167.182 87.6803 160.756 88.3734L140.698 93.511Z" fill="#FFBE9D"></path><path d="M170.04 108.808C170.043 109.167 169.907 109.513 169.66 109.773C169.412 110.033 169.073 110.186 168.715 110.201C168.541 110.216 168.366 110.196 168.2 110.143C168.035 110.089 167.881 110.004 167.749 109.89C167.616 109.777 167.508 109.639 167.429 109.483C167.351 109.328 167.304 109.158 167.292 108.985C167.287 108.625 167.423 108.278 167.671 108.018C167.918 107.758 168.258 107.605 168.617 107.592C168.791 107.577 168.966 107.597 169.131 107.65C169.297 107.704 169.451 107.789 169.583 107.902C169.716 108.016 169.824 108.154 169.903 108.309C169.981 108.465 170.028 108.635 170.04 108.808Z" fill="#263238"></path><path d="M170.003 106.619C169.833 106.802 168.788 106.011 167.304 106.011C165.82 106.011 164.732 106.765 164.568 106.583C164.489 106.504 164.665 106.176 165.14 105.829C165.78 105.383 166.542 105.148 167.322 105.154C168.094 105.15 168.848 105.39 169.475 105.841C169.931 106.2 170.089 106.54 170.003 106.619Z" fill="#263238"></path><path d="M155.782 108.808C155.786 109.167 155.649 109.513 155.402 109.773C155.155 110.033 154.816 110.186 154.457 110.201C154.284 110.216 154.109 110.196 153.943 110.143C153.777 110.089 153.623 110.004 153.491 109.89C153.359 109.777 153.25 109.639 153.172 109.483C153.093 109.328 153.047 109.158 153.034 108.985C153.029 108.625 153.165 108.278 153.413 108.018C153.661 107.758 154.001 107.605 154.36 107.592C154.533 107.577 154.708 107.597 154.874 107.65C155.04 107.704 155.193 107.789 155.326 107.902C155.458 108.016 155.567 108.154 155.645 108.309C155.724 108.465 155.77 108.635 155.782 108.808Z" fill="#263238"></path><path d="M155.448 106.93C155.278 107.112 154.232 106.322 152.748 106.322C151.265 106.322 150.177 107.076 150.019 106.893C149.94 106.814 150.11 106.486 150.584 106.139C151.224 105.692 151.986 105.455 152.767 105.458C153.539 105.456 154.293 105.698 154.919 106.151C155.345 106.522 155.503 106.851 155.448 106.93Z" fill="#263238"></path><path d="M160.829 117.922C160.829 117.837 161.741 117.679 163.261 117.484C163.638 117.442 163.997 117.363 164.063 117.107C164.091 116.715 164.003 116.324 163.808 115.983L162.677 113.101C161.115 108.997 159.978 105.622 160.148 105.561C160.318 105.501 161.717 108.778 163.279 112.857L164.361 115.758C164.597 116.214 164.668 116.738 164.562 117.241C164.509 117.374 164.426 117.493 164.321 117.589C164.216 117.686 164.091 117.758 163.954 117.8C163.756 117.855 163.552 117.884 163.346 117.886C161.765 117.995 160.835 118.007 160.829 117.922Z" fill="#263238"></path><path d="M161.893 135.481C156.829 135.569 151.841 134.249 147.483 131.669C147.483 131.669 150.991 139.05 161.753 138.017L161.893 135.481Z" fill="#EB996E"></path><path d="M160.209 121.497C159.922 121.137 159.548 120.858 159.122 120.685C158.696 120.513 158.232 120.453 157.777 120.512C157.449 120.542 157.131 120.637 156.842 120.793C156.552 120.948 156.297 121.161 156.092 121.418C155.895 121.666 155.778 121.969 155.759 122.285C155.739 122.602 155.817 122.917 155.983 123.187C156.221 123.454 156.534 123.644 156.881 123.73C157.228 123.817 157.593 123.797 157.929 123.674C158.629 123.425 159.271 123.038 159.819 122.537C159.988 122.419 160.132 122.271 160.245 122.099C160.3 122.017 160.33 121.921 160.33 121.822C160.33 121.724 160.3 121.627 160.245 121.546" fill="#EB996E"></path><path d="M156.463 118.968C156.707 118.968 156.713 120.567 158.093 121.704C159.473 122.841 161.188 122.665 161.2 122.92C161.2 123.023 160.817 123.236 160.093 123.254C159.15 123.272 158.23 122.955 157.497 122.361C156.795 121.787 156.344 120.963 156.238 120.062C156.172 119.351 156.354 118.968 156.463 118.968Z" fill="#263238"></path><path d="M156.056 104.327C155.91 104.735 154.426 104.546 152.688 104.759C150.949 104.972 149.538 105.452 149.307 105.087C149.204 104.917 149.447 104.534 150.012 104.145C150.767 103.66 151.623 103.353 152.514 103.247C153.405 103.142 154.309 103.241 155.156 103.537C155.819 103.823 156.141 104.139 156.056 104.327Z" fill="#263238"></path><path d="M169.432 102.327C169.171 102.661 168.149 102.327 166.915 102.327C165.681 102.327 164.647 102.558 164.41 102.205C164.3 102.035 164.465 101.701 164.921 101.378C165.531 100.997 166.24 100.804 166.96 100.824C167.679 100.845 168.376 101.078 168.964 101.494C169.432 101.816 169.56 102.163 169.432 102.327Z" fill="#263238"></path><path d="M133.189 128.885C134.672 129.184 136.204 129.127 137.66 128.718C139.116 128.309 140.454 127.559 141.564 126.531C142.673 125.503 143.522 124.226 144.041 122.805C144.559 121.385 144.733 119.861 144.547 118.36C144.212 115.715 142.789 113.034 143.708 110.529C144.924 107.228 149.55 106.212 150.779 102.911C151.49 100.996 150.852 98.752 151.66 96.8733C152.42 95.1101 154.281 94.0948 156.093 93.4381C157.904 92.7815 159.838 92.3316 161.358 91.152C162.878 89.9725 163.82 87.7472 162.841 86.0874C154.811 87.0508 146.925 88.9674 139.348 91.7965C137.591 92.4532 135.749 93.2436 134.709 94.8C133.615 96.4538 133.669 98.5818 133.761 100.564C134.211 110.219 132.739 119.26 133.189 128.915" fill="#263238"></path><path d="M130.63 125.857C130.568 125.847 130.509 125.829 130.453 125.802C130.28 125.741 130.114 125.66 129.961 125.559C129.368 125.175 128.903 124.625 128.623 123.978C128.163 122.954 128.04 121.811 128.27 120.713C128.637 119.286 129.302 117.954 130.222 116.803C131.165 115.49 132.362 114.159 133.177 112.462C133.611 111.6 133.854 110.655 133.888 109.69C133.853 108.666 133.648 107.655 133.28 106.698C132.871 105.664 132.654 104.564 132.642 103.452C132.701 102.262 133.05 101.104 133.66 100.08C134.269 99.0566 135.12 98.1976 136.138 97.5785C137.23 96.9828 138.441 96.638 139.683 96.5692C140.884 96.5103 142.075 96.3061 143.227 95.9612C144.31 95.5514 145.199 94.751 145.72 93.7177C146.217 92.7012 146.612 91.6381 146.9 90.5439C147.207 89.4942 147.614 88.4762 148.116 87.5039C149.03 85.6606 150.422 84.0963 152.147 82.9743C153.67 82.0169 155.451 81.5539 157.248 81.6489C158.736 81.7258 160.153 82.3069 161.267 83.2966C162.097 84.0429 162.716 84.9951 163.06 86.0569C163.284 86.7216 163.369 87.4252 163.31 88.1241C163.297 88.3672 163.256 88.6079 163.188 88.8415C163.188 88.8415 163.23 88.5923 163.249 88.118C163.278 87.4299 163.175 86.7426 162.945 86.0934C162.526 84.8985 161.758 83.8572 160.74 83.1048C159.722 82.3523 158.501 81.9234 157.236 81.8738C155.489 81.7969 153.761 82.2597 152.286 83.1993C150.608 84.3022 149.256 85.8349 148.371 87.6377C147.88 88.6102 147.485 89.6284 147.191 90.6777C146.895 91.7916 146.487 92.8731 145.975 93.9062C145.694 94.4408 145.326 94.9255 144.887 95.3411C144.433 95.7611 143.9 96.0857 143.318 96.2956C142.134 96.6607 140.908 96.8772 139.67 96.9401C138.474 97.0031 137.306 97.3335 136.254 97.9068C135.28 98.4972 134.466 99.3167 133.882 100.294C133.299 101.271 132.962 102.376 132.903 103.513C132.914 104.59 133.12 105.658 133.511 106.662C133.898 107.648 134.114 108.692 134.15 109.751C134.109 110.754 133.852 111.737 133.396 112.633C132.545 114.371 131.335 115.673 130.386 116.992C129.471 118.11 128.804 119.409 128.429 120.804C128.186 121.866 128.286 122.977 128.714 123.978C128.977 124.616 129.416 125.166 129.979 125.565C130.386 125.771 130.636 125.832 130.63 125.857Z" fill="#455A64"></path><path d="M161.875 78.9736C162.022 78.9845 162.165 79.0281 162.294 79.1013C162.659 79.2561 163.001 79.4607 163.309 79.7093C164.369 80.5312 165.07 81.7298 165.269 83.0559C165.467 84.3819 165.146 85.7333 164.373 86.829C164.149 87.1555 163.883 87.4518 163.583 87.7106C163.364 87.893 163.23 87.972 163.218 87.9538C163.561 87.5653 163.884 87.1594 164.185 86.7378C164.87 85.6694 165.145 84.3888 164.958 83.1334C164.771 81.878 164.136 80.7327 163.17 79.91C162.756 79.5732 162.324 79.2605 161.875 78.9736Z" fill="#455A64"></path><path d="M185.696 152.767C185.824 152.393 185.928 152.011 186.006 151.624C186.149 150.562 185.964 149.483 185.477 148.529C184.727 147.129 183.534 146.017 182.085 145.367C181.236 144.966 180.35 144.65 179.44 144.425C178.491 144.182 177.488 143.981 176.485 143.653C175.475 143.378 174.544 142.869 173.767 142.169C173.071 141.472 172.62 140.567 172.484 139.591C172.32 138.685 172.265 137.828 172.065 137.062C171.885 136.353 171.551 135.693 171.086 135.129C170.406 134.302 169.503 133.688 168.484 133.359C167.76 133.14 167.328 133.14 167.328 133.104C167.431 133.094 167.535 133.094 167.638 133.104C167.936 133.124 168.231 133.171 168.52 133.244C169.586 133.538 170.54 134.146 171.256 134.989C171.757 135.571 172.12 136.259 172.32 137.001C172.539 137.798 172.606 138.667 172.776 139.543C172.901 140.465 173.329 141.321 173.992 141.975C174.738 142.637 175.626 143.117 176.588 143.379C177.567 143.695 178.57 143.902 179.525 144.151C180.448 144.377 181.344 144.699 182.2 145.112C183.698 145.798 184.919 146.97 185.666 148.438C186.152 149.435 186.31 150.561 186.116 151.654C186.058 151.945 185.966 152.229 185.842 152.499C185.803 152.593 185.754 152.683 185.696 152.767Z" fill="#455A64"></path><path d="M138.929 133.724C133.457 132.265 128.775 126.933 126.866 121.625C124.957 116.317 124.957 110.523 125.449 104.905C125.802 100.837 126.519 96.5329 129.219 93.4685C133.292 88.8477 137.731 86.4887 143.859 86.6833" fill="#263238"></path><path d="M170.727 145.58L165.65 144.303C166.204 143.923 166.607 143.361 166.791 142.716C166.976 142.07 166.929 141.38 166.66 140.765C166.338 139.976 165.806 139.291 165.122 138.784C164.438 138.277 163.628 137.967 162.78 137.889L139.64 135.275C139.235 135.221 138.824 135.304 138.473 135.511C138.121 135.718 137.849 136.038 137.7 136.418C136.675 139.028 136.641 141.176 137.597 142.862H137.488L133.025 143.75L125.461 210.472L175.001 208.156L170.727 145.58Z" fill="#F5F5F5"></path><path d="M163.443 144.559C163.139 144.647 162.828 144.709 162.513 144.741C161.905 144.838 161.035 144.942 159.953 145.051C154.289 145.577 148.579 145.293 142.996 144.206C141.926 143.993 141.069 143.799 140.479 143.641C140.169 143.581 139.866 143.491 139.573 143.373C139.887 143.396 140.198 143.447 140.503 143.525C141.111 143.641 141.969 143.805 143.039 143.987C148.616 144.947 154.29 145.229 159.935 144.826C161.017 144.753 161.893 144.674 162.501 144.613C162.813 144.57 163.128 144.552 163.443 144.559Z" fill="#263238"></path><path d="M197.254 186.158L220.297 145.683L223.076 138.661C223.076 138.661 230.262 123.218 230.761 121.637C231.338 119.813 232.354 119.667 233.01 119.922C234.032 120.33 234.36 121.85 233.91 123.425C233.752 123.966 230.961 132.453 230.961 132.453C231.712 131.806 232.508 131.215 233.345 130.684C235.114 129.468 238.355 129.529 241.358 130.599C244.362 131.669 245.104 132.234 244.745 133.414C244.666 133.635 244.538 133.836 244.37 134.001C244.203 134.167 244.001 134.292 243.778 134.369C243.071 134.664 242.278 134.681 241.559 134.417C236.731 132.776 234.591 134.952 234.591 134.952L234.233 135.87C234.233 135.87 237.881 134.709 239.923 136.351C240.228 136.592 240.484 136.889 240.677 137.226C241.338 137.442 241.932 137.827 242.398 138.343C242.865 138.858 243.189 139.487 243.338 140.166C243.488 140.845 243.457 141.552 243.249 142.216C243.042 142.879 242.664 143.477 242.155 143.951C241.933 144.203 241.64 144.383 241.315 144.465C240.989 144.548 240.646 144.529 240.331 144.413C240.036 144.212 239.799 143.937 239.644 143.616C239.545 143.455 239.433 143.303 239.309 143.16L237.935 145.592C237.935 145.592 234.549 150.882 233.333 153.356L217.464 195.631C216.942 197.022 216.148 198.296 215.129 199.377C214.109 200.459 212.885 201.326 211.526 201.929C210.168 202.532 208.703 202.858 207.217 202.888C205.731 202.919 204.254 202.653 202.872 202.106C201.381 201.517 200.033 200.615 198.921 199.46C197.809 198.306 196.957 196.926 196.425 195.414C195.892 193.901 195.69 192.292 195.833 190.696C195.977 189.099 196.461 187.551 197.254 186.158Z" fill="#FFBE9D"></path><path d="M221.884 145.544C222.699 146.079 223.824 145.714 224.553 145.081C225.283 144.449 225.769 143.58 226.474 142.893C228.523 140.844 231.946 140.649 233.91 138.503C234.184 138.205 234.427 137.749 234.19 137.421C233.953 137.092 233.515 137.153 233.15 137.226L223.72 139.093" fill="#FFBE9D"></path><path d="M223.72 139.093C224.038 138.949 224.373 138.847 224.717 138.789C225.368 138.625 226.316 138.412 227.484 138.181L231.594 137.311L232.81 137.062C233.278 136.891 233.795 136.908 234.251 137.111C234.381 137.207 234.479 137.34 234.534 137.493C234.588 137.646 234.595 137.811 234.555 137.968C234.492 138.226 234.367 138.464 234.19 138.661C233.872 139.013 233.515 139.327 233.126 139.597C231.557 140.686 229.837 141.13 228.463 141.853C227.807 142.163 227.204 142.573 226.675 143.069C226.189 143.537 225.806 144.072 225.404 144.528C225.116 144.931 224.742 145.265 224.311 145.507C223.879 145.75 223.399 145.895 222.905 145.933C222.182 145.933 221.884 145.574 221.908 145.568C222.225 145.677 222.559 145.728 222.893 145.72C223.342 145.646 223.77 145.479 224.151 145.231C224.532 144.983 224.857 144.659 225.106 144.279C225.496 143.748 225.912 143.236 226.353 142.747C226.904 142.201 227.538 141.745 228.232 141.397C229.648 140.631 231.363 140.181 232.81 139.148C233.158 138.9 233.48 138.617 233.77 138.302C234.038 138.005 234.129 137.646 233.941 137.542C233.752 137.439 233.333 137.488 232.913 137.573L231.697 137.798L227.563 138.558C226.383 138.765 225.429 138.923 224.766 139.02C224.423 139.099 224.07 139.123 223.72 139.093Z" fill="#EB996E"></path><path d="M234.105 135.883C234.347 135.318 234.717 134.818 235.187 134.423C235.713 134.029 236.353 133.815 237.011 133.815C237.838 133.82 238.659 133.956 239.443 134.217C240.245 134.487 241.072 134.674 241.912 134.776C242.617 134.857 243.33 134.748 243.979 134.46C244.202 134.357 244.398 134.203 244.551 134.011C244.704 133.819 244.81 133.594 244.861 133.353C244.907 133.184 244.907 133.006 244.861 132.836C244.824 132.836 244.824 133.019 244.733 133.323C244.666 133.528 244.555 133.716 244.408 133.873C244.261 134.031 244.081 134.154 243.882 134.235C243.263 134.465 242.597 134.54 241.942 134.454C241.127 134.325 240.325 134.122 239.547 133.846C238.735 133.578 237.884 133.447 237.029 133.457C236.312 133.473 235.62 133.73 235.066 134.186C234.698 134.492 234.415 134.888 234.245 135.335C234.093 135.694 234.081 135.876 234.105 135.883Z" fill="#EB996E"></path><path d="M234.074 122.817C233.836 123.361 233.645 123.924 233.503 124.501C233.144 125.668 232.719 127.054 232.244 128.587C231.77 130.119 231.302 131.493 230.925 132.654C230.705 133.205 230.536 133.775 230.42 134.356C230.723 133.844 230.971 133.302 231.162 132.739C231.563 131.718 232.074 130.307 232.585 128.696C233.096 127.085 233.491 125.656 233.746 124.568C233.917 123.997 234.027 123.41 234.074 122.817Z" fill="#EB996E"></path><path d="M235.406 138.424C235.592 138.451 235.78 138.451 235.965 138.424C236.199 138.384 236.438 138.395 236.667 138.456C236.895 138.517 237.108 138.626 237.291 138.777C237.396 138.888 237.472 139.025 237.509 139.174C237.546 139.323 237.544 139.48 237.504 139.628C237.405 140.001 237.26 140.361 237.072 140.698C236.828 141.121 236.748 141.618 236.847 142.096C236.93 142.349 237.071 142.58 237.259 142.769C237.447 142.958 237.676 143.1 237.929 143.185C238.179 143.264 238.442 143.291 238.702 143.265C238.962 143.239 239.214 143.16 239.443 143.033C239.869 142.815 240.218 142.474 240.446 142.054C240.775 141.361 241.001 140.623 241.115 139.865C241.204 139.356 241.204 138.836 241.115 138.327C241.096 138.135 241.022 137.954 240.902 137.804C240.872 137.804 240.951 137.998 240.981 138.345C241.007 138.841 240.964 139.338 240.854 139.822C240.709 140.541 240.472 141.238 240.148 141.896C239.95 142.266 239.636 142.56 239.253 142.733C238.87 142.905 238.441 142.947 238.033 142.85C237.832 142.785 237.65 142.675 237.5 142.527C237.35 142.379 237.237 142.198 237.169 141.999C237.09 141.602 237.157 141.189 237.358 140.838C237.547 140.47 237.69 140.079 237.783 139.676C237.824 139.483 237.815 139.283 237.756 139.095C237.698 138.906 237.592 138.736 237.449 138.6C237.238 138.433 236.99 138.317 236.726 138.262C236.462 138.207 236.189 138.215 235.929 138.284C235.748 138.302 235.572 138.349 235.406 138.424Z" fill="#EB996E"></path><path d="M239.382 142.68C239.382 142.68 239.267 142.838 239.279 143.179C239.296 143.417 239.369 143.649 239.491 143.855C239.614 144.061 239.783 144.235 239.984 144.364C240.296 144.543 240.649 144.638 241.009 144.638C241.368 144.638 241.722 144.543 242.033 144.364C242.783 143.932 243.337 143.226 243.578 142.394C243.842 141.58 243.842 140.703 243.578 139.889C243.362 139.231 242.973 138.643 242.453 138.187C242.11 137.88 241.711 137.64 241.279 137.482C241.126 137.408 240.957 137.37 240.787 137.372C241.329 137.634 241.832 137.97 242.282 138.369C242.793 138.867 243.153 139.498 243.323 140.19C243.493 140.882 243.465 141.608 243.243 142.285C243.026 143.032 242.538 143.671 241.875 144.078C241.61 144.234 241.31 144.32 241.003 144.328C240.696 144.337 240.391 144.268 240.118 144.127C239.937 144.021 239.78 143.878 239.659 143.707C239.537 143.537 239.453 143.342 239.413 143.136C239.352 142.868 239.413 142.68 239.382 142.68Z" fill="#EB996E"></path><path d="M231.709 146.498C231.469 146.336 231.185 146.249 230.895 146.249C230.153 146.177 229.408 146.354 228.779 146.753L229.04 146.93C229.122 146.528 229.179 146.122 229.211 145.714C229.423 143.367 228.675 141.555 228.603 141.604C228.836 142.95 228.924 144.318 228.864 145.683C228.834 146.073 228.784 146.461 228.712 146.845L228.639 147.24L228.973 147.015C229.543 146.643 230.208 146.445 230.889 146.443C231.393 146.456 231.697 146.541 231.709 146.498Z" fill="#EB996E"></path><path d="M236.507 132.076C236.409 132.076 236.543 132.806 237.187 133.365C237.832 133.925 238.555 133.973 238.555 133.87C238.555 133.767 237.978 133.59 237.425 133.098C236.871 132.605 236.604 132.04 236.507 132.076Z" fill="#EB996E"></path><path d="M164.568 219.744L188.675 219.981L184.632 202.489L185.988 205.79C187.237 208.838 189.366 211.446 192.102 213.281C194.837 215.116 198.057 216.096 201.352 216.096C208.976 216.096 214.248 210.423 217.47 203.516C225.009 187.368 232.275 161.364 232.275 161.364L217.579 148.45C206.939 168.575 196.944 186.049 196.944 186.049C196.944 186.049 194.056 177.275 191.825 169.444C189.593 161.613 189.611 157.503 186.188 153.6C180.917 147.593 173.42 146.103 166.441 144.303L166.179 176.795L164.568 219.744Z" fill="#0278AE"></path><path d="M136.983 195.576L180.881 204.088L183.015 220.954H115.709C113.867 220.977 112.04 220.615 110.345 219.892C108.65 219.169 107.125 218.1 105.866 216.755C104.608 215.409 103.643 213.816 103.035 212.077C102.427 210.337 102.188 208.491 102.333 206.654C103.3 194.36 104.352 179.221 105.154 172.819C105.762 167.827 107.769 162.665 110.122 158.227C113.52 151.83 124.847 143.635 134.776 143.209L136.655 185.021" fill="#0278AE"></path><g opacity="0.4"><path opacity="0.4" d="M164.568 219.744L188.675 219.981L184.632 202.489L185.988 205.79C187.238 208.838 189.366 211.446 192.102 213.281C194.838 215.116 198.058 216.096 201.352 216.096C208.976 216.096 214.248 210.423 217.47 203.516C225.009 187.368 232.275 161.364 232.275 161.364L217.58 148.45C206.94 168.575 196.944 186.049 196.944 186.049C196.944 186.049 194.056 177.275 191.825 169.444C189.593 161.613 189.612 157.503 186.189 153.6C180.917 147.593 173.421 146.103 166.441 144.303L166.179 176.795L164.568 219.744Z" fill="black"></path><path opacity="0.4" d="M136.983 195.576L176.576 202.835C177.383 202.985 178.127 203.37 178.715 203.943C179.302 204.515 179.707 205.249 179.877 206.052L183.015 220.99H115.709C113.867 221.013 112.04 220.651 110.345 219.928C108.65 219.205 107.125 218.137 105.866 216.791C104.608 215.446 103.643 213.852 103.035 212.113C102.427 210.374 102.188 208.527 102.333 206.69C103.3 194.396 104.352 179.257 105.154 172.855C105.762 167.863 107.769 162.701 110.122 158.263C113.52 151.867 124.847 143.671 134.776 143.245L136.655 185.058" fill="black"></path></g><path d="M128.623 194.323C128.607 194.19 128.607 194.055 128.623 193.922C128.623 193.624 128.623 193.241 128.623 192.773C128.623 191.733 128.623 190.298 128.623 188.517C128.623 184.948 128.556 180.005 128.283 174.576C128.143 171.852 127.966 169.262 127.778 166.915C127.69 164.832 127.394 162.762 126.896 160.738C126.549 159.386 125.886 158.136 124.963 157.09C124.605 156.724 124.228 156.379 123.832 156.056C124.296 156.295 124.717 156.609 125.078 156.986C126.063 158.025 126.771 159.294 127.14 160.677C127.671 162.718 127.988 164.808 128.088 166.915C128.295 169.268 128.477 171.858 128.617 174.582C128.897 180.054 128.927 184.972 128.866 188.566C128.83 190.353 128.781 191.8 128.739 192.822L128.672 193.971C128.669 194.09 128.653 194.208 128.623 194.323Z" fill="#263238"></path><path d="M180.029 205.304C179.566 204.792 179.027 204.356 178.43 204.009C177.721 203.622 176.968 203.322 176.187 203.115C175.281 202.854 174.217 202.653 173.044 202.416C168.35 201.455 161.875 200.124 154.7 198.768C147.526 197.412 140.996 196.336 136.272 195.582L130.672 194.688L129.152 194.433C128.973 194.411 128.796 194.374 128.623 194.323C128.802 194.324 128.981 194.341 129.158 194.372L130.69 194.567C132.016 194.743 133.937 195.011 136.302 195.363C141.038 196.068 147.574 197.114 154.755 198.458C161.935 199.802 168.411 201.163 173.086 202.173C174.26 202.428 175.324 202.647 176.236 202.927C177.025 203.15 177.783 203.473 178.491 203.887C178.946 204.144 179.357 204.473 179.707 204.86C179.801 204.956 179.886 205.06 179.963 205.17C180.005 205.243 180.036 205.304 180.029 205.304Z" fill="#263238"></path><path d="M128.757 194.323C128.757 194.378 127.948 194.567 126.696 195.077C125.964 195.38 125.254 195.729 124.568 196.123C123.738 196.618 122.947 197.175 122.203 197.789C121.478 198.417 120.803 199.1 120.184 199.832C119.674 200.435 119.207 201.073 118.786 201.741C118.068 202.89 117.74 203.668 117.685 203.644C117.723 203.448 117.786 203.258 117.874 203.079C118.081 202.579 118.32 202.094 118.591 201.626C118.997 200.932 119.454 200.269 119.959 199.643C121.207 198.112 122.734 196.831 124.458 195.868C125.157 195.474 125.887 195.138 126.641 194.865C127.148 194.675 127.668 194.523 128.197 194.409C128.379 194.354 128.567 194.326 128.757 194.323Z" fill="#263238"></path><path d="M185.441 204.83C185.399 204.693 185.368 204.552 185.35 204.41C185.301 204.106 185.234 203.705 185.155 203.194C184.985 202.142 184.76 200.622 184.504 198.738C183.994 194.974 183.374 189.757 182.851 183.981C182.328 178.205 182.018 172.964 181.847 169.164C181.762 167.268 181.714 165.729 181.689 164.665C181.689 164.159 181.689 163.753 181.689 163.449C181.676 163.308 181.676 163.165 181.689 163.024C181.722 163.163 181.739 163.306 181.738 163.449L181.817 164.665C181.884 165.76 181.969 167.286 182.079 169.152C182.303 172.946 182.656 178.181 183.173 183.951C183.69 189.721 184.28 194.938 184.736 198.707C184.96 200.568 185.149 202.082 185.283 203.176C185.337 203.681 185.386 204.082 185.423 204.392C185.447 204.537 185.453 204.684 185.441 204.83Z" fill="#263238"></path><path d="M199.996 198.294C199.996 198.294 199.856 198.16 199.643 197.893C199.349 197.504 199.079 197.098 198.835 196.677C197.203 193.892 196.451 190.679 196.676 187.459C196.707 186.975 196.772 186.493 196.871 186.018C196.892 185.841 196.937 185.667 197.005 185.501C197.059 185.501 196.944 186.255 196.901 187.471C196.8 190.645 197.534 193.79 199.029 196.591C199.601 197.643 200.045 198.257 199.996 198.294Z" fill="#263238"></path><path d="M196.348 232.293C196.427 232.564 196.437 232.851 196.377 233.127C196.316 233.403 196.188 233.66 196.003 233.873C195.817 234.087 195.582 234.25 195.317 234.349C195.053 234.448 194.767 234.479 194.488 234.439C194.163 234.393 193.86 234.254 193.613 234.038C193.367 233.822 193.189 233.539 193.101 233.223L192.585 231.314H192.664C192.716 231.59 192.703 231.874 192.624 232.144C192.545 232.413 192.403 232.66 192.21 232.863C192.017 233.067 191.778 233.222 191.514 233.315C191.249 233.409 190.966 233.438 190.688 233.4C189.891 233.4 189.204 232.238 188.973 231.624C188.372 231.683 187.766 231.575 187.222 231.314C186.677 231.052 186.215 230.647 185.884 230.141L182.315 224.572L175.707 219.738L179.707 205.456L193.928 214.661C194.488 215.099 194.573 215.269 195.46 216.102L204.641 224.547C203.602 225.155 202.72 225.125 201.273 224.547C199.826 223.97 193.491 219.683 193.491 219.683L196.348 232.238" fill="#FFBE9D"></path><path d="M184.182 220.546C184.182 220.546 184.346 220.619 184.602 220.796L185.076 221.124C185.301 221.265 185.506 221.437 185.684 221.635C185.894 221.877 186.059 222.155 186.17 222.455C186.28 222.778 186.395 223.106 186.517 223.453L187.295 225.739C187.836 227.368 188.31 228.84 188.639 229.916C188.846 230.486 189.003 231.074 189.107 231.673C188.831 231.13 188.603 230.565 188.426 229.983C188.043 228.925 187.532 227.465 186.991 225.842C186.73 225.033 186.474 224.261 186.237 223.55C186.128 223.197 186.024 222.863 185.921 222.547C185.83 222.268 185.692 222.007 185.514 221.775C185.36 221.585 185.184 221.413 184.991 221.264L184.553 220.893C184.291 220.686 184.17 220.565 184.182 220.546Z" fill="#EB996E"></path><path d="M192.737 231.643C192.646 231.448 192.579 231.244 192.536 231.035L192.08 229.405C191.691 228.031 191.174 226.128 190.511 224.055C189.849 221.981 189.156 220.133 188.323 218.99C188.012 218.533 187.618 218.139 187.161 217.829C186.827 217.622 186.614 217.561 186.62 217.525C186.676 217.523 186.732 217.534 186.784 217.555C186.936 217.594 187.083 217.649 187.222 217.719C187.727 218.001 188.165 218.389 188.505 218.856C189.411 220.011 190.141 221.896 190.809 223.957C191.478 226.019 191.965 227.958 192.293 229.35C192.457 230.043 192.579 230.609 192.658 231.004C192.716 231.212 192.743 231.427 192.737 231.643Z" fill="#EB996E"></path><path d="M196.409 232.506C196.299 232.304 196.215 232.09 196.16 231.867C196.008 231.381 195.819 230.791 195.594 230.092C195.132 228.59 194.518 226.511 193.855 224.213C193.193 221.915 192.639 219.896 192.183 218.315C192.026 217.729 191.685 217.209 191.211 216.832C191.018 216.708 190.815 216.602 190.603 216.515C190.662 216.501 190.725 216.501 190.785 216.515C190.956 216.554 191.118 216.622 191.265 216.716C191.796 217.081 192.188 217.614 192.378 218.23C192.876 219.732 193.466 221.811 194.141 224.109C194.816 226.408 195.387 228.505 195.795 230.019C195.977 230.724 196.135 231.326 196.257 231.843C196.331 232.058 196.382 232.28 196.409 232.506Z" fill="#EB996E"></path><path d="M282.806 100.661C282.806 101.082 282.93 101.494 283.164 101.843C283.398 102.193 283.73 102.466 284.119 102.627C284.508 102.788 284.936 102.83 285.349 102.748C285.762 102.666 286.141 102.464 286.438 102.166C286.736 101.868 286.939 101.489 287.021 101.076C287.103 100.664 287.061 100.236 286.9 99.8469C286.739 99.458 286.466 99.1257 286.116 98.8918C285.766 98.658 285.355 98.5332 284.934 98.5332C284.369 98.5332 283.828 98.7574 283.429 99.1565C283.03 99.5556 282.806 100.097 282.806 100.661Z" fill="#455A64"></path><path d="M276.416 102.789C277.591 102.789 278.544 101.836 278.544 100.661C278.544 99.4859 277.591 98.5332 276.416 98.5332C275.24 98.5332 274.288 99.4859 274.288 100.661C274.288 101.836 275.24 102.789 276.416 102.789Z" fill="#455A64"></path><path d="M265.794 99.5972C265.583 99.9616 265.485 100.38 265.513 100.8C265.54 101.22 265.692 101.623 265.948 101.957C266.204 102.291 266.553 102.541 266.952 102.677C267.35 102.812 267.78 102.826 268.187 102.718C268.593 102.609 268.959 102.382 269.236 102.065C269.514 101.749 269.691 101.357 269.746 100.94C269.801 100.522 269.731 100.098 269.545 99.7207C269.359 99.3432 269.065 99.0294 268.7 98.819C268.458 98.6785 268.191 98.5872 267.914 98.5503C267.637 98.5134 267.355 98.5316 267.085 98.604C266.815 98.6763 266.562 98.8012 266.34 98.9717C266.119 99.1422 265.933 99.3547 265.794 99.5972Z" fill="#455A64"></path><path d="M276.282 75.8C276.14 75.7894 275.998 75.7894 275.856 75.8L274.592 75.8365C274.312 75.8365 273.984 75.8365 273.655 75.8791L272.543 76.0371L271.241 76.2256L269.782 76.5843C267.283 77.2049 264.902 78.2319 262.736 79.6243C259.531 81.6647 256.836 84.4104 254.855 87.6517C252.874 90.893 251.659 94.5442 251.305 98.3264C251.21 99.4608 251.187 100.6 251.238 101.737C251.281 102.309 251.269 102.899 251.354 103.476C251.439 104.054 251.53 104.644 251.615 105.233C252.061 107.65 252.86 109.987 253.986 112.171C255.186 114.458 256.712 116.56 258.516 118.409C260.438 120.299 262.641 121.88 265.046 123.096C267.535 124.37 270.229 125.193 273.005 125.528C273.707 125.633 274.416 125.692 275.127 125.705C275.841 125.758 276.557 125.773 277.273 125.747C278.716 125.688 280.152 125.507 281.565 125.206C284.616 124.545 287.517 123.323 290.12 121.601L289.864 121.631L298.577 125.127L299.094 125.334L298.948 124.799L296.382 115.484L296.34 115.709C298.705 112.577 300.298 108.932 300.991 105.069C301.324 103.266 301.439 101.428 301.331 99.5971C301.311 98.7188 301.227 97.8431 301.082 96.9767C301.017 96.547 300.95 96.1214 300.881 95.6999C300.808 95.2803 300.681 94.873 300.577 94.4839C299.118 88.7557 295.67 83.7327 290.849 80.3114C289.07 79.0379 287.125 78.015 285.067 77.2714L283.76 76.8032L282.544 76.4871L281.413 76.2074C281.048 76.1405 280.696 76.104 280.368 76.0493C279.711 75.9703 279.152 75.8547 278.623 75.8304L277.346 75.7879H276.561C276.472 75.7813 276.383 75.7813 276.294 75.7879C276.38 75.8154 276.471 75.8277 276.561 75.8243L277.34 75.8912L278.61 75.9763C279.115 76.0128 279.687 76.1405 280.343 76.2378C285.073 77.0595 289.462 79.2365 292.978 82.5046C296.495 85.7726 298.987 89.9911 300.152 94.648C300.243 95.0493 300.371 95.4506 300.444 95.864C300.517 96.2775 300.565 96.6909 300.632 97.1165C300.771 97.9671 300.849 98.8266 300.863 99.6883C300.959 101.477 300.841 103.272 300.511 105.033C299.805 108.811 298.224 112.371 295.896 115.429L295.817 115.533L295.853 115.661C296.664 118.668 297.511 121.775 298.395 124.981L298.766 124.653L290.053 121.145L289.919 121.09L289.792 121.169C286.055 123.645 281.709 125.046 277.23 125.218C276.531 125.243 275.831 125.231 275.133 125.182C274.438 125.169 273.746 125.11 273.059 125.005C270.346 124.677 267.711 123.872 265.277 122.628C262.924 121.438 260.767 119.894 258.881 118.05C257.112 116.248 255.613 114.2 254.43 111.97C253.332 109.827 252.554 107.535 252.12 105.166C252.029 104.558 251.937 104.017 251.852 103.446C251.767 102.874 251.779 102.303 251.737 101.737C251.68 100.623 251.696 99.5057 251.785 98.3933C252.117 94.6704 253.291 91.0719 255.22 87.8705C257.149 84.6691 259.781 81.9489 262.918 79.9162C265.047 78.5078 267.39 77.4526 269.855 76.7911L271.29 76.408L272.579 76.1952L273.686 76.0128C274.026 75.9763 274.336 75.9642 274.61 75.9459L275.868 75.8547C276.008 75.8511 276.146 75.8327 276.282 75.8Z" fill="#455A64"></path></svg>