<svg xmlns="http://www.w3.org/2000/svg" width="488" height="333" viewBox="0 0 488 333" fill="none"><path d="M61.6801 27.26C63.4087 27.26 64.81 25.8587 64.81 24.13C64.81 22.4014 63.4087 21 61.6801 21C59.9514 21 58.55 22.4014 58.55 24.13C58.55 25.8587 59.9514 27.26 61.6801 27.26Z" fill="#E0E0E0"></path><path d="M71.0199 27.26C72.7485 27.26 74.1499 25.8587 74.1499 24.13C74.1499 22.4014 72.7485 21 71.0199 21C69.2912 21 67.8899 22.4014 67.8899 24.13C67.8899 25.8587 69.2912 27.26 71.0199 27.26Z" fill="#E0E0E0"></path><path d="M79.9 27.26C81.6287 27.26 83.03 25.8587 83.03 24.13C83.03 22.4014 81.6287 21 79.9 21C78.1714 21 76.77 22.4014 76.77 24.13C76.77 25.8587 78.1714 27.26 79.9 27.26Z" fill="#E0E0E0"></path><g clip-path="url(#clip0)"><path d="M341.327 96.3239C341.327 96.3239 325.928 219.486 300.668 247.204C270.322 280.431 248.284 275.458 236.021 292.722C223.787 275.543 201.748 280.431 171.374 247.175C146.058 219.486 130.715 96.3239 130.715 96.3239C197.34 64.0007 235.993 27.75 235.993 27.75C237.208 28.8802 275.747 64.481 341.327 96.3239Z" fill="#FFC727"></path><path opacity="0.2" d="M236.021 27.75V292.722C223.787 275.543 201.748 280.431 171.374 247.175C146.058 219.486 130.715 96.3239 130.715 96.3239C197.34 64.0007 235.993 27.75 235.993 27.75H236.021Z" fill="black"></path><path opacity="0.1" d="M341.327 96.3239C341.327 96.3239 325.928 219.486 300.668 247.204C270.322 280.431 248.284 275.458 236.021 292.722V27.75C237.208 28.8802 275.747 64.481 341.327 96.3239Z" fill="black"></path><path d="M324.995 106.241C324.995 106.241 311.998 210.275 290.638 233.698C264.982 261.952 246.362 257.686 235.993 272.181C225.652 257.686 207.003 261.839 181.376 233.698C160.016 210.275 147.047 106.241 147.047 106.241C203.33 78.9191 235.993 48.3193 235.993 48.3193C235.993 48.3193 268.712 78.9191 324.995 106.241Z" fill="#FFC727"></path></g><path d="M283.385 190.939H268.92V112.249C268.92 103.338 265.38 94.7917 259.079 88.4906C252.778 82.1894 244.232 78.6495 235.321 78.6495C226.41 78.6495 217.864 82.1894 211.562 88.4906C205.261 94.7917 201.721 103.338 201.721 112.249V190.939H187.256V112.249C187.157 105.874 188.328 99.5436 190.699 93.6255C193.07 87.7074 196.594 82.32 201.067 77.777C205.54 73.2341 210.872 69.6263 216.753 67.1637C222.634 64.7011 228.945 63.4329 235.321 63.4329C241.696 63.4329 248.008 64.7011 253.889 67.1637C259.769 69.6263 265.101 73.2341 269.574 77.777C274.047 82.32 277.572 87.7074 279.943 93.6255C282.314 99.5436 283.484 105.874 283.385 112.249V190.939Z" fill="#005082"></path><path d="M293.372 155.922H177.27C173.557 155.922 170.546 158.932 170.546 162.645V232.309C170.546 236.022 173.557 239.033 177.27 239.033H293.372C297.085 239.033 300.096 236.022 300.096 232.309V162.645C300.096 158.932 297.085 155.922 293.372 155.922Z" fill="#F5F5F5"></path><path d="M246.147 186.657C246.148 184.642 245.587 182.666 244.526 180.952C243.466 179.238 241.949 177.854 240.145 176.955C238.341 176.057 236.322 175.679 234.315 175.865C232.308 176.052 230.393 176.794 228.785 178.009C227.177 179.224 225.94 180.864 225.213 182.743C224.486 184.623 224.298 186.668 224.67 188.649C225.042 190.63 225.959 192.468 227.318 193.956C228.677 195.444 230.425 196.523 232.364 197.072V213.273H238.278V197.072C240.546 196.433 242.543 195.069 243.964 193.189C245.385 191.308 246.151 189.014 246.147 186.657Z" fill="#005082"></path><path d="M177.455 231.152C177.154 231.152 176.922 217.265 176.922 200.197C176.922 183.128 177.154 169.241 177.455 169.241C177.756 169.241 177.999 183.128 177.999 200.197C177.999 217.265 177.756 231.152 177.455 231.152Z" fill="#0063AD"></path><path d="M226.844 200.532C226.844 200.532 226.335 200.37 225.572 199.815C224.501 199.015 223.56 198.055 222.783 196.968C221.432 195.186 220.492 193.127 220.03 190.938C219.569 188.75 219.597 186.487 220.112 184.311C220.627 182.134 221.617 180.099 223.011 178.35C224.405 176.601 226.169 175.182 228.175 174.195C229.376 173.575 230.663 173.142 231.994 172.91C232.469 172.78 232.966 172.752 233.452 172.829C233.452 173.037 231.404 173.234 228.592 174.866C226.756 175.881 225.154 177.268 223.886 178.939C222.618 180.61 221.714 182.527 221.232 184.568C220.749 186.609 220.698 188.729 221.083 190.79C221.468 192.852 222.279 194.811 223.465 196.54C224.481 197.961 225.611 199.296 226.844 200.532Z" fill="#0063AD"></path><path d="M332.671 276.086C332.671 276.086 332.983 275.647 333.608 274.825L334.129 274.131C334.314 273.865 334.476 273.552 334.661 273.216C335.123 272.465 335.51 271.67 335.819 270.844C336.004 270.37 336.224 269.884 336.409 269.351C336.594 268.819 336.721 268.194 336.883 267.639C337.072 267.016 337.204 266.376 337.277 265.729C337.415 265.033 337.515 264.33 337.577 263.623C337.851 260.234 337.695 256.824 337.115 253.475C335.957 245.872 332.717 236.938 327.788 227.218C322.069 216.258 315.368 205.839 307.768 196.089C298.618 184.214 288.641 173 277.912 162.53C265.656 150.468 252.562 139.289 238.729 129.075C231.404 123.706 223.685 118.487 215.585 113.568C207.305 108.522 198.709 104.015 189.849 100.075C180.717 95.9036 171.099 92.8907 161.219 91.1071C156.176 90.2106 151.026 90.0818 145.944 90.7252C143.403 91.1067 140.923 91.8268 138.573 92.866C136.206 93.9189 134.089 95.4601 132.36 97.3886C130.631 99.317 129.329 101.589 128.54 104.056C127.772 106.509 127.34 109.055 127.255 111.624C127.184 116.747 127.89 121.85 129.35 126.761C132.245 136.376 136.335 145.59 141.524 154.186C146.446 162.546 151.904 170.579 157.864 178.233C163.65 185.755 169.736 192.825 175.904 199.479C187.627 212.069 200.226 223.813 213.606 234.624C225.226 244.085 237.496 252.72 250.324 260.464C260.875 266.902 271.987 272.371 283.524 276.804C293.743 280.599 302.989 282.775 310.672 283.076C314.067 283.282 317.475 283.049 320.81 282.382C321.501 282.244 322.185 282.07 322.858 281.861C323.493 281.702 324.116 281.497 324.721 281.247L326.364 280.576C326.873 280.333 327.336 280.056 327.776 279.824C328.562 279.406 329.31 278.918 330.009 278.366C330.31 278.135 330.611 277.949 330.854 277.741L331.479 277.139L332.636 276.063L331.537 277.22L330.912 277.845C330.669 278.054 330.38 278.25 330.067 278.493C329.372 279.052 328.628 279.548 327.845 279.975C327.406 280.218 326.943 280.495 326.434 280.75L324.779 281.433C324.176 281.693 323.553 281.902 322.916 282.058C322.239 282.278 321.552 282.464 320.856 282.613C317.507 283.296 314.085 283.549 310.672 283.365C302.954 283.099 293.673 280.935 283.42 277.174C271.847 272.761 260.699 267.304 250.116 260.869C237.247 253.15 224.946 244.522 213.305 235.052C199.892 224.246 187.262 212.502 175.511 199.908C169.32 193.242 163.245 186.16 157.424 178.627C151.446 170.956 145.969 162.908 141.026 154.534C135.813 145.891 131.7 136.631 128.783 126.969C127.312 121.99 126.606 116.816 126.688 111.624C126.771 108.995 127.215 106.39 128.008 103.883C128.811 101.335 130.146 98.9863 131.923 96.9916C133.7 94.997 135.88 93.4016 138.318 92.3106C140.718 91.2416 143.253 90.5057 145.852 90.1235C150.995 89.4628 156.208 89.5916 161.312 90.5053C171.242 92.2949 180.907 95.3275 190.08 99.5315C198.939 103.489 207.528 108.024 215.793 113.106C223.894 118.035 231.67 123.266 238.937 128.647C252.784 138.896 265.889 150.11 278.155 162.206C288.878 172.699 298.847 183.937 307.988 195.834C315.582 205.622 322.271 216.08 327.973 227.079C332.879 236.834 336.073 245.814 337.23 253.44C337.8 256.811 337.936 260.241 337.635 263.646C337.574 264.357 337.474 265.064 337.334 265.764C337.243 266.414 337.104 267.056 336.918 267.685C336.744 268.287 336.582 268.842 336.432 269.409C336.281 269.976 336.004 270.428 335.819 270.902C335.491 271.732 335.08 272.527 334.592 273.274C334.395 273.61 334.233 273.922 334.048 274.189L333.504 274.871C332.96 275.681 332.671 276.086 332.671 276.086Z" fill="#0063AD"></path><path d="M369.701 186.669C369.701 186.669 369.643 186.137 369.562 185.107C369.562 184.844 369.539 184.555 369.493 184.239C369.493 183.915 369.354 183.579 369.285 183.197C369.133 182.321 368.901 181.461 368.59 180.628C368.417 180.154 368.255 179.645 368.047 179.124C367.838 178.603 367.526 178.094 367.248 177.527C366.957 176.925 366.616 176.348 366.23 175.803C365.848 175.247 365.524 174.646 365.072 174.044C363.023 171.329 360.635 168.887 357.967 166.777C352.031 161.893 343.676 157.357 333.539 153.388C321.973 149.018 310.036 145.702 297.874 143.482C283.147 140.719 268.244 138.998 253.275 138.332C236.096 137.506 218.88 137.893 201.756 139.49C192.718 140.346 183.484 141.596 174.145 143.343C164.606 145.085 155.19 147.443 145.956 150.402C136.354 153.365 127.16 157.517 118.588 162.761C114.257 165.457 110.356 168.788 107.016 172.644C105.369 174.616 103.999 176.804 102.942 179.147C101.88 181.513 101.331 184.076 101.331 186.669C101.331 189.262 101.88 191.825 102.942 194.191C104.003 196.531 105.373 198.719 107.016 200.694C110.357 204.532 114.258 207.844 118.588 210.519C127.154 215.768 136.345 219.924 145.944 222.889C155.178 225.851 164.594 228.209 174.134 229.948C183.472 231.707 192.707 232.946 201.745 233.802C218.869 235.405 236.085 235.791 253.263 234.959C268.232 234.294 283.135 232.573 297.862 229.81C310.025 227.592 321.962 224.277 333.527 219.904C343.676 215.935 352.042 211.398 357.956 206.515C360.626 204.408 363.014 201.965 365.061 199.248C365.478 198.683 365.864 198.096 366.218 197.489C366.589 196.954 366.915 196.389 367.19 195.799L367.989 194.202C368.197 193.682 368.359 193.172 368.533 192.698C368.843 191.865 369.075 191.005 369.227 190.129C369.296 189.759 369.389 189.411 369.435 189.099C369.481 188.787 369.435 188.486 369.505 188.231C369.586 187.19 369.643 186.669 369.643 186.669C369.643 186.669 369.643 187.201 369.562 188.231C369.562 188.497 369.562 188.787 369.562 189.111C369.562 189.435 369.435 189.77 369.366 190.152C369.222 191.031 368.997 191.895 368.695 192.733C368.521 193.219 368.371 193.728 368.151 194.26L367.375 195.869C367.098 196.461 366.773 197.03 366.403 197.57C366.021 198.137 365.697 198.785 365.246 199.363C363.2 202.105 360.808 204.571 358.129 206.7C352.193 211.63 343.826 216.212 333.677 220.216C322.096 224.614 310.139 227.952 297.955 230.191C283.211 232.988 268.288 234.74 253.298 235.434C236.094 236.293 218.851 235.934 201.698 234.357C192.649 233.501 183.403 232.263 174.029 230.515C164.468 228.773 155.028 226.416 145.771 223.456C136.122 220.478 126.886 216.303 118.275 211.028C113.869 208.301 109.898 204.927 106.495 201.018C104.81 198.996 103.408 196.754 102.329 194.353C101.242 191.919 100.68 189.283 100.68 186.617C100.68 183.951 101.242 181.315 102.329 178.881C103.412 176.486 104.814 174.248 106.495 172.227C109.896 168.316 113.872 164.945 118.287 162.229C126.891 156.954 136.125 152.782 145.771 149.812C155.027 146.844 164.466 144.482 174.029 142.741C183.391 140.994 192.637 139.756 201.687 138.899C218.84 137.327 236.083 136.971 253.286 137.835C268.282 138.53 283.209 140.29 297.955 143.1C310.133 145.349 322.082 148.7 333.654 153.11C343.815 157.125 352.17 161.696 358.118 166.626C360.786 168.763 363.17 171.233 365.211 173.974C365.629 174.547 366.015 175.142 366.369 175.756C366.733 176.299 367.058 176.868 367.341 177.458L368.116 179.078C368.336 179.598 368.486 180.119 368.66 180.594C368.964 181.435 369.189 182.303 369.331 183.186C369.4 183.556 369.481 183.903 369.528 184.227C369.574 184.551 369.528 184.841 369.528 185.095C369.701 186.137 369.701 186.669 369.701 186.669Z" fill="#0063AD"></path><path d="M320.589 75.3575C320.589 75.3575 320.127 75.0797 319.27 74.5127L318.541 74.0382C318.264 73.8762 317.928 73.7374 317.592 73.5638C316.807 73.1509 315.986 72.81 315.139 72.5455C314.653 72.395 314.155 72.1983 313.612 72.0478L311.841 71.6544C311.205 71.5149 310.559 71.4259 309.908 71.3882C309.226 71.3882 308.531 71.2147 307.791 71.2378C304.388 71.1976 300.994 71.5864 297.688 72.395C290.201 74.0845 281.488 77.9149 272.149 83.5042C261.606 89.962 251.671 97.3638 242.467 105.618C231.259 115.563 220.768 126.286 211.072 137.708C199.884 150.77 189.633 164.606 180.394 179.112C175.534 186.785 170.859 194.839 166.508 203.298C162.044 211.91 158.14 220.8 154.82 229.914C151.296 239.314 148.963 249.119 147.877 259.099C147.328 264.192 147.559 269.338 148.559 274.362C149.107 276.874 149.994 279.3 151.198 281.571C152.413 283.853 154.097 285.853 156.139 287.438C158.181 289.024 160.536 290.16 163.048 290.771C165.547 291.372 168.116 291.629 170.685 291.535C175.799 291.252 180.84 290.195 185.636 288.399C195.032 284.846 203.947 280.13 212.171 274.362C220.17 268.876 227.804 262.877 235.026 256.402C242.131 250.095 248.773 243.557 254.988 236.938C266.719 224.377 277.547 211.001 287.389 196.91C296.047 184.683 303.831 171.86 310.684 158.537C316.377 147.565 321.067 136.101 324.698 124.284C327.776 113.869 329.326 104.461 329.083 96.7773C329.055 93.3757 328.588 89.9919 327.695 86.7096C327.508 86.0268 327.284 85.3546 327.024 84.6961C326.829 84.0759 326.585 83.4723 326.295 82.8909C326.017 82.3354 325.762 81.7337 325.519 81.2939C325.276 80.8542 324.929 80.3566 324.663 79.94C324.194 79.1818 323.656 78.4689 323.054 77.8107C322.811 77.5214 322.591 77.2437 322.372 77.0123L321.724 76.4221C320.96 75.7278 320.566 75.3575 320.566 75.3575L321.724 76.3758L322.372 76.9544C322.603 77.1858 322.823 77.4636 323.077 77.7529C323.693 78.4006 324.24 79.1103 324.709 79.8706C324.987 80.2987 325.299 80.7385 325.589 81.2245L326.376 82.8214C326.681 83.4045 326.936 84.0123 327.139 84.6382C327.348 85.2863 327.66 85.9343 327.822 86.6634C328.735 89.9552 329.225 93.35 329.28 96.7657C329.546 104.484 328.03 113.892 324.975 124.377C321.374 136.228 316.702 147.728 311.019 158.734C304.194 172.098 296.433 184.964 287.794 197.234C277.954 211.355 267.126 224.762 255.393 237.355C249.167 243.997 242.524 250.547 235.408 256.877C228.169 263.369 220.515 269.384 212.495 274.883C204.25 280.683 195.308 285.422 185.879 288.989C181 290.825 175.868 291.898 170.662 292.171C168.035 292.262 165.407 291.997 162.851 291.385C160.259 290.753 157.829 289.582 155.721 287.947C153.614 286.311 151.875 284.249 150.619 281.895C149.388 279.573 148.481 277.093 147.923 274.524C146.914 269.443 146.679 264.238 147.229 259.087C148.335 249.054 150.695 239.198 154.253 229.752C157.587 220.637 161.507 211.746 165.987 203.136C170.338 194.665 175.025 186.6 179.873 178.916C189.136 164.398 199.415 150.554 210.632 137.488C220.363 126.063 230.889 115.34 242.131 105.399C251.39 97.1122 261.387 89.6906 271.998 83.2265C281.395 77.6487 290.132 73.8415 297.665 72.1751C300.984 71.3512 304.395 70.9622 307.814 71.0179C308.526 71.0347 309.237 71.0888 309.943 71.1799C310.598 71.2213 311.248 71.3142 311.887 71.4577L313.646 71.828C314.19 71.99 314.688 72.1751 315.174 72.3371C316.024 72.6079 316.845 72.9606 317.627 73.3902C317.974 73.5638 318.298 73.7142 318.576 73.8762L319.293 74.3623C320.161 75.045 320.589 75.3575 320.589 75.3575Z" fill="#0063AD"></path><path d="M95.9876 250.628C98.7421 250.628 100.975 248.395 100.975 245.64C100.975 242.886 98.7421 240.653 95.9876 240.653C93.233 240.653 91 242.886 91 245.64C91 248.395 93.233 250.628 95.9876 250.628Z" fill="#FFB677"></path><path d="M381.019 87.5082C381.017 88.4941 380.722 89.4573 380.173 90.2759C379.623 91.0946 378.843 91.7321 377.932 92.1078C377.02 92.4835 376.018 92.5806 375.051 92.3869C374.084 92.1931 373.197 91.7172 372.5 91.0192C371.804 90.3213 371.33 89.4325 371.139 88.4653C370.947 87.4982 371.047 86.4959 371.424 85.5853C371.802 84.6746 372.442 83.8963 373.262 83.3488C374.081 82.8013 375.045 82.509 376.031 82.509C376.687 82.509 377.337 82.6384 377.943 82.8898C378.548 83.1412 379.099 83.5096 379.562 83.9739C380.025 84.4383 380.393 84.9895 380.642 85.5959C380.892 86.2024 381.02 86.8522 381.019 87.5082Z" fill="#FFB677"></path><path d="M131.016 258.52C131.016 258.772 130.941 259.019 130.801 259.228C130.661 259.438 130.461 259.601 130.228 259.697C129.995 259.793 129.738 259.818 129.491 259.768C129.244 259.718 129.017 259.595 128.839 259.416C128.662 259.237 128.541 259.009 128.494 258.761C128.446 258.514 128.473 258.257 128.571 258.025C128.669 257.792 128.834 257.594 129.045 257.456C129.255 257.318 129.503 257.245 129.755 257.247C130.091 257.25 130.411 257.386 130.648 257.624C130.884 257.862 131.016 258.184 131.016 258.52Z" fill="#FFB677"></path><path d="M158.083 118.706C158.083 118.958 158.009 119.204 157.869 119.413C157.729 119.623 157.53 119.786 157.297 119.882C157.065 119.979 156.809 120.004 156.562 119.955C156.315 119.906 156.088 119.784 155.91 119.606C155.732 119.428 155.611 119.202 155.562 118.955C155.513 118.708 155.538 118.452 155.634 118.219C155.731 117.987 155.894 117.788 156.103 117.648C156.312 117.508 156.559 117.433 156.81 117.433C157.148 117.433 157.472 117.567 157.71 117.806C157.949 118.045 158.083 118.369 158.083 118.706Z" fill="#FFB677"></path><path d="M355.954 186.669C355.954 186.921 355.879 187.168 355.738 187.377C355.598 187.587 355.399 187.75 355.165 187.846C354.932 187.942 354.675 187.967 354.428 187.917C354.181 187.866 353.954 187.744 353.777 187.565C353.599 187.386 353.479 187.158 353.431 186.91C353.383 186.662 353.41 186.406 353.508 186.174C353.606 185.941 353.771 185.743 353.982 185.605C354.193 185.466 354.44 185.394 354.692 185.396C354.859 185.396 355.024 185.429 355.178 185.493C355.332 185.557 355.471 185.651 355.588 185.77C355.706 185.888 355.798 186.028 355.861 186.183C355.924 186.337 355.955 186.502 355.954 186.669Z" fill="#FFB677"></path><path d="M373.578 127.547C373.58 127.8 373.507 128.048 373.368 128.259C373.229 128.47 373.03 128.635 372.797 128.733C372.564 128.83 372.307 128.857 372.059 128.808C371.811 128.759 371.584 128.638 371.405 128.459C371.226 128.28 371.105 128.052 371.056 127.804C371.007 127.556 371.033 127.299 371.131 127.066C371.229 126.833 371.394 126.635 371.605 126.496C371.816 126.357 372.064 126.284 372.316 126.286C372.651 126.286 372.972 126.419 373.208 126.655C373.445 126.892 373.578 127.213 373.578 127.547Z" fill="#FFB677"></path><path d="M134.27 31.9229L135.12 46.6762C135.149 46.9499 135.263 47.2075 135.447 47.4122C135.631 47.6169 135.875 47.7583 136.143 47.8161L147.839 50.0886C148.097 50.1449 148.332 50.2779 148.514 50.4702C148.695 50.6625 148.814 50.9051 148.855 51.1663C148.896 51.4275 148.858 51.695 148.745 51.934C148.632 52.1729 148.449 52.3721 148.221 52.5054L137.707 57.7862C137.495 57.9071 137.321 58.0859 137.206 58.3017C137.092 58.5176 137.04 58.7616 137.059 59.0055L137.873 71.5295C137.887 71.786 137.825 72.0409 137.695 72.2626C137.565 72.4843 137.374 72.663 137.144 72.7767C136.913 72.8903 136.655 72.9339 136.4 72.902C136.146 72.8701 135.906 72.7641 135.711 72.5972L124.83 62.5765C124.653 62.4143 124.435 62.3037 124.2 62.2566C123.965 62.2096 123.722 62.2279 123.497 62.3096L110.763 67.1865C110.514 67.2782 110.242 67.2917 109.984 67.2252C109.727 67.1588 109.495 67.0154 109.321 66.8143C109.147 66.6132 109.038 66.3637 109.008 66.099C108.979 65.8344 109.03 65.567 109.156 65.3324L115.829 53.3062C115.928 53.1183 115.98 52.909 115.98 52.6965C115.98 52.4841 115.928 52.2748 115.829 52.0869L110.489 41.857C110.373 41.6319 110.324 41.3779 110.348 41.1255C110.373 40.8732 110.47 40.6333 110.628 40.435C110.786 40.2366 110.997 40.0882 111.237 40.0077C111.478 39.9272 111.736 39.9181 111.981 39.9813L122.553 42.7228C122.802 42.7896 123.065 42.7807 123.309 42.6972C123.552 42.6137 123.766 42.4593 123.922 42.2538L131.928 31.2737C132.085 31.0632 132.302 30.9051 132.551 30.8201C132.799 30.7351 133.067 30.7272 133.32 30.7974C133.573 30.8675 133.799 31.0125 133.969 31.2133C134.138 31.4141 134.243 31.6615 134.27 31.9229Z" fill="#0063AD"></path><path d="M129.283 48.2706C129.283 48.088 129.229 47.9094 129.128 47.7576C129.026 47.6057 128.882 47.4874 128.714 47.4175C128.545 47.3476 128.36 47.3293 128.181 47.3649C128.002 47.4005 127.838 47.4885 127.709 47.6176C127.58 47.7468 127.492 47.9113 127.456 48.0904C127.421 48.2696 127.439 48.4552 127.509 48.624C127.578 48.7927 127.697 48.9369 127.848 49.0384C128 49.1399 128.178 49.194 128.361 49.194C128.605 49.194 128.84 49.0967 129.013 48.9236C129.186 48.7504 129.283 48.5155 129.283 48.2706Z" fill="#579BD3"></path><path d="M128.26 53.5586C128.271 53.43 128.256 53.3005 128.215 53.1782C128.173 53.0559 128.107 52.9436 128.02 52.8483C127.933 52.7531 127.827 52.6771 127.709 52.625C127.591 52.573 127.463 52.5461 127.334 52.5461C127.205 52.5461 127.078 52.573 126.96 52.625C126.841 52.6771 126.736 52.7531 126.648 52.8483C126.561 52.9436 126.495 53.0559 126.454 53.1782C126.412 53.3005 126.397 53.43 126.408 53.5586C126.429 53.7904 126.535 54.0061 126.706 54.1632C126.878 54.3203 127.102 54.4074 127.334 54.4074C127.566 54.4074 127.79 54.3203 127.962 54.1632C128.133 54.0061 128.24 53.7904 128.26 53.5586Z" fill="#579BD3"></path><path d="M130.112 43.5308C130.112 43.3881 130.07 43.2486 129.991 43.13C129.911 43.0113 129.799 42.9188 129.667 42.8642C129.536 42.8096 129.391 42.7954 129.251 42.8232C129.111 42.851 128.983 42.9197 128.882 43.0206C128.781 43.1215 128.712 43.2501 128.685 43.39C128.657 43.53 128.671 43.675 128.726 43.8068C128.78 43.9387 128.873 44.0513 128.991 44.1306C129.11 44.2099 129.249 44.2522 129.391 44.2522C129.583 44.2522 129.766 44.1762 129.901 44.0409C130.036 43.9056 130.112 43.7221 130.112 43.5308Z" fill="#579BD3"></path><path d="M129.903 58.1687C129.903 58.026 129.861 57.8865 129.782 57.7679C129.702 57.6493 129.59 57.5568 129.458 57.5022C129.327 57.4476 129.182 57.4333 129.042 57.4611C128.902 57.489 128.774 57.5577 128.673 57.6586C128.572 57.7595 128.503 57.888 128.476 58.028C128.448 58.1679 128.462 58.313 128.517 58.4448C128.571 58.5766 128.664 58.6893 128.782 58.7685C128.901 58.8478 129.04 58.8901 129.182 58.8901C129.374 58.8901 129.557 58.8141 129.692 58.6788C129.827 58.5435 129.903 58.36 129.903 58.1687Z" fill="#579BD3"></path><path d="M133.131 53.7607C133.131 53.6181 133.089 53.4786 133.01 53.3599C132.931 53.2413 132.818 53.1488 132.686 53.0942C132.555 53.0396 132.41 53.0253 132.27 53.0532C132.13 53.081 132.002 53.1497 131.901 53.2506C131.8 53.3515 131.732 53.4801 131.704 53.62C131.676 53.7599 131.69 53.905 131.745 54.0368C131.799 54.1686 131.892 54.2813 132.01 54.3606C132.129 54.4399 132.268 54.4822 132.411 54.4822C132.602 54.4822 132.785 54.4062 132.92 54.2709C133.055 54.1356 133.131 53.9521 133.131 53.7607Z" fill="#579BD3"></path><path d="M132.303 62.2808C132.303 62.1381 132.26 61.9986 132.181 61.88C132.102 61.7613 131.99 61.6688 131.858 61.6142C131.726 61.5596 131.581 61.5454 131.442 61.5732C131.302 61.601 131.173 61.6697 131.073 61.7706C130.972 61.8715 130.903 62.0001 130.875 62.14C130.848 62.28 130.862 62.425 130.916 62.5568C130.971 62.6887 131.063 62.8013 131.182 62.8806C131.3 62.9599 131.44 63.0022 131.582 63.0022C131.773 63.0022 131.957 62.9262 132.092 62.7909C132.227 62.6556 132.303 62.4721 132.303 62.2808Z" fill="#579BD3"></path><path d="M142.045 52.0437C142.045 51.901 142.003 51.7615 141.924 51.6429C141.845 51.5243 141.732 51.4318 141.601 51.3772C141.469 51.3226 141.324 51.3083 141.184 51.3361C141.044 51.364 140.916 51.4327 140.815 51.5336C140.714 51.6345 140.646 51.763 140.618 51.903C140.59 52.0429 140.604 52.188 140.659 52.3198C140.714 52.4516 140.806 52.5643 140.924 52.6435C141.043 52.7228 141.182 52.7651 141.325 52.7651C141.516 52.7651 141.699 52.6891 141.834 52.5538C141.969 52.4185 142.045 52.235 142.045 52.0437Z" fill="#579BD3"></path><path d="M119.411 47.477C119.411 47.3344 119.369 47.1949 119.289 47.0762C119.21 46.9576 119.098 46.8651 118.966 46.8105C118.834 46.7559 118.689 46.7416 118.55 46.7695C118.41 46.7973 118.281 46.866 118.181 46.9669C118.08 47.0678 118.011 47.1964 117.983 47.3363C117.956 47.4762 117.97 47.6213 118.024 47.7531C118.079 47.885 118.171 47.9976 118.29 48.0769C118.408 48.1562 118.548 48.1985 118.69 48.1985C118.881 48.1985 119.065 48.1225 119.2 47.9872C119.335 47.8519 119.411 47.6684 119.411 47.477Z" fill="#579BD3"></path><path d="M119.685 58.7385C119.685 58.5958 119.642 58.4564 119.563 58.3377C119.484 58.2191 119.371 58.1266 119.24 58.072C119.108 58.0174 118.963 58.0031 118.823 58.031C118.684 58.0588 118.555 58.1275 118.454 58.2284C118.354 58.3293 118.285 58.4578 118.257 58.5978C118.229 58.7377 118.244 58.8828 118.298 59.0146C118.353 59.1464 118.445 59.2591 118.564 59.3384C118.682 59.4176 118.821 59.46 118.964 59.46C119.155 59.46 119.338 59.3839 119.474 59.2487C119.609 59.1134 119.685 58.9299 119.685 58.7385Z" fill="#579BD3"></path><path d="M122.841 49.9875C122.841 49.8449 122.799 49.7054 122.72 49.5867C122.64 49.4681 122.528 49.3756 122.396 49.321C122.265 49.2664 122.12 49.2521 121.98 49.28C121.84 49.3078 121.712 49.3765 121.611 49.4774C121.51 49.5783 121.441 49.7069 121.414 49.8468C121.386 49.9867 121.4 50.1318 121.455 50.2636C121.509 50.3954 121.602 50.5081 121.72 50.5874C121.839 50.6667 121.978 50.709 122.12 50.709C122.312 50.709 122.495 50.633 122.63 50.4977C122.765 50.3624 122.841 50.1789 122.841 49.9875Z" fill="#579BD3"></path><path d="M123.252 56.5093C123.252 56.3666 123.209 56.2271 123.13 56.1085C123.051 55.9898 122.939 55.8974 122.807 55.8428C122.675 55.7882 122.53 55.7739 122.39 55.8017C122.251 55.8295 122.122 55.8983 122.022 55.9991C121.921 56.1 121.852 56.2286 121.824 56.3685C121.796 56.5085 121.811 56.6535 121.865 56.7854C121.92 56.9172 122.012 57.0299 122.131 57.1091C122.249 57.1884 122.389 57.2307 122.531 57.2307C122.722 57.2307 122.906 57.1547 123.041 57.0194C123.176 56.8841 123.252 56.7006 123.252 56.5093Z" fill="#579BD3"></path><path d="M131.142 39.0002C131.142 38.8576 131.1 38.7181 131.021 38.5994C130.942 38.4808 130.829 38.3883 130.697 38.3337C130.566 38.2791 130.421 38.2648 130.281 38.2927C130.141 38.3205 130.013 38.3892 129.912 38.4901C129.811 38.591 129.743 38.7196 129.715 38.8595C129.687 38.9994 129.701 39.1445 129.756 39.2763C129.81 39.4081 129.903 39.5208 130.021 39.6001C130.14 39.6794 130.279 39.7217 130.422 39.7217C130.613 39.7217 130.796 39.6457 130.931 39.5104C131.066 39.3751 131.142 39.1916 131.142 39.0002Z" fill="#579BD3"></path><path d="M137.311 52.9744C137.311 52.8317 137.269 52.6922 137.19 52.5736C137.11 52.4549 136.998 52.3624 136.866 52.3078C136.735 52.2532 136.59 52.239 136.45 52.2668C136.31 52.2946 136.182 52.3633 136.081 52.4642C135.98 52.5651 135.911 52.6937 135.884 52.8336C135.856 52.9736 135.87 53.1186 135.925 53.2504C135.979 53.3823 136.072 53.4949 136.19 53.5742C136.309 53.6535 136.448 53.6958 136.59 53.6958C136.782 53.6958 136.965 53.6198 137.1 53.4845C137.235 53.3492 137.311 53.1657 137.311 52.9744Z" fill="#579BD3"></path><path d="M134.364 66.292C134.364 66.1493 134.321 66.0098 134.242 65.8912C134.163 65.7725 134.05 65.6801 133.919 65.6255C133.787 65.5709 133.642 65.5566 133.502 65.5844C133.363 65.6123 133.234 65.681 133.133 65.7819C133.033 65.8828 132.964 66.0113 132.936 66.1512C132.908 66.2912 132.923 66.4362 132.977 66.5681C133.032 66.6999 133.124 66.8126 133.243 66.8918C133.361 66.9711 133.5 67.0134 133.643 67.0134C133.834 67.0134 134.017 66.9374 134.152 66.8021C134.288 66.6668 134.364 66.4833 134.364 66.292Z" fill="#579BD3"></path><path d="M116.255 43.978C116.255 43.8353 116.212 43.6959 116.133 43.5772C116.054 43.4586 115.941 43.3661 115.81 43.3115C115.678 43.2569 115.533 43.2426 115.393 43.2705C115.254 43.2983 115.125 43.367 115.024 43.4679C114.924 43.5688 114.855 43.6973 114.827 43.8373C114.799 43.9772 114.814 44.1223 114.868 44.2541C114.923 44.3859 115.015 44.4986 115.134 44.5779C115.252 44.6571 115.391 44.6995 115.534 44.6995C115.725 44.6995 115.908 44.6234 116.044 44.4882C116.179 44.3529 116.255 44.1694 116.255 43.978Z" fill="#579BD3"></path><path d="M116.319 61.2781C116.319 61.1354 116.277 60.9959 116.198 60.8773C116.119 60.7586 116.006 60.6662 115.874 60.6116C115.743 60.557 115.598 60.5427 115.458 60.5705C115.318 60.5983 115.19 60.667 115.089 60.7679C114.988 60.8688 114.92 60.9974 114.892 61.1373C114.864 61.2773 114.878 61.4223 114.933 61.5541C114.987 61.686 115.08 61.7986 115.198 61.8779C115.317 61.9572 115.456 61.9995 115.599 61.9995C115.79 61.9995 115.973 61.9235 116.108 61.7882C116.243 61.6529 116.319 61.4694 116.319 61.2781Z" fill="#579BD3"></path><path d="M81.9455 153.297L81.2249 169.384C81.2272 169.703 81.3282 170.013 81.5141 170.271C81.7 170.53 81.9616 170.724 82.2626 170.827L94.823 179.29C95.1231 179.386 95.3864 179.572 95.5773 179.823C95.7682 180.073 95.8773 180.377 95.8899 180.692C95.9025 181.007 95.8179 181.319 95.6477 181.584C95.4774 181.849 95.2298 182.056 94.9383 182.175L81.5059 185.198C81.2426 185.312 81.0165 185.497 80.8533 185.733C80.6902 185.969 80.5967 186.246 80.5835 186.533L76.7571 201.979C76.7439 202.287 76.6382 202.585 76.4538 202.832C76.2693 203.08 76.0145 203.266 75.7228 203.366C75.4311 203.467 75.1159 203.477 74.8184 203.395C74.5208 203.314 74.2547 203.145 74.0547 202.909L65.7676 187.197C65.5839 186.982 65.345 186.823 65.0769 186.735C64.8088 186.647 64.5218 186.635 64.2471 186.699L47.8891 189C47.5868 189.07 47.2706 189.047 46.9816 188.934C46.6926 188.821 46.4443 188.624 46.2692 188.367C46.0941 188.111 46.0003 187.808 46 187.497C45.9998 187.187 46.093 186.883 46.2677 186.627L57.149 174.283C57.2934 174.075 57.3846 173.835 57.4147 173.583C57.4449 173.332 57.413 173.077 57.322 172.84L52.2776 159.566C52.1698 159.287 52.1455 158.983 52.2076 158.691C52.2697 158.399 52.4156 158.131 52.6275 157.92C52.8393 157.71 53.1079 157.566 53.4003 157.505C53.6926 157.445 53.9962 157.472 54.2737 157.582L66.8413 164.262C67.1235 164.373 67.4319 164.397 67.7279 164.333C68.0239 164.269 68.2945 164.119 68.506 163.902L79.3008 152.214C79.5153 151.995 79.7902 151.844 80.0906 151.782C80.3909 151.72 80.7029 151.749 80.9868 151.865C81.2708 151.981 81.5136 152.179 81.6844 152.434C81.8551 152.689 81.9461 152.99 81.9455 153.297Z" fill="#005082"></path><path d="M73.2043 172.328C73.227 172.131 73.1911 171.932 73.1009 171.756C73.0108 171.58 72.8706 171.434 72.6979 171.337C72.5252 171.241 72.3278 171.198 72.1306 171.213C71.9334 171.229 71.7452 171.302 71.5898 171.425C71.4343 171.547 71.3186 171.713 71.2572 171.901C71.1957 172.09 71.1914 172.292 71.2446 172.483C71.2978 172.673 71.4062 172.844 71.5562 172.973C71.7062 173.102 71.891 173.184 72.0873 173.208C72.3519 173.239 72.6177 173.163 72.827 172.998C73.0362 172.834 73.1718 172.593 73.2043 172.328Z" fill="#579BD3"></path><path d="M74.768 176.671C74.7907 176.474 74.7548 176.275 74.6647 176.099C74.5745 175.923 74.4343 175.777 74.2616 175.68C74.0889 175.584 73.8915 175.541 73.6943 175.556C73.4971 175.572 73.309 175.645 73.1535 175.768C72.9981 175.89 72.8823 176.056 72.8209 176.244C72.7595 176.433 72.7551 176.635 72.8083 176.826C72.8615 177.016 72.97 177.187 73.12 177.316C73.2699 177.445 73.4547 177.527 73.6511 177.551C73.9156 177.582 74.1814 177.506 74.3907 177.341C74.5999 177.177 74.7355 176.936 74.768 176.671Z" fill="#579BD3"></path><path d="M71.9216 180.372C71.9443 180.175 71.9083 179.976 71.8182 179.8C71.7281 179.624 71.5878 179.478 71.4151 179.381C71.2425 179.285 71.0451 179.241 70.8479 179.257C70.6507 179.273 70.4625 179.346 70.307 179.469C70.1516 179.591 70.0359 179.757 69.9744 179.945C69.913 180.134 69.9086 180.336 69.9618 180.526C70.0151 180.717 70.1235 180.888 70.2735 181.017C70.4235 181.146 70.6083 181.228 70.8046 181.252C71.0691 181.283 71.335 181.207 71.5442 181.042C71.7535 180.877 71.8891 180.636 71.9216 180.372Z" fill="#579BD3"></path><path d="M67.1655 172.963C67.1882 172.766 67.1522 172.567 67.0621 172.391C66.972 172.215 66.8317 172.069 66.6591 171.972C66.4864 171.876 66.289 171.833 66.0918 171.848C65.8946 171.864 65.7064 171.937 65.551 172.06C65.3955 172.182 65.2798 172.348 65.2184 172.536C65.1569 172.725 65.1525 172.927 65.2058 173.118C65.259 173.308 65.3674 173.479 65.5174 173.608C65.6674 173.737 65.8522 173.819 66.0485 173.843C66.3131 173.874 66.5789 173.798 66.7881 173.633C66.9974 173.469 67.133 173.228 67.1655 172.963Z" fill="#579BD3"></path><path d="M66.5097 178.518C66.5324 178.321 66.4965 178.122 66.4063 177.946C66.3162 177.77 66.176 177.624 66.0033 177.527C65.8306 177.431 65.6332 177.387 65.436 177.403C65.2388 177.419 65.0506 177.492 64.8952 177.615C64.7398 177.737 64.624 177.903 64.5626 178.091C64.5012 178.279 64.4968 178.482 64.55 178.672C64.6032 178.863 64.7116 179.034 64.8616 179.163C65.0116 179.292 65.1964 179.374 65.3928 179.398C65.6573 179.429 65.9231 179.353 66.1324 179.188C66.3416 179.023 66.4772 178.782 66.5097 178.518Z" fill="#579BD3"></path><path d="M74.6025 167.913C74.6216 167.758 74.5942 167.601 74.5239 167.462C74.4537 167.322 74.3436 167.207 74.2078 167.131C74.0719 167.054 73.9164 167.02 73.7611 167.032C73.6058 167.045 73.4576 167.103 73.3354 167.2C73.2132 167.297 73.1226 167.428 73.075 167.576C73.0274 167.725 73.025 167.884 73.0682 168.034C73.1113 168.184 73.198 168.318 73.3172 168.418C73.4365 168.519 73.5828 168.581 73.7377 168.598C73.9429 168.621 74.1487 168.561 74.3105 168.433C74.4723 168.305 74.5772 168.118 74.6025 167.913Z" fill="#579BD3"></path><path d="M73.5286 185.386C73.5475 185.231 73.5202 185.075 73.4501 184.936C73.38 184.797 73.2702 184.682 73.1348 184.605C72.9994 184.529 72.8443 184.494 72.6893 184.506C72.5342 184.518 72.3862 184.576 72.2639 184.672C72.1416 184.768 72.0505 184.898 72.0023 185.046C71.954 185.194 71.9507 185.353 71.9928 185.503C72.0348 185.653 72.1204 185.787 72.2386 185.888C72.3567 185.989 72.5022 186.053 72.6567 186.071C72.863 186.096 73.0706 186.037 73.234 185.909C73.3974 185.78 73.5034 185.592 73.5286 185.386Z" fill="#579BD3"></path><path d="M79.4161 177.818C79.4336 177.665 79.4053 177.511 79.335 177.374C79.2647 177.237 79.1555 177.124 79.0211 177.049C78.8867 176.974 78.7331 176.941 78.5798 176.953C78.4266 176.966 78.2804 177.023 78.1598 177.119C78.0392 177.215 77.9496 177.344 77.9023 177.49C77.855 177.637 77.8522 177.794 77.8941 177.942C77.936 178.09 78.0208 178.223 78.1377 178.323C78.2547 178.422 78.3987 178.485 78.5514 178.504C78.7565 178.526 78.9623 178.467 79.1241 178.338C79.2859 178.21 79.3908 178.023 79.4161 177.818Z" fill="#579BD3"></path><path d="M74.4655 189.823C74.4758 189.671 74.4412 189.519 74.3661 189.386C74.291 189.253 74.1785 189.145 74.0428 189.076C73.907 189.007 73.7539 188.979 73.6025 188.996C73.451 189.013 73.3079 189.074 73.1908 189.172C73.0737 189.269 72.9878 189.399 72.9439 189.545C72.8999 189.691 72.8997 189.847 72.9433 189.993C72.987 190.139 73.0726 190.27 73.1895 190.368C73.3063 190.466 73.4493 190.527 73.6007 190.544C73.7053 190.556 73.8112 190.547 73.912 190.517C74.0128 190.486 74.1064 190.436 74.1872 190.369C74.2681 190.301 74.3344 190.218 74.3822 190.124C74.4301 190.03 74.4584 189.928 74.4655 189.823Z" fill="#579BD3"></path><path d="M87.5807 179.052C87.5981 178.899 87.5699 178.744 87.4996 178.607C87.4293 178.47 87.32 178.357 87.1856 178.282C87.0512 178.208 86.8977 178.174 86.7444 178.187C86.5911 178.199 86.4449 178.257 86.3243 178.353C86.2038 178.448 86.1142 178.577 86.0669 178.724C86.0196 178.87 86.0167 179.028 86.0586 179.176C86.1005 179.324 86.1853 179.456 86.3023 179.556C86.4193 179.656 86.5632 179.719 86.7159 179.737C86.9211 179.76 87.1268 179.7 87.2887 179.572C87.4505 179.444 87.5554 179.257 87.5807 179.052Z" fill="#579BD3"></path><path d="M60.997 166.708C61.0073 166.556 60.9727 166.404 60.8976 166.271C60.8224 166.138 60.71 166.031 60.5743 165.961C60.4385 165.892 60.2854 165.864 60.134 165.881C59.9825 165.898 59.8394 165.959 59.7223 166.057C59.6052 166.154 59.5193 166.284 59.4753 166.431C59.4314 166.577 59.4312 166.732 59.4748 166.879C59.5185 167.025 59.6041 167.155 59.721 167.253C59.8378 167.351 59.9808 167.412 60.1322 167.429C60.2366 167.44 60.3421 167.43 60.4425 167.4C60.5429 167.369 60.6361 167.319 60.7167 167.251C60.7973 167.184 60.8636 167.102 60.9118 167.008C60.9599 166.915 60.9889 166.813 60.997 166.708Z" fill="#579BD3"></path><path d="M61.9196 180.538C61.9299 180.386 61.8954 180.234 61.8202 180.101C61.7451 179.968 61.6326 179.861 61.4969 179.791C61.3611 179.722 61.208 179.694 61.0566 179.711C60.9051 179.728 60.762 179.789 60.6449 179.887C60.5278 179.984 60.4419 180.114 60.398 180.26C60.354 180.406 60.3538 180.562 60.3975 180.708C60.4411 180.855 60.5267 180.985 60.6436 181.083C60.7604 181.181 60.9034 181.242 61.0548 181.259C61.1594 181.271 61.2653 181.262 61.3661 181.232C61.4669 181.202 61.5605 181.151 61.6413 181.084C61.7222 181.016 61.7885 180.933 61.8363 180.839C61.8842 180.746 61.9125 180.643 61.9196 180.538Z" fill="#579BD3"></path><path d="M63.8291 169.579C63.8378 169.381 63.771 169.186 63.6421 169.035C63.5133 168.884 63.332 168.787 63.1347 168.764C62.9374 168.741 62.7388 168.794 62.5788 168.912C62.4189 169.03 62.3094 169.204 62.2725 169.399C62.2525 169.505 62.2545 169.614 62.2785 169.72C62.3024 169.825 62.3478 169.924 62.4117 170.011C62.4756 170.098 62.5568 170.171 62.6501 170.225C62.7434 170.279 62.8469 170.314 62.9541 170.326C63.0612 170.339 63.1698 170.329 63.273 170.297C63.3762 170.266 63.4718 170.214 63.5539 170.144C63.636 170.073 63.7028 169.987 63.7502 169.89C63.7975 169.793 63.8244 169.687 63.8291 169.579Z" fill="#579BD3"></path><path d="M55.5492 184.563C55.5666 184.41 55.5384 184.256 55.4681 184.119C55.3978 183.982 55.2885 183.869 55.1541 183.794C55.0197 183.719 54.8662 183.686 54.7129 183.698C54.5596 183.711 54.4134 183.768 54.2929 183.864C54.1723 183.96 54.0827 184.089 54.0354 184.235C53.9881 184.382 53.9852 184.539 54.0271 184.687C54.069 184.835 54.1538 184.968 54.2708 185.068C54.3878 185.168 54.5317 185.231 54.6844 185.249C54.7862 185.261 54.8893 185.253 54.9879 185.225C55.0865 185.197 55.1787 185.15 55.259 185.086C55.3393 185.022 55.4063 184.943 55.4561 184.854C55.5059 184.764 55.5376 184.665 55.5492 184.563Z" fill="#579BD3"></path><path d="M76.2023 164.371C76.2132 164.266 76.2031 164.161 76.1725 164.06C76.142 163.96 76.0917 163.866 76.0245 163.786C75.9573 163.705 75.8747 163.638 75.7814 163.59C75.6882 163.542 75.5863 163.513 75.4817 163.505C75.3799 163.493 75.2768 163.501 75.1782 163.529C75.0796 163.557 74.9875 163.604 74.9071 163.668C74.8268 163.731 74.7598 163.81 74.71 163.9C74.6602 163.99 74.6286 164.088 74.6169 164.19C74.5969 164.296 74.5989 164.406 74.6229 164.511C74.6468 164.616 74.6922 164.715 74.7561 164.802C74.82 164.889 74.9012 164.962 74.9945 165.016C75.0878 165.071 75.1913 165.105 75.2984 165.117C75.4056 165.13 75.5142 165.12 75.6174 165.089C75.7206 165.057 75.8162 165.005 75.8983 164.935C75.9804 164.865 76.0472 164.778 76.0946 164.681C76.1419 164.584 76.1688 164.479 76.1735 164.371" fill="#579BD3"></path><path d="M78.6452 159.905C78.6555 159.753 78.6209 159.601 78.5458 159.468C78.4706 159.335 78.3582 159.228 78.2225 159.158C78.0867 159.089 77.9336 159.061 77.7821 159.078C77.6307 159.095 77.4875 159.156 77.3705 159.254C77.2534 159.352 77.1675 159.481 77.1235 159.628C77.0795 159.774 77.0794 159.929 77.123 160.076C77.1667 160.222 77.2523 160.352 77.3691 160.45C77.486 160.548 77.629 160.609 77.7804 160.627C77.885 160.638 77.9909 160.629 78.0917 160.599C78.1925 160.569 78.2861 160.518 78.367 160.451C78.4478 160.384 78.5141 160.3 78.5619 160.207C78.6098 160.113 78.6381 160.01 78.6452 159.905Z" fill="#579BD3"></path><path d="M83.5668 178.778C83.5785 178.624 83.5448 178.47 83.4698 178.335C83.3948 178.2 83.2819 178.091 83.1451 178.02C83.0082 177.949 82.8536 177.919 82.7003 177.936C82.5471 177.952 82.402 178.013 82.2832 178.112C82.1644 178.21 82.0772 178.341 82.0322 178.489C81.9873 178.636 81.9868 178.794 82.0306 178.942C82.0745 179.09 82.1609 179.221 82.279 179.32C82.3971 179.419 82.5417 179.482 82.6948 179.499C82.7998 179.511 82.906 179.502 83.0073 179.472C83.1085 179.441 83.2026 179.391 83.284 179.324C83.3654 179.257 83.4324 179.173 83.481 179.08C83.5296 178.986 83.5588 178.883 83.5668 178.778Z" fill="#579BD3"></path><path d="M75.5969 195.132C75.6072 194.98 75.5726 194.828 75.4974 194.696C75.4223 194.563 75.3099 194.455 75.1741 194.386C75.0384 194.316 74.8853 194.288 74.7338 194.305C74.5824 194.322 74.4392 194.383 74.3221 194.481C74.2051 194.579 74.1192 194.709 74.0752 194.855C74.0312 195.001 74.0311 195.157 74.0747 195.303C74.1184 195.449 74.204 195.579 74.3208 195.677C74.4377 195.775 74.5807 195.837 74.7321 195.854C74.8367 195.866 74.9425 195.856 75.0433 195.826C75.1441 195.796 75.2378 195.746 75.3186 195.678C75.3994 195.611 75.4657 195.528 75.5136 195.434C75.5614 195.34 75.5897 195.237 75.5969 195.132Z" fill="#579BD3"></path><path d="M58.1579 163.736C58.1682 163.583 58.1336 163.432 58.0585 163.299C57.9833 163.166 57.8709 163.058 57.7352 162.989C57.5994 162.92 57.4463 162.892 57.2948 162.909C57.1434 162.926 57.0002 162.987 56.8832 163.084C56.7661 163.182 56.6802 163.312 56.6362 163.458C56.5923 163.604 56.5921 163.76 56.6357 163.906C56.6794 164.052 56.765 164.182 56.8818 164.28C56.9987 164.378 57.1417 164.44 57.2931 164.457C57.3977 164.469 57.5036 164.46 57.6044 164.429C57.7052 164.399 57.7988 164.349 57.8796 164.282C57.9605 164.214 58.0268 164.131 58.0746 164.037C58.1225 163.943 58.1508 163.841 58.1579 163.736Z" fill="#579BD3"></path><path d="M58.8642 181.966C58.8833 181.811 58.856 181.654 58.7857 181.515C58.7154 181.376 58.6053 181.261 58.4695 181.184C58.3336 181.108 58.1781 181.074 58.0228 181.086C57.8674 181.098 57.7193 181.156 57.5971 181.253C57.4749 181.35 57.3843 181.481 57.3367 181.63C57.2891 181.778 57.2867 181.938 57.3299 182.088C57.373 182.237 57.4597 182.371 57.5789 182.472C57.6982 182.572 57.8445 182.635 57.9994 182.652C58.2046 182.674 58.4104 182.615 58.5722 182.486C58.734 182.358 58.8389 182.171 58.8642 181.966Z" fill="#579BD3"></path><g opacity="0.6"><path opacity="0.6" d="M347.838 171.541C347.998 168.801 347.344 166.075 345.957 163.707C344.57 161.34 342.513 159.437 340.046 158.239C337.579 157.042 334.813 156.603 332.097 156.979C329.381 157.355 326.838 158.529 324.788 160.352C322.739 162.175 321.275 164.566 320.582 167.221C319.889 169.877 319.999 172.679 320.896 175.272C321.793 177.866 323.439 180.135 325.624 181.792C327.809 183.45 330.436 184.421 333.173 184.585C334.991 184.692 336.812 184.44 338.533 183.842C340.254 183.245 341.84 182.314 343.201 181.103C344.562 179.891 345.671 178.423 346.466 176.783C347.26 175.142 347.724 173.361 347.831 171.541" fill="white"></path><path opacity="0.6" d="M340.452 163.793C340.66 163.677 340.869 163.576 341.078 163.483C341.164 163.447 341.257 163.439 341.348 163.458C341.438 163.477 341.52 163.524 341.583 163.591C342.636 164.757 343.396 166.156 343.802 167.674C343.824 167.762 343.819 167.854 343.788 167.939C343.758 168.023 343.702 168.097 343.629 168.15C343.179 168.28 342.714 168.357 342.246 168.381C341.965 168.381 341.871 168.302 341.806 168.02C341.492 166.738 340.857 165.556 339.961 164.586C339.889 164.493 339.753 164.255 339.961 164.154C340.17 164.053 340.293 163.923 340.473 163.815" fill="white"></path><path opacity="0.6" d="M342.75 169.824C342.9 169.771 343.055 169.73 343.211 169.702C343.39 169.667 343.571 169.643 343.752 169.629C343.825 169.631 343.895 169.654 343.955 169.697C344.014 169.739 344.059 169.799 344.083 169.867C344.375 170.574 344.475 171.346 344.372 172.104C344.367 172.179 344.34 172.251 344.296 172.311C344.251 172.371 344.19 172.417 344.119 172.443C343.99 172.486 343.853 172.515 343.709 172.551C343.558 172.562 343.406 172.562 343.255 172.551C343.2 172.551 343.146 172.539 343.097 172.516C343.048 172.492 343.004 172.459 342.969 172.417C342.934 172.375 342.908 172.326 342.894 172.273C342.88 172.22 342.878 172.165 342.887 172.111C342.93 171.456 342.852 170.798 342.657 170.17C342.657 170.069 342.599 169.867 342.75 169.81" fill="white"></path><path opacity="0.6" d="M138.339 195.377C138.451 193.464 137.994 191.561 137.026 189.908C136.058 188.256 134.622 186.927 132.9 186.091C131.178 185.256 129.247 184.95 127.351 185.212C125.455 185.475 123.68 186.295 122.249 187.568C120.818 188.84 119.797 190.509 119.314 192.363C118.83 194.217 118.907 196.173 119.534 197.984C120.161 199.794 121.31 201.377 122.836 202.534C124.362 203.691 126.196 204.368 128.107 204.482C130.669 204.63 133.185 203.754 135.103 202.047C137.021 200.341 138.185 197.942 138.339 195.377Z" fill="white"></path><path opacity="0.6" d="M133.18 189.974C133.319 189.889 133.467 189.816 133.619 189.757C133.677 189.733 133.742 189.726 133.803 189.739C133.865 189.752 133.922 189.784 133.965 189.829C134.704 190.64 135.235 191.618 135.514 192.679C135.531 192.74 135.529 192.804 135.508 192.863C135.488 192.922 135.45 192.974 135.399 193.011C135.085 193.102 134.761 193.156 134.433 193.17C134.232 193.17 134.167 193.119 134.124 192.924C133.906 192.023 133.465 191.192 132.841 190.508C132.783 190.443 132.69 190.277 132.841 190.212C132.992 190.147 133.079 190.046 133.201 189.974" fill="white"></path><path opacity="0.6" d="M134.787 194.165C134.893 194.13 135.001 194.101 135.111 194.079L135.478 194.028C135.53 194.028 135.581 194.044 135.623 194.073C135.666 194.103 135.698 194.145 135.716 194.194C135.914 194.688 135.983 195.224 135.918 195.752C135.915 195.804 135.897 195.854 135.866 195.897C135.835 195.939 135.793 195.971 135.745 195.99L135.45 196.07C135.344 196.077 135.238 196.077 135.132 196.07C135.095 196.069 135.058 196.061 135.024 196.044C134.991 196.028 134.961 196.005 134.937 195.976C134.913 195.948 134.895 195.914 134.886 195.878C134.876 195.842 134.874 195.804 134.88 195.767C134.908 195.309 134.855 194.85 134.722 194.41C134.722 194.346 134.678 194.201 134.787 194.158" fill="white"></path><path opacity="0.6" d="M304.701 178.532C304.701 177.352 304.352 176.198 303.697 175.217C303.042 174.236 302.111 173.471 301.022 173.02C299.934 172.568 298.735 172.45 297.579 172.68C296.423 172.91 295.361 173.479 294.528 174.313C293.694 175.147 293.127 176.21 292.897 177.368C292.667 178.525 292.785 179.725 293.236 180.815C293.687 181.905 294.451 182.837 295.431 183.492C296.411 184.148 297.563 184.498 298.742 184.498C300.322 184.498 301.838 183.869 302.956 182.75C304.074 181.632 304.701 180.114 304.701 178.532Z" fill="white"></path><path opacity="0.6" d="M284.654 160.893C284.655 160.352 284.496 159.822 284.197 159.372C283.898 158.921 283.472 158.57 282.973 158.362C282.474 158.154 281.925 158.098 281.394 158.203C280.864 158.308 280.377 158.568 279.994 158.95C279.611 159.332 279.35 159.819 279.245 160.35C279.139 160.88 279.192 161.43 279.399 161.93C279.605 162.43 279.955 162.858 280.405 163.158C280.854 163.459 281.382 163.62 281.923 163.62C282.646 163.62 283.339 163.333 283.851 162.822C284.363 162.31 284.652 161.617 284.654 160.893Z" fill="white"></path><path opacity="0.6" d="M157.342 207.064C157.342 206.066 157.046 205.089 156.492 204.259C155.938 203.428 155.15 202.781 154.228 202.399C153.306 202.017 152.292 201.917 151.314 202.111C150.335 202.306 149.436 202.787 148.731 203.494C148.025 204.2 147.545 205.1 147.35 206.079C147.156 207.059 147.256 208.074 147.637 208.997C148.019 209.92 148.666 210.708 149.495 211.263C150.325 211.818 151.3 212.114 152.298 212.114C153.636 212.114 154.919 211.582 155.865 210.635C156.811 209.688 157.342 208.404 157.342 207.064Z" fill="white"></path><path opacity="0.6" d="M141.078 219.863C141.078 219.42 140.947 218.988 140.701 218.62C140.456 218.252 140.107 217.966 139.699 217.796C139.29 217.627 138.841 217.583 138.408 217.669C137.975 217.755 137.577 217.968 137.264 218.281C136.952 218.594 136.739 218.993 136.653 219.426C136.567 219.86 136.611 220.31 136.78 220.719C136.949 221.127 137.235 221.476 137.603 221.722C137.97 221.968 138.402 222.099 138.844 222.099C139.436 222.099 140.004 221.864 140.423 221.444C140.842 221.025 141.078 220.456 141.078 219.863Z" fill="white"></path><path opacity="0.6" d="M139.291 73.9098C139.285 73.2476 139.083 72.6018 138.712 72.054C138.34 71.5061 137.815 71.0806 137.202 70.8311C136.589 70.5817 135.917 70.5193 135.268 70.652C134.62 70.7847 134.026 71.1064 133.56 71.5767C133.094 72.047 132.778 72.6448 132.651 73.2947C132.524 73.9447 132.592 74.6177 132.847 75.229C133.101 75.8403 133.531 76.3625 134.081 76.7299C134.631 77.0972 135.278 77.2933 135.94 77.2933C136.828 77.2933 137.681 76.9399 138.309 76.3107C138.937 75.6816 139.291 74.8284 139.291 73.9386" fill="white"></path><path opacity="0.6" d="M162.531 58.9691C162.529 57.5554 162.109 56.1738 161.323 54.9991C160.538 53.8243 159.422 52.9091 158.117 52.3691C156.812 51.829 155.376 51.6885 153.992 51.9652C152.607 52.2418 151.335 52.9233 150.337 53.9235C149.339 54.9236 148.659 56.1975 148.385 57.5842C148.11 58.9708 148.251 60.4079 148.792 61.7139C149.333 63.0199 150.248 64.136 151.422 64.9213C152.597 65.7066 153.977 66.1257 155.389 66.1257C156.328 66.1257 157.257 65.9405 158.124 65.5808C158.991 65.221 159.778 64.6938 160.441 64.0291C161.105 63.3645 161.631 62.5755 161.989 61.7072C162.347 60.839 162.531 59.9086 162.531 58.9691Z" fill="white"></path><path opacity="0.6" d="M346.144 58.969C346.144 58.1568 345.904 57.3628 345.453 56.6876C345.002 56.0124 344.361 55.4863 343.611 55.1758C342.862 54.8653 342.037 54.7844 341.241 54.9434C340.446 55.1024 339.715 55.4941 339.142 56.0689C338.569 56.6437 338.179 57.3758 338.022 58.1726C337.864 58.9693 337.946 59.7949 338.258 60.5449C338.569 61.2948 339.096 61.9354 339.771 62.3856C340.446 62.8358 341.24 63.0753 342.051 63.0739C342.589 63.0739 343.122 62.9677 343.619 62.7613C344.116 62.5549 344.568 62.2524 344.948 61.8712C345.328 61.4899 345.63 61.0373 345.835 60.5393C346.04 60.0413 346.145 59.5077 346.144 58.969Z" fill="white"></path><path opacity="0.6" d="M335.537 31.9731C335.537 30.9413 335.232 29.9326 334.66 29.0743C334.088 28.216 333.274 27.5465 332.323 27.1503C331.371 26.7542 330.324 26.6491 329.312 26.8483C328.301 27.0475 327.371 27.5421 326.641 28.2697C325.91 28.9973 325.411 29.9252 325.206 30.9365C325.002 31.9478 325.101 32.9971 325.491 33.952C325.882 34.9069 326.546 35.7246 327.4 36.302C328.254 36.8794 329.26 37.1905 330.291 37.1962C330.976 37.1962 331.654 37.0611 332.286 36.7985C332.919 36.5359 333.493 36.1511 333.977 35.666C334.461 35.1809 334.845 34.605 335.106 33.9714C335.368 33.3377 335.502 32.6587 335.501 31.9731" fill="white"></path><path opacity="0.6" d="M328.532 51.2425C328.532 50.8002 328.401 50.3678 328.156 50C327.911 49.6323 327.562 49.3456 327.153 49.1763C326.745 49.0071 326.296 48.9628 325.863 49.0491C325.429 49.1354 325.031 49.3484 324.719 49.6611C324.407 49.9739 324.194 50.3724 324.108 50.8062C324.021 51.2401 324.066 51.6897 324.235 52.0984C324.404 52.507 324.69 52.8563 325.057 53.1021C325.425 53.3478 325.857 53.479 326.299 53.479C326.891 53.479 327.459 53.2434 327.878 52.8239C328.297 52.4045 328.532 51.8357 328.532 51.2425Z" fill="white"></path><path opacity="0.6" d="M262.041 225.043C261.251 225.221 260.532 225.63 259.974 226.217C259.417 226.805 259.045 227.545 258.908 228.343C258.77 229.142 258.872 229.964 259.201 230.704C259.53 231.445 260.071 232.071 260.755 232.504C261.439 232.937 262.237 233.157 263.046 233.136C263.855 233.116 264.64 232.855 265.302 232.388C265.963 231.92 266.471 231.267 266.762 230.51C267.052 229.754 267.112 228.928 266.934 228.137C266.695 227.078 266.045 226.156 265.128 225.576C264.21 224.995 263.1 224.803 262.041 225.043Z" fill="white"></path><path opacity="0.6" d="M258.395 243.944C257.964 244.042 257.572 244.265 257.268 244.586C256.964 244.907 256.762 245.311 256.687 245.747C256.613 246.183 256.669 246.631 256.849 247.035C257.028 247.439 257.324 247.781 257.697 248.016C258.071 248.252 258.506 248.372 258.948 248.361C259.389 248.349 259.817 248.207 260.178 247.951C260.539 247.696 260.816 247.34 260.974 246.927C261.133 246.514 261.165 246.063 261.068 245.632C261.003 245.345 260.883 245.074 260.714 244.834C260.544 244.594 260.329 244.39 260.081 244.233C259.833 244.076 259.556 243.97 259.267 243.921C258.977 243.871 258.681 243.879 258.395 243.944Z" fill="white"></path></g><path d="M397.501 133.326L403.915 144.501C404.053 144.719 404.256 144.888 404.495 144.985C404.734 145.082 404.997 145.102 405.248 145.042L416.367 143.123C416.608 143.066 416.861 143.083 417.092 143.172C417.324 143.262 417.523 143.418 417.663 143.622C417.804 143.827 417.88 144.068 417.882 144.316C417.883 144.565 417.81 144.807 417.672 145.013L410.89 155.063C410.761 155.253 410.688 155.475 410.679 155.705C410.67 155.934 410.726 156.162 410.84 156.361L416.274 166.656C416.397 166.871 416.452 167.119 416.433 167.367C416.413 167.614 416.319 167.85 416.163 168.043C416.008 168.237 415.797 168.378 415.56 168.45C415.322 168.522 415.069 168.52 414.832 168.445L401.349 163.979C401.134 163.914 400.904 163.91 400.686 163.966C400.467 164.022 400.268 164.136 400.11 164.297L389.784 172.081C389.609 172.259 389.386 172.38 389.142 172.428C388.898 172.476 388.645 172.449 388.417 172.351C388.188 172.252 387.995 172.087 387.862 171.877C387.729 171.667 387.663 171.421 387.672 171.172L390.605 158.908C390.612 158.708 390.571 158.51 390.484 158.33C390.397 158.15 390.268 157.995 390.108 157.876L381.46 151.383C381.28 151.238 381.144 151.045 381.068 150.826C380.992 150.607 380.979 150.371 381.031 150.145C381.083 149.919 381.198 149.712 381.361 149.549C381.525 149.385 381.732 149.271 381.958 149.219L392.046 147.228C392.283 147.179 392.5 147.062 392.671 146.892C392.843 146.721 392.961 146.505 393.012 146.268L395.275 133.73C395.325 133.489 395.446 133.27 395.622 133.098C395.798 132.927 396.021 132.813 396.263 132.769C396.504 132.726 396.753 132.756 396.978 132.855C397.202 132.954 397.392 133.118 397.523 133.326" fill="#0063AD"></path><path d="M399.692 149.681C399.617 149.525 399.498 149.395 399.349 149.307C399.201 149.219 399.029 149.177 398.857 149.186C398.684 149.196 398.519 149.257 398.381 149.361C398.243 149.465 398.139 149.608 398.082 149.771C398.025 149.935 398.018 150.111 398.062 150.278C398.106 150.446 398.198 150.596 398.327 150.711C398.456 150.826 398.617 150.9 398.788 150.923C398.959 150.946 399.133 150.918 399.288 150.842C399.391 150.793 399.484 150.724 399.56 150.638C399.636 150.553 399.695 150.454 399.732 150.346C399.77 150.238 399.785 150.123 399.778 150.009C399.772 149.895 399.742 149.783 399.692 149.681Z" fill="#579BD3"></path><path d="M402.841 152.119C402.767 151.963 402.647 151.833 402.499 151.745C402.35 151.657 402.178 151.615 402.006 151.625C401.834 151.635 401.668 151.695 401.53 151.799C401.392 151.904 401.288 152.046 401.231 152.21C401.175 152.373 401.168 152.55 401.211 152.717C401.255 152.884 401.347 153.035 401.476 153.15C401.606 153.264 401.766 153.338 401.937 153.361C402.108 153.385 402.282 153.357 402.438 153.281C402.541 153.231 402.633 153.162 402.709 153.077C402.785 152.992 402.844 152.892 402.881 152.784C402.919 152.676 402.935 152.562 402.928 152.448C402.921 152.334 402.891 152.222 402.841 152.119Z" fill="#579BD3"></path><path d="M401.875 155.726C401.801 155.571 401.681 155.44 401.533 155.352C401.384 155.264 401.213 155.222 401.04 155.232C400.868 155.242 400.702 155.303 400.564 155.407C400.426 155.511 400.322 155.654 400.265 155.817C400.209 155.98 400.202 156.157 400.245 156.324C400.289 156.491 400.381 156.642 400.51 156.757C400.64 156.871 400.8 156.945 400.971 156.969C401.142 156.992 401.317 156.964 401.472 156.888C401.575 156.839 401.667 156.769 401.743 156.684C401.819 156.599 401.878 156.499 401.915 156.391C401.953 156.283 401.969 156.169 401.962 156.055C401.955 155.941 401.926 155.829 401.875 155.726Z" fill="#579BD3"></path><path d="M396.528 153.209C396.455 153.052 396.337 152.92 396.189 152.83C396.041 152.741 395.87 152.697 395.697 152.705C395.524 152.713 395.358 152.773 395.219 152.876C395.08 152.979 394.975 153.121 394.917 153.284C394.859 153.447 394.85 153.624 394.893 153.792C394.935 153.96 395.027 154.111 395.156 154.227C395.284 154.342 395.445 154.417 395.616 154.441C395.787 154.466 395.962 154.438 396.118 154.363C396.22 154.314 396.313 154.246 396.389 154.161C396.465 154.077 396.524 153.978 396.562 153.871C396.6 153.764 396.617 153.65 396.611 153.536C396.605 153.423 396.577 153.311 396.528 153.209Z" fill="#579BD3"></path><path d="M398.669 145.814C398.611 145.693 398.519 145.591 398.404 145.523C398.288 145.454 398.155 145.421 398.021 145.428C397.887 145.435 397.759 145.482 397.651 145.562C397.544 145.643 397.463 145.753 397.418 145.88C397.373 146.007 397.368 146.144 397.401 146.274C397.434 146.404 397.505 146.521 397.605 146.611C397.705 146.7 397.83 146.758 397.963 146.777C398.095 146.795 398.231 146.774 398.352 146.716C398.513 146.638 398.637 146.499 398.696 146.33C398.755 146.161 398.746 145.976 398.669 145.814Z" fill="#579BD3"></path><path d="M405.399 158.302C405.362 158.221 405.308 158.149 405.242 158.089C405.176 158.03 405.099 157.984 405.015 157.954C404.931 157.925 404.843 157.912 404.754 157.917C404.665 157.923 404.578 157.945 404.499 157.984C404.377 158.042 404.276 158.134 404.207 158.25C404.139 158.365 404.106 158.498 404.113 158.633C404.12 158.767 404.167 158.896 404.247 159.003C404.327 159.111 404.438 159.192 404.565 159.236C404.691 159.281 404.828 159.287 404.958 159.254C405.088 159.22 405.205 159.149 405.294 159.049C405.384 158.949 405.442 158.824 405.46 158.691C405.479 158.558 405.458 158.423 405.399 158.302Z" fill="#579BD3"></path><path d="M406.271 150.691C406.184 150.536 406.044 150.42 405.876 150.362C405.709 150.305 405.526 150.312 405.363 150.381C405.246 150.44 405.148 150.533 405.083 150.648C405.018 150.763 404.988 150.894 404.998 151.026C405.007 151.158 405.055 151.284 405.135 151.388C405.216 151.493 405.325 151.571 405.45 151.614C405.575 151.657 405.709 151.662 405.837 151.628C405.964 151.594 406.079 151.524 406.167 151.425C406.254 151.327 406.311 151.205 406.33 151.074C406.348 150.943 406.328 150.81 406.271 150.691Z" fill="#579BD3"></path><path d="M408.721 160.351C408.664 160.229 408.572 160.128 408.456 160.059C408.341 159.99 408.208 159.957 408.074 159.965C407.94 159.972 407.811 160.018 407.704 160.099C407.596 160.179 407.515 160.29 407.471 160.417C407.426 160.543 407.42 160.68 407.454 160.81C407.487 160.941 407.558 161.058 407.658 161.147C407.758 161.237 407.883 161.295 408.015 161.313C408.148 161.332 408.284 161.311 408.404 161.252C408.566 161.174 408.689 161.036 408.749 160.867C408.808 160.698 408.798 160.512 408.721 160.351Z" fill="#579BD3"></path><path d="M412.267 147.177C412.209 147.056 412.117 146.955 412.002 146.886C411.887 146.817 411.753 146.784 411.619 146.791C411.486 146.799 411.357 146.845 411.249 146.926C411.142 147.006 411.061 147.117 411.016 147.244C410.972 147.37 410.966 147.507 410.999 147.637C411.032 147.767 411.104 147.885 411.204 147.974C411.304 148.064 411.428 148.121 411.561 148.14C411.694 148.159 411.829 148.138 411.95 148.079C412.03 148.041 412.102 147.988 412.162 147.922C412.222 147.856 412.267 147.779 412.297 147.695C412.326 147.611 412.339 147.522 412.334 147.433C412.329 147.344 412.306 147.257 412.267 147.177Z" fill="#579BD3"></path><path d="M396.103 161.938C396.046 161.817 395.953 161.715 395.838 161.647C395.723 161.578 395.59 161.545 395.456 161.552C395.322 161.559 395.193 161.606 395.086 161.686C394.978 161.767 394.897 161.877 394.853 162.004C394.808 162.131 394.802 162.268 394.835 162.398C394.869 162.528 394.94 162.645 395.04 162.735C395.14 162.824 395.264 162.882 395.397 162.901C395.53 162.919 395.665 162.898 395.786 162.84C395.947 162.762 396.071 162.623 396.131 162.454C396.19 162.285 396.18 162.1 396.103 161.938Z" fill="#579BD3"></path><path d="M392.37 152.61C392.313 152.489 392.221 152.387 392.105 152.318C391.99 152.25 391.857 152.217 391.723 152.224C391.589 152.231 391.46 152.278 391.353 152.358C391.245 152.439 391.164 152.549 391.12 152.676C391.075 152.803 391.069 152.94 391.103 153.07C391.136 153.2 391.207 153.317 391.307 153.407C391.407 153.496 391.531 153.554 391.664 153.573C391.797 153.591 391.933 153.57 392.053 153.512C392.134 153.474 392.206 153.42 392.265 153.354C392.325 153.288 392.371 153.211 392.4 153.127C392.43 153.043 392.443 152.954 392.437 152.866C392.432 152.777 392.409 152.69 392.37 152.61Z" fill="#579BD3"></path><path d="M398.431 157.999C398.373 157.877 398.281 157.776 398.166 157.707C398.051 157.639 397.918 157.606 397.784 157.613C397.65 157.62 397.521 157.667 397.413 157.747C397.306 157.828 397.225 157.938 397.18 158.065C397.136 158.191 397.13 158.329 397.163 158.459C397.196 158.589 397.268 158.706 397.368 158.795C397.468 158.885 397.592 158.943 397.725 158.961C397.858 158.98 397.993 158.959 398.114 158.901C398.275 158.823 398.399 158.684 398.458 158.515C398.518 158.346 398.508 158.161 398.431 157.999Z" fill="#579BD3"></path><path d="M397.71 142.301C397.632 142.139 397.494 142.015 397.325 141.956C397.156 141.896 396.971 141.906 396.809 141.983C396.654 142.069 396.536 142.209 396.477 142.377C396.419 142.545 396.424 142.728 396.492 142.892C396.575 143.046 396.714 143.163 396.881 143.217C397.047 143.271 397.228 143.258 397.385 143.182C397.542 143.105 397.664 142.971 397.725 142.807C397.785 142.642 397.78 142.461 397.71 142.301Z" fill="#579BD3"></path><path d="M397.415 139.018C397.356 138.899 397.264 138.801 397.149 138.735C397.035 138.668 396.903 138.637 396.771 138.646C396.639 138.654 396.513 138.702 396.408 138.782C396.303 138.862 396.223 138.972 396.18 139.097C396.137 139.222 396.132 139.358 396.166 139.486C396.199 139.614 396.27 139.729 396.369 139.817C396.468 139.905 396.59 139.962 396.721 139.98C396.852 139.998 396.986 139.977 397.105 139.92C397.265 139.841 397.387 139.702 397.445 139.533C397.503 139.364 397.492 139.179 397.415 139.018Z" fill="#579BD3"></path><path d="M409.031 148.779C408.996 148.696 408.944 148.621 408.879 148.558C408.814 148.495 408.737 148.446 408.653 148.414C408.569 148.381 408.479 148.366 408.389 148.368C408.298 148.371 408.21 148.392 408.127 148.429C408.045 148.467 407.971 148.52 407.91 148.587C407.849 148.653 407.802 148.731 407.771 148.816C407.741 148.901 407.727 148.991 407.732 149.082C407.737 149.172 407.76 149.26 407.799 149.342C407.884 149.489 408.022 149.599 408.185 149.649C408.348 149.699 408.524 149.686 408.677 149.613C408.831 149.539 408.951 149.41 409.014 149.251C409.077 149.093 409.078 148.917 409.017 148.757" fill="#579BD3"></path><path d="M411.453 162.71C411.394 162.589 411.301 162.488 411.186 162.419C411.07 162.351 410.937 162.319 410.802 162.327C410.668 162.335 410.54 162.382 410.433 162.464C410.326 162.545 410.245 162.656 410.202 162.783C410.158 162.91 410.153 163.048 410.187 163.178C410.222 163.308 410.294 163.424 410.395 163.513C410.496 163.602 410.621 163.659 410.754 163.676C410.887 163.694 411.022 163.671 411.143 163.612C411.303 163.532 411.425 163.393 411.483 163.224C411.541 163.056 411.53 162.871 411.453 162.71Z" fill="#579BD3"></path><path d="M393.978 164.874C393.919 164.754 393.826 164.653 393.711 164.586C393.595 164.518 393.462 164.486 393.329 164.494C393.195 164.502 393.067 164.549 392.96 164.63C392.854 164.711 392.773 164.821 392.729 164.947C392.685 165.074 392.679 165.211 392.713 165.34C392.746 165.47 392.817 165.587 392.917 165.676C393.016 165.765 393.14 165.823 393.272 165.842C393.405 165.861 393.54 165.841 393.661 165.783C393.816 165.697 393.934 165.557 393.993 165.389C394.051 165.221 394.046 165.038 393.978 164.874Z" fill="#579BD3"></path><path d="M389.022 151.421C388.963 151.301 388.871 151.2 388.755 151.133C388.64 151.065 388.507 151.033 388.373 151.041C388.24 151.049 388.112 151.096 388.005 151.177C387.898 151.258 387.818 151.368 387.774 151.495C387.729 151.621 387.724 151.758 387.757 151.887C387.79 152.017 387.861 152.134 387.961 152.223C388.061 152.313 388.184 152.37 388.317 152.389C388.449 152.408 388.584 152.388 388.705 152.33C388.86 152.244 388.979 152.104 389.037 151.936C389.096 151.769 389.09 151.585 389.022 151.421Z" fill="#579BD3"></path><path d="M385.289 150.137C385.232 150.016 385.139 149.914 385.024 149.846C384.909 149.777 384.776 149.744 384.642 149.751C384.508 149.758 384.379 149.805 384.271 149.885C384.164 149.966 384.083 150.076 384.038 150.203C383.994 150.33 383.988 150.467 384.021 150.597C384.055 150.727 384.126 150.844 384.226 150.934C384.326 151.023 384.45 151.081 384.583 151.1C384.716 151.118 384.851 151.097 384.972 151.039C385.133 150.961 385.257 150.822 385.316 150.653C385.376 150.484 385.366 150.299 385.289 150.137Z" fill="#579BD3"></path><path d="M137.203 312.273L123.36 312.807C123.36 312.807 116.579 305.08 120.968 297.88C120.968 297.88 114.979 294.273 119.526 286.424C119.526 286.424 113.668 281.374 119.793 275.768C119.793 275.768 119.526 266.577 124.982 264.846C130.437 263.114 130.026 273.106 130.026 273.106C130.026 273.106 137.347 275.501 133.089 284.159C133.089 284.159 137.744 286.561 135.214 294.021C135.214 294.021 139.473 295.088 137.477 302.014C137.477 302.014 142.521 306.812 137.21 312.273" fill="#005082"></path><path d="M126.113 284.887C125.76 280.198 125.637 276.749 125.529 274.477C125.421 272.204 125.349 271.108 125.227 271.108C125.104 271.108 124.967 272.197 124.909 274.484C124.852 276.771 124.909 280.256 125.248 284.959C125.661 290.621 126.531 296.24 127.85 301.762C128.21 303.103 128.57 304.373 128.916 305.506C129.262 306.638 129.637 307.67 129.983 308.471C130.327 309.369 130.739 310.239 131.215 311.075C130.984 310.145 130.678 309.236 130.3 308.355C130.019 307.511 129.738 306.494 129.384 305.361C129.031 304.229 128.772 302.959 128.448 301.617C127.293 296.1 126.513 290.51 126.113 284.887Z" fill="#579BD3"></path><path d="M150.643 311.472C150.643 311.472 163.686 297.353 155.435 287.492C155.435 287.492 164.082 284.829 158.094 276.67C158.094 276.67 166.741 272.543 160.76 264.68C160.76 264.68 163.686 253.858 156.501 251.088C149.317 248.318 147.184 263.482 147.184 263.482C147.184 263.482 138.933 264.016 141.995 275.206C141.995 275.206 135.603 277.601 138.536 287.196C138.536 287.196 129.615 287.996 134.933 299.186C134.933 299.186 129.608 304.236 137.196 312.244L150.643 311.472Z" fill="#0063AD"></path><path d="M150.376 273.265C152.214 267.212 153.799 262.847 154.815 259.969C155.831 257.09 156.343 255.698 156.256 255.64C156.17 255.583 155.442 256.903 154.26 259.738C153.078 262.573 151.378 266.916 149.562 272.998C147.318 280.283 145.632 287.728 144.517 295.268C143.991 298.955 143.725 302.281 143.624 304.647C143.624 305.845 143.581 306.811 143.566 307.475C143.544 307.819 143.556 308.165 143.602 308.507C143.69 308.172 143.739 307.828 143.746 307.482C143.797 306.819 143.869 305.859 143.962 304.669C144.171 302.288 144.525 298.991 145.13 295.333C146.391 287.856 148.148 280.472 150.39 273.229" fill="#579BD3"></path><path d="M158.094 276.699C163.693 284.296 156.508 287.116 155.543 287.455C153.935 287.361 152.377 286.865 151.01 286.013C146.124 283.055 141.592 277.918 141.548 271.916C141.551 271.849 141.533 271.782 141.497 271.726C141.461 271.669 141.408 271.625 141.347 271.598C140.821 263.915 147.184 263.504 147.184 263.504C147.184 263.504 149.345 248.318 156.501 251.11C163.657 253.902 160.76 264.702 160.76 264.702C166.748 272.572 158.094 276.699 158.094 276.699Z" fill="#0063AD"></path><path d="M150.376 273.265C149.483 276.194 148.481 279.758 147.559 283.48C147.328 283.278 147.105 283.062 146.881 282.853C147.739 279.246 148.676 275.833 149.54 273.005C151.385 266.923 153.071 262.58 154.239 259.745C155.406 256.91 156.127 255.604 156.235 255.648C156.343 255.691 155.846 257.09 154.794 259.976C153.742 262.862 152.214 267.212 150.376 273.265Z" fill="#579BD3"></path><path d="M373.099 310.477C373.099 310.477 382.669 302.751 379.448 292.838C379.448 292.838 387.022 290.674 382.331 281.137C382.331 281.137 389.63 277.486 384.665 268.678C384.665 268.678 390.892 265.828 385.948 256.089C385.948 256.089 387.476 247.085 381.624 245.354C375.773 243.622 375.499 255.988 375.499 255.988C375.499 255.988 369.215 257.091 372.833 266.391C372.833 266.391 367.63 267.834 369.287 276.173C369.287 276.173 363.09 279.254 366.405 287.536C366.405 287.536 358.651 291.345 359.451 301.51C359.451 301.51 356.071 303.717 359.004 310.889L373.099 310.477Z" fill="#005082"></path><path d="M373.914 288.957C372.335 293.628 370.408 298.174 368.149 302.556C366.65 305.442 365.792 306.711 365.893 306.791C365.994 306.87 367.053 305.68 368.711 302.866C371.182 298.542 373.215 293.982 374.779 289.253C375.276 287.644 375.917 285.891 376.407 283.979L377.207 281.093L377.928 278.042C378.879 273.929 379.542 269.608 380.039 265.691C380.183 264.717 380.248 263.757 380.334 262.805C380.421 261.853 380.493 261.001 380.565 260.157C380.738 258.476 380.774 256.961 380.817 255.692C380.861 254.422 380.882 253.405 380.904 252.705C380.939 252.34 380.939 251.973 380.904 251.608C380.809 251.964 380.755 252.33 380.745 252.698C380.688 253.419 380.601 254.415 380.493 255.67C380.385 256.925 380.313 258.44 380.089 260.114C379.996 260.951 379.888 261.831 379.787 262.747C379.686 263.664 379.592 264.609 379.427 265.583C378.857 269.464 378.122 273.749 377.135 277.847C376.89 278.864 376.645 279.874 376.414 280.87C376.184 281.865 375.867 282.818 375.6 283.755C375.103 285.646 374.461 287.363 373.971 288.979" fill="#579BD3"></path><path d="M358.406 311.155C358.406 311.155 361.685 309.078 362.131 302.044C362.131 302.044 371.874 291.511 365.994 283.957C365.994 283.957 372.847 280.473 367.507 270.185C367.507 270.185 374.562 262.971 367.161 256.478C367.161 256.478 372.753 249.74 365.446 243.031C365.446 243.031 366.167 233.06 358.175 230.968C350.184 228.876 353.65 242.511 353.65 242.511C353.65 242.511 347.07 245.274 351.906 253.975C351.906 253.975 346.364 258.96 351.783 266.564C351.783 266.564 346.199 269.926 348.584 279.694C348.584 279.694 342.754 282.962 345.954 293.928C345.954 293.928 337.09 298.206 342.913 312.05L358.406 311.155Z" fill="#0063AD"></path><path d="M356.828 283.236C355.495 290.869 354.104 296.373 353.153 299.988C352.201 303.602 351.647 305.326 351.769 305.369C351.892 305.413 352.641 303.753 353.765 300.168C355.444 294.668 356.767 289.065 357.729 283.395C358.096 281.483 358.363 279.347 358.701 277.097C358.867 275.971 358.975 274.81 359.119 273.626C359.263 272.443 359.415 271.246 359.494 270.019C359.681 267.588 359.912 265.114 359.977 262.675C360.035 261.456 360.078 260.244 360.128 259.068C360.179 257.892 360.128 256.709 360.128 255.569C360.128 254.429 360.128 253.318 360.128 252.25C360.128 251.183 360.042 250.151 360.006 249.177C359.97 248.203 359.926 247.273 359.89 246.407C359.854 245.541 359.753 244.748 359.696 244.012C359.559 242.569 359.451 241.378 359.372 240.57C359.35 240.147 359.289 239.727 359.191 239.315C359.156 239.738 359.156 240.162 359.191 240.585C359.191 241.4 359.285 242.576 359.35 244.033C359.35 244.755 359.444 245.57 359.465 246.429C359.487 247.287 359.465 248.218 359.465 249.192C359.465 250.166 359.465 251.19 359.516 252.258C359.566 253.325 359.48 254.422 359.465 255.562C359.451 256.702 359.415 257.863 359.393 259.046C359.372 260.229 359.256 261.434 359.191 262.653C359.091 265.085 358.831 267.545 358.622 269.962C358.528 271.174 358.348 272.364 358.219 273.569C358.089 274.774 357.952 275.906 357.786 277.024C357.433 279.254 357.159 281.353 356.792 283.279" fill="#579BD3"></path><path d="M341.234 312.67C341.234 312.67 350.501 307.772 347.849 297.679C347.849 297.679 356.547 288.3 348.382 282.262C348.382 282.262 356.309 274.817 345.975 266.556C345.975 266.556 352.36 259.616 343.273 253.679C343.273 253.679 349.759 244.517 339.122 241.414C339.122 241.414 338.726 231.798 331.916 230.86C325.106 229.922 327.643 242.583 327.643 242.583C327.643 242.583 321.373 246.133 328.147 256.738C328.147 256.738 322.267 260.713 330.201 269.002C330.201 269.002 324.04 274.773 332.543 280.639C332.543 280.639 326.093 283.524 330.979 295.002C330.979 295.002 324.234 298.48 331.383 312.771L341.234 312.67Z" fill="#005082"></path><path d="M340.189 282.002C340.866 289.779 341.003 295.5 341.068 299.266C341.133 303.032 341.068 304.857 341.219 304.864C341.37 304.872 341.601 303.061 341.709 299.273C341.833 293.483 341.628 287.69 341.097 281.923C340.953 279.968 340.679 277.811 340.434 275.538C340.311 274.398 340.124 273.237 339.965 272.047C339.807 270.856 339.648 269.651 339.432 268.439C339.007 266.015 338.625 263.548 338.106 261.139C337.854 259.934 337.616 258.743 337.385 257.567C337.155 256.392 336.838 255.252 336.571 254.133C336.305 253.015 336.052 251.926 335.771 250.887C335.49 249.848 335.202 248.853 334.935 247.9C334.669 246.948 334.417 246.061 334.215 245.217C334.013 244.372 333.696 243.615 333.494 242.915L332.392 239.604C332.273 239.197 332.119 238.801 331.93 238.421C331.987 238.842 332.081 239.257 332.211 239.662C332.435 240.448 332.759 241.595 333.155 243.016C333.35 243.738 333.595 244.495 333.818 245.339C334.042 246.183 334.258 247.085 334.496 248.037C334.734 248.99 334.993 249.992 335.26 251.031C335.526 252.07 335.735 253.196 335.98 254.278C336.225 255.36 336.485 256.543 336.744 257.712C337.004 258.88 337.191 260.078 337.421 261.283C337.904 263.685 338.265 266.152 338.654 268.569C338.87 269.774 338.992 270.986 339.158 272.176C339.324 273.367 339.49 274.514 339.605 275.646C339.843 277.919 340.109 280.062 340.246 282.01" fill="#579BD3"></path><path d="M133.281 239.686C133.281 239.686 126.363 236.976 122.711 239.995C122.711 239.995 128.182 241.462 129.025 242.365C129.868 243.269 133.281 239.686 133.281 239.686Z" fill="#A9A6BD"></path><path d="M135.532 247.158C135.532 247.158 137.106 249.482 136.661 253.424C136.661 253.424 142.503 249.607 140.087 246.38C138.892 244.777 135.532 247.158 135.532 247.158Z" fill="#A9A6BD"></path><path d="M120.168 251.143C120.168 251.143 117.585 249.628 113.064 251.075C111.258 251.654 108.529 253.451 108.529 253.451C111.155 254.054 113.927 254.149 116.609 253.727C116.609 253.727 115.149 257.858 115.62 260.448C115.62 260.448 120.666 257.2 121.084 253.388C121.396 250.49 120.168 251.143 120.168 251.143Z" fill="#A9A6BD"></path><path d="M116.609 253.728C116.609 253.728 124.723 235.53 149.01 236.016C149.01 236.016 145.637 250.882 116.609 253.728Z" fill="#A6C0E3"></path><path d="M116.609 253.727C116.609 253.727 140.445 244.026 149.03 236.016C149.03 236.016 147.808 243.326 135.452 249.279C125.32 254.161 116.609 253.727 116.609 253.727Z" fill="#90A5CF"></path><path d="M144.017 243.665C144.017 243.665 140.578 245.644 137.55 242.099C135.286 239.42 138.533 237.149 138.533 237.149C138.533 237.149 142.424 235.76 149.03 236.036C149.01 236.016 147.51 241.425 144.017 243.665Z" fill="#DAD8ED"></path><path d="M143.134 239.561C143.091 239.764 142.972 239.952 142.794 240.102C142.615 240.252 142.383 240.357 142.129 240.404C141.874 240.452 141.608 240.438 141.363 240.367C141.117 240.295 140.905 240.168 140.751 240.002C140.597 239.836 140.509 239.637 140.498 239.432C140.487 239.226 140.553 239.023 140.689 238.847C140.824 238.671 141.023 238.531 141.259 238.443C141.496 238.355 141.76 238.325 142.019 238.355C142.194 238.375 142.361 238.423 142.512 238.494C142.663 238.566 142.795 238.661 142.899 238.774C143.003 238.886 143.077 239.013 143.117 239.149C143.158 239.284 143.164 239.424 143.134 239.561Z" fill="white"></path><path d="M142.47 239.477C142.449 239.579 142.39 239.674 142.301 239.749C142.212 239.824 142.097 239.877 141.969 239.901C141.842 239.925 141.708 239.919 141.586 239.884C141.463 239.848 141.356 239.785 141.279 239.701C141.201 239.618 141.157 239.519 141.152 239.416C141.146 239.313 141.179 239.211 141.247 239.123C141.314 239.035 141.414 238.965 141.532 238.921C141.651 238.877 141.783 238.862 141.912 238.877C141.999 238.887 142.083 238.911 142.158 238.947C142.234 238.982 142.299 239.03 142.351 239.086C142.403 239.141 142.44 239.205 142.461 239.272C142.481 239.339 142.484 239.409 142.47 239.477Z" fill="#90A5CF"></path><path d="M149.03 236.016L145.916 237.499L146.667 237.989L149.03 236.016Z" fill="#A9A6BD"></path><path d="M124.53 266.536C124.53 266.536 118.741 262.51 114.226 264.682C114.226 264.682 119.026 267.215 119.537 268.259C120.049 269.303 124.53 266.536 124.53 266.536Z" fill="#A9A6BD"></path><path d="M124.251 274.212C124.251 274.212 125.002 276.776 123.282 280.478C123.282 280.478 130.174 277.977 128.906 274.369C128.275 272.598 124.251 274.212 124.251 274.212Z" fill="#A9A6BD"></path><path d="M108.097 274.938C108.097 274.938 106.106 272.948 101.259 273.423C99.3201 273.617 96.0933 274.797 96.0933 274.797C98.4317 275.913 101.078 276.569 103.808 276.708C103.808 276.708 101.006 280.389 100.641 283C100.641 283 106.617 280.911 108.244 277.287C109.498 274.557 108.097 274.938 108.097 274.938Z" fill="#A9A6BD"></path><path d="M103.808 276.708C103.808 276.708 117.638 260.782 140.99 266.197C140.956 266.197 132.79 279.867 103.808 276.708Z" fill="#A6C0E3"></path><path d="M103.808 276.708C103.808 276.708 130.021 272.186 140.99 266.197C140.99 266.197 137.404 273.011 123.508 276.243C112.081 278.896 103.808 276.708 103.808 276.708Z" fill="#90A5CF"></path><path d="M133.593 272.562C133.593 272.562 129.609 273.773 127.876 269.711C126.549 266.667 130.446 265.137 130.446 265.137C130.446 265.137 134.662 264.583 140.956 266.181C140.956 266.197 137.723 271.121 133.593 272.562Z" fill="#DAD8ED"></path><path d="M134.091 268.416C133.982 268.603 133.804 268.761 133.581 268.869C133.358 268.977 133.099 269.031 132.837 269.024C132.575 269.016 132.322 268.948 132.109 268.828C131.896 268.708 131.734 268.541 131.641 268.348C131.549 268.155 131.532 267.945 131.591 267.744C131.65 267.543 131.784 267.361 131.975 267.219C132.166 267.078 132.405 266.985 132.664 266.95C132.922 266.916 133.188 266.943 133.427 267.027C133.587 267.083 133.732 267.164 133.852 267.265C133.972 267.365 134.066 267.483 134.127 267.613C134.189 267.742 134.218 267.879 134.211 268.017C134.205 268.155 134.164 268.291 134.091 268.416Z" fill="white"></path><path d="M133.48 268.207C133.426 268.301 133.338 268.38 133.227 268.434C133.116 268.489 132.987 268.516 132.856 268.513C132.725 268.51 132.598 268.477 132.491 268.417C132.385 268.357 132.303 268.274 132.256 268.178C132.209 268.082 132.199 267.977 132.228 267.877C132.257 267.776 132.323 267.685 132.417 267.614C132.512 267.542 132.631 267.495 132.76 267.477C132.889 267.459 133.022 267.471 133.142 267.513C133.222 267.54 133.295 267.58 133.356 267.63C133.417 267.681 133.464 267.74 133.496 267.804C133.527 267.869 133.542 267.938 133.54 268.007C133.537 268.076 133.517 268.144 133.48 268.207Z" fill="#90A5CF"></path><path d="M140.957 266.197L137.458 266.996L138.015 267.622L140.957 266.197Z" fill="#A9A6BD"></path><path d="M98.4371 240.574C98.4371 240.574 92.6475 236.548 88.126 238.746C88.126 238.746 92.933 241.279 93.4376 242.318C93.9422 243.357 98.4371 240.574 98.4371 240.574Z" fill="#A9A6BD"></path><path d="M98.1514 248.25C98.1514 248.25 98.9084 250.814 97.1887 254.516C97.1887 254.516 104.081 252.015 102.812 248.406C102.182 246.636 98.1514 248.25 98.1514 248.25Z" fill="#A9A6BD"></path><path d="M82.0042 248.976C82.0042 248.976 80.0124 246.986 75.1655 247.462C73.2268 247.655 70 248.835 70 248.835C72.3373 249.955 74.9841 250.614 77.7151 250.756C77.7151 250.756 74.9132 254.412 74.5481 257.022C74.5481 257.022 80.5236 254.934 82.1437 251.31C83.4052 248.589 82.0042 248.976 82.0042 248.976Z" fill="#A9A6BD"></path><path d="M77.7151 250.756C77.7151 250.756 91.5385 234.83 114.896 240.245C114.863 240.235 106.697 253.889 77.7151 250.756Z" fill="#A6C0E3"></path><path d="M77.7151 250.756C77.7151 250.756 103.928 246.234 114.896 240.245C114.896 240.245 111.311 247.059 97.4079 250.292C85.9879 252.934 77.7151 250.756 77.7151 250.756Z" fill="#90A5CF"></path><path d="M107.5 246.579C107.5 246.579 103.516 247.79 101.777 243.728C100.449 240.684 104.353 239.154 104.353 239.154C104.353 239.154 108.562 238.6 114.863 240.198C114.863 240.235 111.61 245.148 107.5 246.579Z" fill="#DAD8ED"></path><path d="M107.998 242.454C107.889 242.641 107.711 242.799 107.488 242.907C107.265 243.015 107.006 243.069 106.744 243.062C106.482 243.054 106.229 242.986 106.016 242.866C105.803 242.746 105.641 242.578 105.548 242.385C105.456 242.193 105.439 241.982 105.498 241.782C105.557 241.581 105.691 241.398 105.882 241.257C106.073 241.116 106.312 241.022 106.571 240.988C106.829 240.954 107.095 240.981 107.334 241.065C107.494 241.121 107.638 241.202 107.759 241.303C107.879 241.403 107.973 241.521 108.034 241.65C108.096 241.78 108.125 241.917 108.118 242.055C108.112 242.193 108.071 242.328 107.998 242.454Z" fill="white"></path><path d="M107.387 242.245C107.333 242.339 107.246 242.418 107.135 242.473C107.024 242.528 106.896 242.556 106.765 242.553C106.634 242.55 106.507 242.518 106.4 242.459C106.293 242.399 106.211 242.317 106.163 242.221C106.115 242.125 106.105 242.021 106.133 241.92C106.16 241.82 106.225 241.728 106.319 241.656C106.413 241.585 106.532 241.536 106.66 241.518C106.789 241.499 106.921 241.51 107.042 241.551C107.123 241.578 107.196 241.618 107.258 241.667C107.319 241.717 107.368 241.776 107.4 241.841C107.432 241.905 107.447 241.975 107.445 242.044C107.443 242.113 107.423 242.182 107.387 242.245Z" fill="#90A5CF"></path><path d="M114.856 240.235L111.357 241.034L111.922 241.66L114.856 240.235Z" fill="#A9A6BD"></path><path d="M428.174 55.0998C428.174 55.0998 424.252 49.7647 419.972 51.2665C419.972 51.2665 423.406 54.8267 423.6 56.0292C423.795 57.2317 428.174 55.0998 428.174 55.0998Z" fill="#A9A6BD"></path><path d="M426.173 63.2178C426.173 63.2178 426.215 66.0849 423.916 69.7343C423.916 69.7343 430.264 68.3166 430.033 64.2523C429.917 62.2253 426.173 63.2178 426.173 63.2178Z" fill="#A9A6BD"></path><path d="M412.489 61.0702C412.489 61.0702 411.276 58.5917 407.112 58.2242C405.442 58.0771 402.47 58.7493 402.47 58.7493C404.172 60.3581 406.236 61.5341 408.488 62.1782C408.488 62.1782 405.3 65.5914 404.371 68.3272C404.371 68.3272 409.832 67.1509 412.048 63.6012C413.749 60.9179 412.489 61.0702 412.489 61.0702Z" fill="#A9A6BD"></path><path d="M408.488 62.1833C408.488 62.1833 423.716 47.7272 442 57.7042C442 57.7042 432.023 70.7793 408.488 62.1833Z" fill="#A6C0E3"></path><path d="M408.488 62.1835C408.488 62.1835 431.472 62.1047 442 57.7043C442 57.7043 437.432 64.3102 425.055 65.2396C414.915 66.0062 408.488 62.1835 408.488 62.1835Z" fill="#90A5CF"></path><path d="M434.375 63.155C434.375 63.155 430.768 63.7221 430.238 59.0854C429.844 55.604 433.446 54.6746 433.446 54.6746C433.446 54.6746 437.122 54.8531 442 57.7044C442 57.7044 438.146 62.3516 434.375 63.155Z" fill="#DAD8ED"></path><path d="M435.746 58.8281C435.613 59.0112 435.429 59.1507 435.217 59.2292C435.005 59.3076 434.774 59.3214 434.554 59.2689C434.334 59.2164 434.134 59.0998 433.981 58.934C433.827 58.7681 433.725 58.5604 433.69 58.337C433.654 58.1137 433.685 57.8847 433.779 57.679C433.873 57.4734 434.026 57.3002 434.219 57.1814C434.411 57.0625 434.634 57.0034 434.86 57.0115C435.087 57.0195 435.305 57.0944 435.489 57.2265C435.735 57.4053 435.9 57.6741 435.948 57.9742C435.996 58.2744 435.924 58.5813 435.746 58.8281Z" fill="white"></path><path d="M435.279 58.492C435.188 58.609 435.055 58.6863 434.909 58.7076C434.762 58.7289 434.613 58.6926 434.493 58.6062C434.373 58.5199 434.29 58.3903 434.264 58.2446C434.237 58.0989 434.268 57.9485 434.349 57.8251C434.394 57.7638 434.45 57.7118 434.514 57.6722C434.578 57.6327 434.65 57.6063 434.725 57.5946C434.8 57.5828 434.876 57.586 434.949 57.604C435.023 57.6219 435.092 57.6542 435.153 57.699C435.213 57.7428 435.264 57.798 435.303 57.8615C435.342 57.9251 435.369 57.9957 435.38 58.0694C435.392 58.143 435.389 58.2182 435.372 58.2908C435.354 58.3633 435.323 58.4316 435.279 58.492Z" fill="#90A5CF"></path><path d="M442 57.7043L438.886 57.9249L439.212 58.6915L442 57.7043Z" fill="#A9A6BD"></path><path d="M379.392 58.0877C379.392 58.0877 374.808 54.0339 371.237 56.2498C371.237 56.2498 375.033 58.7966 375.438 59.8415C375.842 60.8865 379.392 58.0877 379.392 58.0877Z" fill="#A9A6BD"></path><path d="M379.166 65.8067C379.166 65.8067 379.765 68.385 378.399 72.108C378.399 72.108 383.85 69.598 382.847 65.9695C382.348 64.1789 379.166 65.8067 379.166 65.8067Z" fill="#A9A6BD"></path><path d="M366.39 66.5313C366.39 66.5313 364.815 64.5306 360.982 65.0137C359.454 65.2028 356.896 66.3948 356.896 66.3948C358.745 67.5211 360.838 68.1841 362.998 68.3271C362.998 68.3271 360.788 72.0029 360.493 74.6284C360.493 74.6284 365.219 72.528 366.506 68.889C367.498 66.148 366.39 66.5313 366.39 66.5313Z" fill="#A9A6BD"></path><path d="M362.998 68.3272C362.998 68.3272 373.936 52.3062 392.404 57.7516C392.378 57.7411 385.919 71.4778 362.998 68.3272Z" fill="#A6C0E3"></path><path d="M362.998 68.3271C362.998 68.3271 383.734 63.7797 392.404 57.7515C392.404 57.7515 389.568 64.6093 378.578 67.8597C369.541 70.5168 362.998 68.3271 362.998 68.3271Z" fill="#90A5CF"></path><path d="M386.554 64.1264C386.554 64.1264 383.404 65.3447 382.033 61.2593C380.983 58.198 384.065 56.6542 384.065 56.6542C384.065 56.6542 387.4 56.1028 392.378 57.7044C392.378 57.7411 389.81 62.6876 386.554 64.1264Z" fill="#DAD8ED"></path><path d="M386.953 59.978C386.867 60.1664 386.726 60.3249 386.55 60.4337C386.374 60.5425 386.169 60.5966 385.962 60.5893C385.755 60.5819 385.554 60.5134 385.386 60.3924C385.218 60.2714 385.089 60.1033 385.016 59.9093C384.943 59.7152 384.929 59.504 384.976 59.3021C385.023 59.1001 385.128 58.9166 385.28 58.7746C385.431 58.6326 385.62 58.5385 385.825 58.5041C386.029 58.4697 386.239 58.4965 386.428 58.5812C386.555 58.638 386.669 58.7192 386.764 58.8203C386.859 58.9214 386.933 59.0403 386.982 59.1701C387.031 59.3 387.053 59.4383 387.048 59.577C387.044 59.7156 387.011 59.8519 386.953 59.978Z" fill="white"></path><path d="M386.465 59.7628C386.422 59.8571 386.352 59.9366 386.264 59.9913C386.177 60.0461 386.074 60.0736 385.971 60.0705C385.867 60.0674 385.767 60.0337 385.683 59.9738C385.598 59.9138 385.534 59.8303 385.496 59.7336C385.459 59.637 385.452 59.5315 385.474 59.4305C385.497 59.3295 385.549 59.2374 385.624 59.1659C385.699 59.0944 385.793 59.0466 385.895 59.0286C385.997 59.0105 386.102 59.023 386.197 59.0644C386.261 59.0923 386.318 59.1326 386.366 59.1829C386.415 59.2332 386.452 59.2926 386.477 59.3576C386.502 59.4226 386.514 59.4919 386.512 59.5614C386.51 59.631 386.494 59.6995 386.465 59.7628Z" fill="#90A5CF"></path><path d="M392.378 57.7412L389.61 58.5446L390.057 59.1747L392.378 57.7412Z" fill="#A9A6BD"></path><path d="M376.11 83.2978C376.11 83.2978 368.711 80.5831 365.445 84.8732C365.445 84.8732 371.221 86.1544 372.177 87.2204C373.133 88.2863 376.11 83.2978 376.11 83.2978Z" fill="#A9A6BD"></path><path d="M379.46 92.6709C379.46 92.6709 381.387 95.4854 381.503 100.616C381.503 100.616 386.869 95.0444 383.966 91.1638C382.522 89.2262 379.46 92.6709 379.46 92.6709Z" fill="#A9A6BD"></path><path d="M364.463 99.5287C364.463 99.5287 361.633 97.8694 357.259 100.238C355.51 101.188 353 103.814 353 103.814C355.745 104.303 358.568 104.123 361.228 103.288C361.228 103.288 360.304 108.771 361.186 112.058C361.186 112.058 365.834 107.332 365.708 102.343C365.613 98.5468 364.463 99.5287 364.463 99.5287Z" fill="#A9A6BD"></path><path d="M361.229 103.262C361.229 103.262 366.847 78.9028 391.543 76.7971C391.543 76.7971 390.23 96.331 361.229 103.262Z" fill="#A6C0E3"></path><path d="M361.229 103.262C361.229 103.262 383.987 88.0816 391.543 76.7971C391.543 76.7971 391.354 86.354 379.681 95.4121C370.113 102.837 361.229 103.262 361.229 103.262Z" fill="#90A5CF"></path><path d="M387.568 87.2308C387.568 87.2308 384.365 90.1662 380.789 85.9076C378.111 82.7149 381.072 79.4278 381.072 79.4278C381.072 79.4278 384.816 77.2013 391.574 76.8022C391.543 76.797 390.776 83.9384 387.568 87.2308Z" fill="#DAD8ED"></path><path d="M386.076 82.0219C386.065 82.2915 385.973 82.5517 385.814 82.7695C385.655 82.9873 385.434 83.1529 385.181 83.2454C384.927 83.338 384.652 83.3533 384.389 83.2894C384.127 83.2256 383.89 83.0854 383.707 82.8867C383.524 82.6879 383.405 82.4395 383.363 82.1727C383.322 81.906 383.36 81.633 383.474 81.3882C383.588 81.1433 383.771 80.9377 384.002 80.7972C384.232 80.6567 384.499 80.5877 384.769 80.5988C385.131 80.6152 385.471 80.774 385.716 81.0407C385.961 81.3073 386.091 81.66 386.076 82.0219Z" fill="white"></path><path d="M385.394 81.98C385.387 82.1148 385.341 82.2447 385.261 82.3532C385.181 82.4618 385.07 82.5442 384.943 82.5899C384.817 82.6357 384.679 82.6428 384.548 82.6104C384.417 82.578 384.298 82.5074 384.207 82.4077C384.117 82.308 384.057 82.1835 384.037 82.0501C384.017 81.9167 384.037 81.7803 384.094 81.6581C384.151 81.5359 384.243 81.4334 384.359 81.3636C384.474 81.2938 384.608 81.2598 384.743 81.2658C384.832 81.2699 384.92 81.2916 385.002 81.3297C385.083 81.3678 385.156 81.4215 385.216 81.4878C385.277 81.5542 385.324 81.6318 385.354 81.7162C385.385 81.8007 385.398 81.8903 385.394 81.98Z" fill="#90A5CF"></path><path d="M391.543 76.7971L388.597 79.0603L389.427 79.6064L391.543 76.7971Z" fill="#A9A6BD"></path><defs><clipPath id="clip0"><rect width="210.611" height="265" fill="white" transform="translate(130.715 27.75)"></rect></clipPath></defs></svg>