<svg xmlns="http://www.w3.org/2000/svg" width="281" height="224" viewBox="0 0 281 224" fill="none"><path d="M90.3993 174.349C90.3993 174.349 86.1043 188.456 97.917 186.087C109.73 183.718 117.315 162.266 117.55 160.033C117.785 157.8 118.184 153.055 118.184 153.055L132.201 138.23L165.904 156.231C165.904 156.231 157.877 172.884 164.213 186.624C170.548 200.364 173.038 206.789 178.095 202.839C183.152 198.888 185.762 195.652 191.267 194.66C196.772 193.667 198.69 196.018 198.69 196.018C198.69 196.018 191.472 194.701 186.756 200.233C182.04 205.766 176.287 211.183 169.197 207.956C162.107 204.729 154.696 188.604 153.346 184.01C151.996 179.416 143.6 182.303 143.6 182.303C143.6 182.303 129.654 193.362 130.405 202.59C131.156 211.818 140.839 211.302 140.839 211.302C140.839 211.302 132.646 213.734 127.847 205.913C123.049 198.093 128.993 190.644 128.993 190.644C128.993 190.644 115.831 195.12 114.636 200.543C113.44 205.966 119.463 209.145 119.463 209.145C119.463 209.145 112.874 208.689 111.461 201.004C110.048 193.32 124.113 188.355 126.042 188.025L126.328 187.966C127.608 187.649 128.743 186.907 129.547 185.861C130.351 184.816 130.777 183.529 130.754 182.21C130.74 179.878 130.137 177.261 127.588 176.817C122.84 175.993 115.601 178.101 115.601 178.101C115.601 178.101 107.723 189.846 99.7754 189.699C91.8279 189.552 86.0903 186.891 90.3993 174.349Z" fill="#A459A3"></path><path d="M213.11 169.725C213.226 169.738 213.295 169.745 213.295 169.745C213.234 169.731 213.172 169.725 213.11 169.725Z" fill="#F15A2B"></path><path d="M213.11 169.725C213.226 169.738 213.295 169.745 213.295 169.745C213.234 169.731 213.172 169.725 213.11 169.725Z" fill="#F15A2B"></path><path d="M79.9329 134.798C79.9771 133.514 79.8514 132.229 79.5591 130.977C79.2482 133.895 79.34 136.843 79.832 139.736C79.8459 138.013 79.8866 136.326 79.9329 134.798Z" fill="#A459A3"></path><path d="M166.415 184.871C165.518 183.661 164.044 181.172 162.146 176.163C160.146 170.758 158.926 165.095 158.523 159.345L156.07 173.69L166.415 184.871Z" fill="#A459A3"></path><path d="M154.917 185.733C161.54 190.644 167.412 185.959 167.412 185.959C167.412 185.959 167.059 185.751 166.408 184.885L156.063 173.709L158.523 159.346C156.549 160.173 148.296 180.835 154.917 185.733Z" fill="#A459A3"></path><path d="M106.733 163.386L106.493 163.438L105.939 163.402C105.939 163.402 111.139 171.65 118.522 167.297C124.753 163.621 127.329 153.886 127.981 150.932C127.148 152.8 126.097 154.564 124.849 156.184C120.044 162.408 109.685 163.264 106.733 163.386Z" fill="#A459A3"></path><path d="M106.733 163.386C106.221 163.404 105.931 163.402 105.931 163.402L106.485 163.438L106.733 163.386Z" fill="#A459A3"></path><path d="M87.8731 162.601C100.691 162.646 106.47 173.69 113.398 176.172C120.327 178.654 126.419 178.184 133.634 167.654C140.849 157.123 147.67 152.328 147.67 152.328C147.67 152.328 142.614 174.357 145.866 188.04C149.118 201.724 160.911 197.26 163.9 194.632C166.89 192.005 177.131 185.184 181.327 185.12C185.523 185.057 188.771 187.578 188.771 187.578C188.972 187.716 189.164 187.866 189.347 188.027C192.646 190.939 192.879 191.592 192.902 191.692C192.886 191.369 192.512 185.739 187.3 183.368C184.11 181.916 180.48 181.766 177.182 182.948C177.182 182.948 165.091 160.316 171.784 145.918C178.477 131.519 182.151 131.239 182.904 127.614C183.656 123.99 180.637 118.628 180.637 118.628C180.637 118.628 188.002 117.595 187.331 110.312C186.66 103.029 182.697 96.3994 190.621 83.2388C198.546 70.0782 205.49 78.1634 209.609 67.0585C213.728 55.9536 206.532 48.95 205.387 41.2712C204.241 33.5924 206.419 30.7737 206.419 30.7737C206.419 30.7737 186.944 40.0926 178.078 41.4399C172.169 42.3393 165.725 43.3666 161.135 47.0478C159.643 49.4753 158.471 52.1515 159.791 53.1054C162.411 54.9999 169.497 50.5988 169.497 50.5988C169.497 50.5988 157.489 62.5984 153.449 73.1395C152.924 74.9209 152.299 76.6713 151.577 78.3823C146.339 91.0301 146.616 91.4751 143.407 93.0047C140.198 94.5343 135.784 97.9689 136.249 102.832C136.714 107.696 137.83 107.858 137.83 107.858C137.83 107.858 129.172 111.153 128.132 118.038C127.092 124.923 130.111 128.668 123.213 135.417C116.315 142.166 107.472 151.118 99.2818 150.438C91.0918 149.758 88.4776 149.907 87.1566 136.865C85.8356 123.822 82.21 119.366 73.5571 119.053C64.9043 118.739 63.1852 127.649 63.0261 131.601C62.867 135.553 63.6896 136.888 63.6896 136.888C63.6896 136.888 64.9675 124.928 71.0424 124.543C75.7515 124.246 78.6051 126.941 79.5758 130.979C79.8652 132.231 79.9881 133.515 79.9413 134.799C79.895 136.327 79.8542 138.014 79.8486 139.738C80.8717 145.771 84.0178 153.166 93.0662 155.874C109.317 160.744 122.128 149.842 124.484 147.686C126.841 145.531 130.28 140.986 130.28 140.986C130.28 140.986 130.393 145.537 127.981 150.926C127.33 153.881 124.754 163.616 118.522 167.292C111.14 171.645 105.94 163.397 105.94 163.397C105.94 163.397 101.53 158.995 95.0197 158.184C88.5097 157.373 86.5322 157.944 86.5322 157.944C86.7716 158.056 86.9144 158.104 86.9144 158.104C86.9144 158.104 80.3747 158.133 78.093 164.433C75.8113 170.732 79.1756 177.274 79.1756 177.274C79.1859 176.634 79.229 175.995 79.3045 175.359C78.6826 170.42 79.0928 162.57 87.8731 162.601ZM158.523 159.346L160.449 157.405C160.449 157.405 160.492 167.789 163.196 173.74C164.987 177.585 167.156 181.244 169.669 184.661L167.412 185.959C167.412 185.959 161.54 190.644 154.916 185.746C148.292 180.849 156.549 160.173 158.523 159.346Z" fill="#C68CBE"></path><path d="M95.0114 158.183C101.521 158.994 105.931 163.396 105.931 163.396C105.931 163.396 106.21 163.398 106.734 163.38C108.316 163.011 117.46 160.752 122.123 156.732C127.24 152.322 128.15 150.062 128.15 150.062C128.15 150.062 128.095 150.377 127.973 150.926C130.385 145.536 130.272 140.986 130.272 140.986C130.272 140.986 126.836 145.528 124.476 147.686C122.117 149.843 109.309 160.743 93.0579 155.873C84.0205 153.167 80.8634 145.77 79.8403 139.737C79.8264 144.829 80.1266 150.278 81.6216 153.126C82.6937 155.218 84.4132 156.908 86.5239 157.943C86.5239 157.943 88.5042 157.373 95.0114 158.183Z" fill="#A459A3"></path><path d="M167.411 185.959L166.408 184.885C167.061 185.738 167.411 185.959 167.411 185.959Z" fill="#A459A3"></path><path d="M180.833 186.338C180.327 186.34 179.826 186.446 179.363 186.65C179.847 186.519 180.337 186.415 180.833 186.338Z" fill="#A459A3"></path><path d="M172.824 191.201C172.824 191.201 180.417 202.86 192.695 204.4C204.973 205.94 208.234 196.063 208.045 194.014C207.856 191.965 203.982 179.12 206.759 175.865C207.232 174.526 207.994 173.309 208.99 172.298C211.229 169.985 212.629 169.733 213.107 169.728C211.78 169.658 203.565 169.611 202.226 179.077C200.768 189.377 206.632 192.746 199.964 198.503C193.296 204.259 182.052 193.827 180.395 190.554C178.738 187.282 179.362 186.658 179.362 186.658C178.093 187.312 175.048 189.534 172.824 191.201Z" fill="#A459A3"></path><path d="M170.237 193.164L172.816 191.203C171.352 192.307 170.237 193.164 170.237 193.164Z" fill="#A459A3"></path><path d="M169.486 50.5976C169.486 50.5976 162.4 54.9987 159.78 53.1042C158.46 52.1503 159.632 49.4742 161.124 47.0466C158.825 48.8897 156.988 51.3925 155.918 54.8721C153.228 63.6516 155.674 65.3381 153.439 73.1273C157.478 62.5972 169.486 50.5976 169.486 50.5976Z" fill="#A459A3"></path><path d="M180.833 186.338C183.723 186.19 188.676 187.56 188.773 187.587C186.236 185.81 182.775 186.024 180.833 186.338Z" fill="#A459A3"></path><path d="M172.825 191.201C175.049 189.534 178.093 187.312 179.363 186.65C179.826 186.446 180.327 186.34 180.833 186.338C182.775 186.024 186.236 185.81 188.773 187.587C188.773 187.587 185.526 185.051 181.329 185.129C177.131 185.206 166.891 192.016 163.902 194.641C160.913 197.265 149.13 201.739 145.868 188.049C142.605 174.358 147.672 152.337 147.672 152.337C147.672 152.337 140.848 157.134 133.636 167.662C126.424 178.19 120.327 178.654 113.4 176.181C106.474 173.708 100.692 162.66 87.875 162.61C79.0947 162.579 78.679 170.428 79.2964 175.383C79.6814 171.963 81.2432 165.105 87.5358 164.48C95.9494 163.646 100.673 172.578 102.665 175.763C105.31 179.993 113.903 184.188 123.632 180.381C133.36 176.573 141.638 160.265 141.638 160.265C141.638 160.265 143.524 163.559 142.125 176.058C140.726 188.557 144.73 201.089 153.613 200.885C162.496 200.681 170.238 193.181 170.238 193.181C170.238 193.181 171.35 192.324 172.817 191.219L172.825 191.201Z" fill="#A459A3"></path><path d="M165.977 184.767L167.045 186.155L169.658 184.666C167.144 181.248 164.976 177.59 163.184 173.744C160.492 167.795 160.438 157.409 160.438 157.409L158.523 159.346C158.927 165.093 160.147 170.754 162.146 176.158C164.044 181.172 165.077 183.558 165.977 184.767Z" fill="#A459A3"></path><path d="M206.449 182.151C206.058 180.061 206.059 177.898 206.762 175.862C203.986 179.117 207.857 191.981 208.047 194.019C208.238 196.057 204.976 205.938 192.698 204.406C180.419 202.874 173.391 190.775 173.389 190.774L172.816 191.202L170.237 193.164C170.237 193.164 178.472 209.152 197.441 206.46C216.411 203.767 207.084 185.531 206.449 182.151Z" fill="#A459A3"></path><path d="M175.17 123.716C175.17 123.716 179.205 126.374 176.159 132.88C173.113 139.387 171.999 140.59 172.062 145.288C178.586 131.511 182.162 131.187 182.904 127.614C183.657 123.99 180.637 118.629 180.637 118.629C180.637 118.629 188.003 117.595 187.331 110.312C186.66 103.029 182.697 96.3995 190.621 83.2388C198.546 70.0782 205.49 78.1635 209.609 67.0586C212.929 58.1053 208.891 51.8163 206.599 45.6888C206.599 45.6888 208.314 57.3489 203.007 61.0496C197.7 64.7503 195.584 64.4552 195.584 64.4552C195.584 64.4552 197.019 58.329 199.537 52.8359C202.054 47.3429 204.531 42.5042 204.531 42.5042C204.531 42.5042 191.044 55.8777 183.965 74.3718C176.887 92.8658 168.187 97.954 162.14 98.6295C156.094 99.305 146.832 101.512 146.832 101.512C146.832 101.512 161.331 100.057 165.322 102.9C169.313 105.742 160.827 107.501 158.213 106.486C155.598 105.471 142.868 108.656 141.405 108.421C139.942 108.186 138.396 106.249 138.396 106.249C138.396 106.249 138.046 108.967 142.304 110.676C146.562 112.386 154.948 109.023 160.222 112.062C165.495 115.101 166.752 120.715 169.782 122C171.52 122.739 173.324 123.314 175.17 123.716Z" fill="#A459A3"></path><path d="M150.836 124.081C153.134 119.17 152.338 113.944 149.057 112.409C145.776 110.873 141.253 113.61 138.955 118.521C136.656 123.432 137.453 128.658 140.734 130.194C144.015 131.729 148.538 128.992 150.836 124.081Z" fill="#A458A3"></path><path d="M149.971 124.944C151.902 120.816 150.983 116.306 147.917 114.872C144.851 113.437 140.8 115.62 138.868 119.748C136.937 123.876 137.856 128.386 140.922 129.82C143.988 131.255 148.039 129.072 149.971 124.944Z" fill="#EACDE3"></path><path d="M149.326 125.232C151.132 121.372 150.303 117.17 147.475 115.846C144.647 114.523 140.89 116.579 139.083 120.439C137.277 124.299 138.106 128.501 140.934 129.825C143.762 131.148 147.52 129.092 149.326 125.232Z" fill="#0A0A0A"></path><path d="M149.143 125.575C150.859 121.909 150.005 117.887 147.236 116.592C144.467 115.296 140.832 117.217 139.117 120.883C137.402 124.549 138.256 128.57 141.024 129.866C143.793 131.162 147.428 129.24 149.143 125.575Z" fill="#FAFDFC"></path><path d="M148.191 126.536C149.454 123.837 148.796 120.862 146.722 119.891C144.647 118.92 141.941 120.321 140.678 123.021C139.415 125.72 140.073 128.695 142.147 129.666C144.222 130.636 146.927 129.235 148.191 126.536Z" fill="#020202"></path><path opacity="0.61" d="M145.649 121.749C147.068 121.898 148.34 120.868 148.49 119.449C148.639 118.03 147.609 116.758 146.19 116.609C144.771 116.459 143.499 117.489 143.349 118.908C143.2 120.328 144.23 121.599 145.649 121.749Z" fill="#F8F9FA"></path><path d="M144.653 124.418C144.92 124.446 145.159 124.253 145.187 123.986C145.215 123.719 145.022 123.48 144.755 123.452C144.488 123.424 144.249 123.618 144.221 123.884C144.193 124.151 144.387 124.39 144.653 124.418Z" fill="#FCFDFD"></path><path d="M173.332 133.511C175.65 128.575 174.857 123.319 171.56 121.77C168.262 120.221 163.71 122.966 161.391 127.902C159.072 132.837 159.866 138.094 163.163 139.643C166.461 141.192 171.013 138.447 173.332 133.511Z" fill="#A458A3"></path><path d="M171.176 134.481C173.108 130.353 172.189 125.844 169.123 124.409C166.057 122.975 162.006 125.158 160.074 129.286C158.142 133.414 159.062 137.923 162.128 139.358C165.193 140.793 169.245 138.609 171.176 134.481Z" fill="#EACDE3"></path><path d="M170.532 134.767C172.339 130.907 171.51 126.705 168.682 125.381C165.853 124.058 162.096 126.114 160.29 129.974C158.484 133.834 159.312 138.036 162.141 139.36C164.969 140.683 168.726 138.627 170.532 134.767Z" fill="#0A0A0A"></path><path d="M170.349 135.112C172.064 131.447 171.21 127.425 168.441 126.129C165.673 124.834 162.038 126.755 160.322 130.42C158.607 134.086 159.461 138.108 162.23 139.404C164.998 140.699 168.633 138.778 170.349 135.112Z" fill="#FAFDFC"></path><path d="M170.689 135.973C171.964 133.26 171.307 130.267 169.222 129.288C167.137 128.308 164.414 129.714 163.14 132.426C161.865 135.139 162.522 138.132 164.607 139.111C166.692 140.091 169.415 138.686 170.689 135.973Z" fill="#020202"></path><path opacity="0.61" d="M166.857 131.285C168.276 131.434 169.548 130.404 169.697 128.985C169.847 127.566 168.817 126.294 167.398 126.144C165.978 125.995 164.707 127.025 164.557 128.444C164.408 129.863 165.437 131.135 166.857 131.285Z" fill="#F8F9FA"></path><path d="M165.859 133.954C166.126 133.982 166.365 133.788 166.393 133.522C166.421 133.255 166.227 133.016 165.96 132.988C165.694 132.96 165.455 133.153 165.426 133.42C165.398 133.687 165.592 133.926 165.859 133.954Z" fill="#FCFDFD"></path><path d="M147.045 137.872C147.045 137.872 148.058 140.552 150.253 141.413C152.448 142.275 154.793 141.235 154.793 141.235L153.733 142.24L152.111 142.907L150.47 142.91L148.782 142.076L147.673 140.899L147.045 137.872Z" fill="#A459A3"></path><path d="M155.885 140.884C155.504 140.16 154.397 140.144 154.397 140.144C154.743 140.278 155.045 140.502 155.272 140.794C155.088 140.982 152.161 143.836 149.456 142.334C146.663 140.784 147.205 137.545 147.233 137.378L147.271 137.365C147.673 137.281 148.091 137.325 148.466 137.491C148.466 137.491 147.661 136.734 146.884 136.989C146.106 137.245 146.093 138.347 146.093 138.347C146.28 138.064 146.515 137.815 146.787 137.613C146.708 138.526 146.699 141.293 149.251 142.712C149.395 142.792 149.545 142.863 149.698 142.924C152.311 143.98 154.903 141.732 155.462 141.197C155.567 141.593 155.583 142.007 155.507 142.41C155.507 142.41 156.267 141.608 155.885 140.884Z" fill="#71297E"></path><path d="M163.062 85.9712C165.501 86.2279 167.687 84.4585 167.944 82.0191C168.2 79.5798 166.431 77.3942 163.992 77.1376C161.552 76.8809 159.367 78.6503 159.11 81.0896C158.853 83.529 160.623 85.7145 163.062 85.9712Z" fill="#8C3995"></path><path d="M164.222 70.2261C165.288 70.3382 166.242 69.5652 166.355 68.4995C166.467 67.4338 165.694 66.479 164.628 66.3669C163.562 66.2547 162.608 67.0277 162.495 68.0934C162.383 69.1591 163.156 70.1139 164.222 70.2261Z" fill="#8C3995"></path><path d="M182.05 57.9011C183.116 58.0132 184.071 57.2402 184.183 56.1745C184.295 55.1088 183.522 54.154 182.456 54.0419C181.391 53.9297 180.436 54.7027 180.324 55.7684C180.212 56.8341 180.985 57.7889 182.05 57.9011Z" fill="#8C3995"></path><path d="M171.627 94.6819C173.42 94.8705 175.026 93.57 175.215 91.7771C175.403 89.9842 174.103 88.3778 172.31 88.1891C170.517 88.0005 168.911 89.301 168.722 91.0939C168.533 92.8868 169.834 94.4932 171.627 94.6819Z" fill="#8C3995"></path><path d="M176.063 75.706C177.856 75.8947 179.462 74.5942 179.651 72.8013C179.839 71.0084 178.539 69.402 176.746 69.2133C174.953 69.0246 173.347 70.3251 173.158 72.1181C172.969 73.911 174.27 75.5174 176.063 75.706Z" fill="#8C3995"></path><path d="M183.603 83.519C185.396 83.7076 187.002 82.4071 187.191 80.6142C187.38 78.8213 186.079 77.2149 184.286 77.0262C182.493 76.8376 180.887 78.1381 180.698 79.931C180.51 81.7239 181.81 83.3303 183.603 83.519Z" fill="#8C3995"></path><path d="M191.61 49.2805C193.403 49.4692 195.009 48.1687 195.198 46.3757C195.386 44.5828 194.086 42.9764 192.293 42.7878C190.5 42.5991 188.894 43.8996 188.705 45.6925C188.516 47.4854 189.817 49.0918 191.61 49.2805Z" fill="#8C3995"></path><path d="M172.706 58.4278C174.499 58.6164 176.106 57.3159 176.294 55.523C176.483 53.7301 175.183 52.1237 173.39 51.935C171.597 51.7464 169.99 53.0469 169.802 54.8398C169.613 56.6327 170.914 58.2391 172.706 58.4278Z" fill="#8C3995"></path><path d="M196.506 67.494C198.705 67.7253 200.675 66.1306 200.906 63.9322C201.137 61.7337 199.543 59.764 197.344 59.5326C195.146 59.3013 193.176 60.896 192.945 63.0944C192.713 65.2929 194.308 67.2626 196.506 67.494Z" fill="#8C3995"></path></svg>