<svg xmlns="http://www.w3.org/2000/svg" width="281" height="224" viewBox="0 0 281 224" fill="none"><path d="M51.0765 156.068C51.0765 156.068 57.0576 165.024 62.4015 180.983C67.7454 196.942 105.949 189.824 105.949 189.824C105.949 189.824 107.649 191.858 107.083 194.534C106.516 197.21 105.522 197.829 105.522 197.829C105.522 197.829 93.4899 196.825 91.6358 202.114C89.7817 207.404 106.5 208.095 115.765 203.62C125.031 199.145 125.187 192.578 125.187 192.578C125.187 192.578 148.352 203.001 177.539 200.146C206.727 197.29 233.098 169.349 249.975 167.289C266.852 165.229 275.098 165.333 274.994 161.217C274.89 157.1 262.639 146.914 244.308 142.067C225.978 137.22 207.039 137.228 197.362 130.123C187.686 123.019 189.678 118.234 189.678 114.411C189.678 110.589 189.91 108.04 187.169 106.688C184.428 105.336 178.174 103.827 178.174 103.827C178.174 103.827 193.038 98.6266 189.434 69.3767C185.829 40.1268 190.773 28.6067 200.863 20.0617C210.952 11.5166 216.647 13.2355 215.912 10.7442C215.176 8.25299 203.848 12.5203 198.405 16.1116C192.963 19.7028 183.843 29.4311 183.463 46.6487C183.083 63.8663 186.407 87.8867 176.902 92.3647C167.397 96.8427 162.779 96.0807 157.066 94.0004C151.353 91.92 147.028 90.989 146.102 89.2129C145.177 87.4368 141.161 82.2645 123.4 81.8771C105.639 81.4896 84.4846 79.1752 69.8908 65.5072C55.2971 51.8392 61.7826 42.6518 60.6254 40.8757C59.4682 39.0996 53.6744 41.726 46.4945 48.9839C39.3147 56.2418 27.0353 79.0582 29.1963 108.303C31.3573 137.548 40.6383 143.097 40.6383 143.097C40.6383 143.097 20.5628 149.582 24.5155 163.901C28.4682 178.219 41.7617 177.077 41.8111 173.114C41.8605 169.151 38.1705 163.901 39.1873 159.423C40.204 154.945 42.6875 154.789 44.3336 154.789C45.9797 154.789 49.9427 154.885 51.0765 156.068Z" fill="#B3CCEA"></path><path d="M100.082 168.035L63.0179 160.855L62.3496 162.967L62.555 168.948C62.555 168.948 63.3352 181.714 76.145 184.109C88.9549 186.504 98.1527 178.908 98.1527 178.908L100.082 168.035Z" fill="#963931"></path><path d="M88.4216 178.255C85.2569 175.514 79.32 178.255 79.32 178.255C79.32 178.255 78.8571 176.362 73.8383 176.435C70.7645 176.482 68.2421 177.831 66.7468 178.871C68.7648 181.212 71.7475 183.256 76.1553 184.072C81.1322 184.989 86.2651 184.532 91.0013 182.749C90.6502 181.313 89.9325 179.573 88.4216 178.255Z" fill="#BC665C"></path><path d="M256.583 166.532C269.01 165.177 275.087 164.756 274.999 161.217C274.895 157.098 262.644 146.914 244.314 142.067C225.983 137.22 207.044 137.228 197.368 130.123C187.691 123.019 189.683 118.234 189.683 114.411C189.683 110.589 189.915 108.04 187.174 106.688C184.433 105.336 178.179 103.827 178.179 103.827C178.179 103.827 193.043 98.6266 189.439 69.3767C185.835 40.1268 190.778 28.6067 200.868 20.0617C210.958 11.5166 216.653 13.2355 215.917 10.7442C215.181 8.25299 203.853 12.5203 198.41 16.1116C192.968 19.7028 183.848 29.4311 183.468 46.6487C183.089 63.8663 186.407 87.8867 176.902 92.3647C167.397 96.8427 162.779 96.0807 157.066 94.0004C151.353 91.92 147.028 90.989 146.102 89.2129C145.177 87.4368 141.161 82.2645 123.4 81.8771C105.639 81.4896 84.4846 79.1752 69.8908 65.5072C55.2971 51.8392 61.7826 42.6518 60.6254 40.8757C59.4682 39.0996 53.6744 41.726 46.4945 48.9839C44.9811 50.513 43.2414 52.7364 41.4601 55.5605C37.5386 64.5164 30.9932 82.4439 31.7214 100.886C32.7615 127.037 45.9536 142.478 45.9536 142.478L40.6383 143.097C40.6383 143.097 20.5628 149.582 24.5155 163.901C28.4682 178.219 41.7617 177.077 41.8111 173.114C32.8812 172.703 28.736 167.117 29.1235 160.632C29.511 154.146 42.5523 154.963 42.5991 154.968C43.1668 154.832 43.75 154.772 44.3336 154.789C45.5246 154.789 47.9196 154.846 49.5865 155.309H49.6099C51.9503 155.717 55.7106 156.422 55.7106 156.422L62.5575 168.93L62.3521 162.949C62.3521 162.949 67.0329 167.942 74.7563 171.184C82.4796 174.427 92.3614 174.531 92.3614 174.531C92.3614 174.531 96.6859 177.002 103.379 183.797C110.073 190.592 107.54 202.174 100.033 202.275C96.3166 202.327 93.7916 201.711 92.1715 201.074C91.9413 201.393 91.7582 201.743 91.628 202.114C89.7765 207.404 106.492 208.095 115.758 203.62C122.506 200.359 124.42 195.993 124.963 193.86C124.998 193.528 125.062 193.199 125.153 192.877C125.176 192.685 125.179 192.578 125.179 192.578L125.231 192.599C125.933 189.988 125.673 187.11 125.673 187.11C125.673 187.11 143.947 195.189 168.141 194.882C192.336 194.576 198.41 190.763 216.53 177.379C227.309 169.414 244.465 167.099 256.583 166.532Z" fill="#01416D"></path><path d="M66.4531 158.037C66.4531 158.037 67.8054 163.867 75.4897 167.032C83.174 170.196 87.535 169.934 87.535 169.934C87.535 169.934 75.6041 165.604 66.4531 158.037Z" fill="#0F4D76"></path><path d="M28.1953 154.911C28.1953 154.911 32.7513 150.123 42.0167 149.042C51.2821 147.96 55.6067 148.038 55.6067 148.038C55.6067 148.038 54.941 146.55 52.767 145.229C50.593 143.908 49.0432 144.072 49.0432 144.072C49.0432 144.072 30.8452 147.161 28.1953 154.911Z" fill="#0F4D76"></path><path d="M37.9232 101.167C37.9232 101.167 46.5047 120.395 46.6478 123.716C46.7511 125.682 46.381 127.644 45.5686 129.437C45.5686 129.437 34.137 111.283 37.9232 101.167Z" fill="#003561"></path><path d="M132.975 182.156C132.975 182.156 143.323 179.222 158.148 181.23C172.973 183.238 183.632 176.596 183.632 176.596C183.632 176.596 182.706 190.186 161.24 189.876C139.773 189.567 132.975 182.156 132.975 182.156Z" fill="#003561"></path><path d="M92.6681 120.138C92.6681 120.138 94.3168 107.936 107.907 101.167C121.497 94.3983 130.762 95.6335 130.762 95.6335C130.762 95.6335 115.113 90.0763 102.347 98.5174C89.5813 106.958 88.2421 112.622 92.6681 120.138Z" fill="#022753"></path><path d="M143.219 108.402C143.219 108.402 148.521 104.488 151.249 101.399C153.977 98.3094 154.133 97.693 154.133 97.693H161.39L152.304 93.8392C152.304 93.8392 148.882 102.532 143.219 108.402Z" fill="#022753"></path><path d="M123.4 81.864C105.642 81.4792 84.4843 79.1622 69.8906 65.4942C64.9211 60.8394 62.396 56.7072 61.1816 53.207C59.5043 55.8907 51.2999 70.3492 55.6063 89.8188C60.3937 111.439 65.449 115.043 73.5754 109.616C81.7018 104.189 102.089 86.2666 124.172 87.5122C135.828 88.1649 142.321 88.5524 145.852 88.7838C144.537 86.7191 139.903 82.2229 123.4 81.864Z" fill="#003561"></path><path d="M261.513 149.481C262.106 149.616 262.673 149.741 263.224 149.84C257.303 146.406 250.943 143.791 244.319 142.067C225.994 137.228 207.049 137.228 197.373 130.123C187.697 123.019 189.689 118.234 189.689 114.411C189.689 110.589 189.92 108.04 187.179 106.688C186.039 106.164 184.864 105.718 183.664 105.354C184.303 106.68 188.604 116.851 173.808 124.153C157.945 131.977 143.122 142.683 140.041 151.949C136.959 161.214 139.835 165.128 139.835 165.128C139.835 165.128 156.718 174.599 185.343 161.833C213.969 149.068 231.655 142.689 261.513 149.481Z" fill="#003561"></path><path d="M189.644 83.4868C189.644 83.4868 186.454 94.7077 180.072 98.3094C173.691 101.911 169.569 102.119 169.569 102.119C169.569 102.119 173.73 103.076 178.585 103.658C180.452 102.79 188.256 98.2938 189.767 83.2579L189.644 83.4868Z" fill="#43549B"></path><path d="M109.55 174.497C109.55 174.497 118.816 176.143 120.155 186.233C121.494 196.323 120.155 196.838 120.155 196.838C120.155 196.838 125.715 192.823 123.655 184.793C121.596 176.762 118.405 176.606 118.405 176.606L109.55 174.497Z" fill="#0F4D76"></path><path d="M235.412 140.049C220.101 137.043 205.478 136.078 197.368 130.123C191.85 126.074 190.128 122.78 189.665 119.982C187.007 125.094 182.202 133.051 176.403 136.864C167.496 142.733 169.712 145.77 171.152 146.543C172.593 147.315 177.381 150.703 192.411 142.99C207.442 135.277 235.672 140.317 235.672 140.317L235.412 140.049Z" fill="#022753"></path><path d="M72.6396 67.8762C72.7526 70.5745 72.529 73.2764 71.9738 75.9194C70.4318 82.8678 66.1072 87.1924 74.9098 91.0541C83.7123 94.9157 97.4245 83.0239 110.567 81.1723H110.604C97.3283 79.8981 83.4939 76.5773 72.6396 67.8762Z" fill="#022753"></path><path d="M129 166.664C129 166.664 131.47 165.504 133.093 166.664C134.081 167.4 134.767 168.47 135.023 169.675C135.023 169.675 136.489 166.911 133.556 165.166C130.623 163.421 129 166.664 129 166.664Z" fill="#231F20"></path><path d="M52 124.023C52 124.023 55.6276 123.326 57.0189 124.718C58.4101 126.109 58.4855 127.419 58.4855 127.419C58.4855 127.419 59.7988 124.486 57.7054 123.095C55.612 121.704 52 124.023 52 124.023Z" fill="#231F20"></path><circle cx="129" cy="172.651" r="4" fill="white"></circle><circle cx="52" cy="132.651" r="4" fill="white"></circle><path d="M127.982 175.488C129.516 175.488 130.76 174.245 130.76 172.711C130.76 171.177 129.516 169.934 127.982 169.934C126.449 169.934 125.205 171.177 125.205 172.711C125.205 174.245 126.449 175.488 127.982 175.488Z" fill="#231F20"></path><path d="M127.434 172.823C127.986 172.823 128.435 172.374 128.435 171.821C128.435 171.269 127.986 170.82 127.434 170.82C126.881 170.82 126.432 171.269 126.432 171.821C126.432 172.374 126.881 172.823 127.434 172.823Z" fill="white"></path><path d="M52.0933 136.377C53.5639 136.377 54.7561 135.185 54.7561 133.714C54.7561 132.244 53.5639 131.052 52.0933 131.052C50.6226 131.052 49.4304 132.244 49.4304 133.714C49.4304 135.185 50.6226 136.377 52.0933 136.377Z" fill="#231F20"></path><path d="M51.5655 133.819C52.0955 133.819 52.5251 133.389 52.5251 132.859C52.5251 132.329 52.0955 131.899 51.5655 131.899C51.0356 131.899 50.606 132.329 50.606 132.859C50.606 133.389 51.0356 133.819 51.5655 133.819Z" fill="white"></path></svg>