<svg xmlns="http://www.w3.org/2000/svg" width="281" height="224" viewBox="0 0 281 224" fill="none"><path d="M91.7954 124.692L111.603 100.153C111.603 100.153 115.044 95.2234 118.01 100.678C120.976 106.133 120.258 109.28 128.629 114.322C136.999 119.365 142.309 120.062 138.913 122.168C135.516 124.274 132.79 126.368 132.79 126.368L200.955 136.029C200.955 136.029 218.8 125.075 229.513 122.254C240.227 119.433 242.908 119.911 243.003 120.578C243.098 121.245 226.117 134.115 226.595 137.464C227.072 140.813 239.367 148.466 240.239 153.728C241.111 158.989 239.666 158.082 238.901 157.88C238.136 157.678 219.621 145.541 203.503 143.147C187.385 140.754 178.917 144.248 178.917 144.248L189.613 151.53C189.613 151.53 166.557 151.719 160.577 154.973C154.597 158.227 151.344 156.311 149.899 155.211C148.455 154.11 139.565 147.365 139.565 147.365L91.7954 124.692Z" fill="#F5C789"></path><path opacity="0.57" d="M224.157 149.127C226.63 145.633 227.716 142.477 227.9 139.689C227.167 138.832 226.684 138.075 226.595 137.464C226.524 136.954 226.859 136.221 227.485 135.346C226.153 130.458 222.255 127.187 220.203 125.751C210.764 130.013 200.964 136.029 200.964 136.029L132.791 126.368C132.791 126.368 135.516 124.262 138.913 122.159C139.221 121.982 139.499 121.755 139.734 121.489C136.985 122.675 131.429 122.972 119.218 121.785C108.703 120.756 103.767 116.743 100.4 114.041L92.4155 123.924L109.361 133.027L139.583 147.365C139.583 147.365 148.481 154.11 149.917 155.211C150.853 155.949 151.956 156.446 153.129 156.658C157.151 154.508 161.313 152.631 165.587 151.04C171.588 148.851 178.469 146.977 181.667 146.143L178.887 144.257C178.887 144.257 187.353 140.766 203.474 143.156C210.296 144.168 217.509 146.917 223.643 149.771C223.836 149.563 223.999 149.35 224.157 149.127Z" fill="#E8AD66"></path><path d="M96.2921 123.055C97.968 118.751 114.756 101.242 114.756 101.242C114.756 101.242 113.419 101.865 107.822 107.702C102.224 113.539 94.7705 123.055 94.7705 123.055C94.7705 123.055 94.7705 123.464 94.7883 123.903L95.8828 123.995C96.0104 123.749 96.1438 123.437 96.2921 123.055Z" fill="#EAA95C"></path><path d="M114.756 105.738C114.756 105.738 113.419 106.361 107.822 112.199C104.351 115.814 100.169 120.845 97.4875 124.146L98.4011 124.229C103.346 117.641 114.756 105.738 114.756 105.738Z" fill="#EAA95C"></path><path d="M116.667 107.485C116.667 107.485 115.326 108.108 109.729 113.943C106.742 117.06 103.224 121.222 100.593 124.428L101.45 124.505C106.81 117.766 116.667 107.485 116.667 107.485Z" fill="#EAA95C"></path><path d="M118.77 109.461C118.77 109.461 117.432 110.084 111.835 115.921C109.337 118.522 106.472 121.853 104.061 124.757L104.894 124.831C110.417 118.169 118.77 109.461 118.77 109.461Z" fill="#EAA95C"></path><path d="M120.683 111.694C120.683 111.694 119.345 112.317 113.748 118.155C111.79 120.192 109.595 122.684 107.593 125.06L108.436 125.137C113.825 118.849 120.683 111.694 120.683 111.694Z" fill="#EAA95C"></path><path d="M123.613 114.207C123.613 114.207 122.275 114.83 116.678 120.664C115.29 122.111 113.789 123.784 112.315 125.481L113.178 125.561C118.176 119.884 123.613 114.207 123.613 114.207Z" fill="#EAA95C"></path><path d="M126.054 115.69C126.054 115.69 124.717 116.31 119.12 122.147C118.049 123.262 116.91 124.52 115.768 125.807L116.643 125.887C121.329 120.608 126.054 115.69 126.054 115.69Z" fill="#EAA95C"></path><path d="M128.768 116.817C128.768 116.817 127.431 117.44 121.834 123.277C120.991 124.167 120.11 125.113 119.218 126.11L120.093 126.19C124.527 121.242 128.768 116.817 128.768 116.817Z" fill="#EAA95C"></path><path d="M131.094 118.439C131.094 118.439 129.753 119.059 124.159 124.885C123.69 125.371 123.21 125.884 122.723 126.415L123.592 126.495C127.57 122.111 131.094 118.439 131.094 118.439Z" fill="#EAA95C"></path><path d="M133.867 119.807C133.867 119.807 132.527 120.43 126.929 126.264L126.455 126.765L127.303 126.842C130.883 122.921 133.867 119.807 133.867 119.807Z" fill="#EAA95C"></path><path d="M136.353 120.619C136.353 120.619 135.018 121.239 129.457 127.035L130.287 127.112C133.639 123.449 136.353 120.619 136.353 120.619Z" fill="#EAA95C"></path><path d="M95.8828 123.995L94.7734 123.894C94.8387 124.763 95.0641 125.742 95.8828 123.995Z" fill="#EAA95C"></path><path d="M205.885 135.308C210.073 131.671 237.742 122.473 237.742 122.473C237.742 122.473 235.962 122.384 226.743 125.439C217.524 128.495 204.254 134.442 204.254 134.442C204.074 134.762 203.91 135.092 203.764 135.429C204.269 135.551 204.764 135.687 205.23 135.842C205.428 135.693 205.645 135.515 205.885 135.308Z" fill="#EAA95C"></path><path d="M225.132 147.508C219.363 145.218 211.577 142.762 206.707 141.279C206.41 141.557 206.114 141.818 205.817 142.062C214.715 144.067 235.455 152.286 235.455 152.286C235.455 152.286 234.167 151.091 225.132 147.508Z" fill="#EAA95C"></path><path d="M232.565 148.264C232.565 148.264 231.524 147.338 224.423 144.675C218.978 142.637 211.295 140.46 208.003 139.552C207.853 139.867 207.67 140.166 207.457 140.442C212.654 140.801 232.565 148.264 232.565 148.264Z" fill="#EAA95C"></path><path d="M208.214 138.84C216.184 139.511 226.604 141.077 226.604 141.077C226.604 141.077 225.393 140.386 217.895 139.256C214.956 138.814 211.438 138.461 208.24 138.194C208.264 138.409 208.255 138.628 208.214 138.84Z" fill="#EAA95C"></path><path d="M208.172 137.912C215.7 137.022 224.364 136.45 224.364 136.45C224.364 136.45 223.032 136.032 215.466 136.533C213.117 136.687 210.423 136.975 207.822 137.298C207.98 137.476 208.099 137.685 208.172 137.912Z" fill="#EAA95C"></path><path d="M226.411 131.903C226.411 131.903 225.029 131.707 217.655 133.487C214.567 134.228 210.901 135.311 207.677 136.322C214.659 132.982 229.187 128.056 229.187 128.056C229.187 128.056 227.793 127.996 220.609 130.429C215.863 132.036 209.759 134.629 206.158 136.201C206.666 136.405 207.139 136.686 207.561 137.034C215.27 134.575 226.411 131.903 226.411 131.903Z" fill="#EAA95C"></path><path d="M141.879 126.842C149.205 127.676 155.621 128.325 161.251 128.853C145.981 126.632 127.377 124.173 108.204 122.473C79.3911 119.916 60.1765 124.9 49.1157 129.272C52.9081 129.3 56.6967 129.518 60.4671 129.927C66.9956 127.872 92.7951 121.257 141.879 126.842Z" fill="#317987"></path><path d="M208.003 139.552L209.486 139.724C209.67 139.464 209.796 139.169 209.857 138.856C209.918 138.544 209.912 138.222 209.839 137.912C209.732 137.246 209.421 136.629 208.949 136.147C195.471 135.323 123.254 131.25 83.6743 136.287C86.1659 137.755 87.465 139.327 87.9604 140.908C106.342 138.135 151.302 133.16 208.003 139.552Z" fill="#317987"></path><path d="M208.943 136.156C207.312 134.599 203.42 134.999 194.32 133.828C188.527 133.083 176.571 131.093 161.251 128.862C155.615 128.343 149.205 127.676 141.879 126.851C92.7952 121.257 66.9958 127.872 60.4673 129.927C67.0551 130.66 74.4081 132.122 81.0345 134.955C81.938 135.338 82.8158 135.779 83.6625 136.275C123.249 131.25 195.465 135.323 208.943 136.156Z" fill="#184D55"></path><path d="M81.0343 134.97C75.7931 132.727 70.0922 131.345 64.6761 130.503C60.4137 130.538 58.7853 132.386 58.7853 132.386C58.7853 132.386 59.1976 141.371 51.5064 141.967C43.5868 142.578 43.1004 136.052 43.1004 136.052C43.1004 136.052 38.0787 137.648 35.5901 138.425C33.1015 139.202 34.1871 141.554 34.1871 141.554C35.0473 142.421 36.477 143.361 38.7609 144.295C45.2686 146.95 54.7158 146.161 54.428 147.021C54.1403 147.881 45.2686 147.881 45.2686 147.881C45.2686 147.881 72.2456 147.979 74.1588 143.865C76.072 139.751 72.4236 137.473 72.4236 137.473C72.4236 137.473 86.8776 141.436 76.2618 150.782C78.2639 150.924 80.3165 151.061 82.4076 151.188C87.1416 147.371 93.2578 140.199 81.0343 134.97Z" fill="#FFDBA3"></path><path d="M35.5902 138.41C38.0788 137.645 43.1004 136.037 43.1004 136.037C43.1004 136.037 43.5869 142.563 51.5065 141.952C59.1977 141.359 58.7854 132.371 58.7854 132.371C58.7854 132.371 60.4138 130.523 64.6761 130.488C59.5255 129.706 54.3253 129.296 49.1158 129.26C45.5499 130.671 42.0817 132.318 38.7343 134.19C37.2838 134.973 34.0952 137.179 33.3774 138.046C32.9236 138.609 32.5825 139.953 34.1872 141.554C34.1872 141.554 33.1016 139.176 35.5902 138.41Z" fill="#B3BAB2"></path><path d="M61.2295 132.193C61.2295 132.193 78.8395 133.487 83.1285 139.463C87.4175 145.44 83.7988 148.457 83.7988 148.457C83.7988 148.457 88.4853 143.316 84.4306 138.683C81.2806 135.076 71.4656 131.811 61.2295 132.193Z" fill="#EDB974"></path><path d="M49.4213 142.279C53.5199 142.279 56.8426 139.083 56.8426 135.139C56.8426 131.196 53.5199 128 49.4213 128C45.3226 128 42 131.196 42 135.139C42 139.083 45.3226 142.279 49.4213 142.279Z" fill="#FEF5F4"></path><path d="M48.8047 141.274C52.1184 141.274 54.8047 138.587 54.8047 135.274C54.8047 131.96 52.1184 129.274 48.8047 129.274C45.491 129.274 42.8047 131.96 42.8047 135.274C42.8047 138.587 45.491 141.274 48.8047 141.274Z" fill="#0D0607"></path><path d="M45.3047 138.274C46.6854 138.274 47.8047 137.154 47.8047 135.774C47.8047 134.393 46.6854 133.274 45.3047 133.274C43.924 133.274 42.8047 134.393 42.8047 135.774C42.8047 137.154 43.924 138.274 45.3047 138.274Z" fill="#FEF5F4"></path><path d="M72.4089 137.473C72.4089 137.473 76.0573 139.751 74.1441 143.865C72.2309 147.979 45.2539 147.881 45.2539 147.881C45.2539 147.881 58.7439 149.533 76.2471 150.782C86.8629 141.436 72.4089 137.473 72.4089 137.473Z" fill="#EDB974"></path><path d="M206.707 141.293L207.68 141.172C208.392 140.842 209.013 140.342 209.486 139.715L208.003 139.543C151.302 133.16 106.341 138.135 87.9485 140.902C88.4023 142.358 88.168 143.821 87.5332 145.209L88.1976 145.007C88.1976 145.007 130.16 150.782 206.707 141.293Z" fill="#82BDCE"></path><path d="M82.3928 151.189C90.0217 151.66 98.1579 152.019 106.122 152.117C135.374 152.476 184.357 144.654 193.828 143.91C199.807 143.438 204.915 142.625 207.68 141.172L206.707 141.293C130.16 150.785 88.1976 145.013 88.1976 145.013L87.5331 145.215C86.4802 147.525 84.3149 149.634 82.3928 151.189Z" fill="#A8CED9"></path><path d="M105.671 148.952C104.497 148.386 103.262 147.955 101.99 147.668C109.37 153.327 117.5 158.995 117.5 158.995C117.5 158.995 115.774 158.574 107.807 153.01C105.434 151.361 102.809 149.364 100.276 147.374C99.8174 147.329 99.357 147.307 98.8965 147.309C106.072 154.641 116.053 163.575 116.053 163.575C116.053 163.575 114.392 162.952 107.154 156.456C104.188 153.787 100.786 150.423 97.8049 147.371C97.5736 147.395 97.36 147.421 97.1613 147.454C103.687 155.575 114.136 166.734 114.136 166.734C114.136 166.734 112.532 165.969 105.882 158.883C102.773 155.569 99.1842 151.286 96.2447 147.662C96.0188 147.72 95.7969 147.792 95.5803 147.878C96.5117 155.27 104.775 164.812 111.15 166.823C117.524 168.834 118.108 166.965 118.467 161.439C118.826 155.914 111.71 151.823 105.671 148.952Z" fill="#FDC179"></path><g opacity="0.57"><path opacity="0.57" d="M106.92 149.551C106.505 149.353 106.092 149.156 105.683 148.958C104.509 148.392 103.274 147.961 102.002 147.674C103.263 148.644 104.547 149.611 105.808 150.554C106.149 150.189 106.521 149.853 106.92 149.551Z" fill="#E8AD66"></path><path opacity="0.57" d="M115.246 167.597C106.143 163.391 103.515 159.342 103.381 156.148C100.946 153.398 98.4071 150.346 96.224 147.656C95.9981 147.714 95.7761 147.786 95.5596 147.872C96.4909 155.264 104.755 164.806 111.129 166.817C112.92 167.381 114.249 167.639 115.246 167.597Z" fill="#E8AD66"></path><path opacity="0.57" d="M98.8965 147.324C100.587 149.05 102.432 150.862 104.265 152.627C104.547 152.115 104.876 151.629 105.247 151.177C103.616 149.972 101.928 148.685 100.276 147.389C99.8174 147.344 99.357 147.322 98.8965 147.324Z" fill="#E8AD66"></path><path opacity="0.57" d="M97.7931 147.383C97.5617 147.407 97.3481 147.433 97.1494 147.466C99.0388 149.818 101.258 152.428 103.458 154.944C103.541 154.426 103.682 153.919 103.88 153.434C101.83 151.47 99.7389 149.361 97.7931 147.383Z" fill="#E8AD66"></path></g><path d="M114.125 166.731C114.125 166.731 103.666 155.587 97.1495 147.451C96.7816 147.51 96.4791 147.579 96.2329 147.644C99.1724 151.269 102.758 155.552 105.87 158.865C112.52 165.966 114.125 166.731 114.125 166.731Z" fill="#EAA95C"></path><path d="M107.154 156.468C114.395 162.952 116.053 163.587 116.053 163.587C116.053 163.587 106.08 154.653 98.9054 147.336C98.505 147.336 98.1372 147.359 97.802 147.395C100.774 150.435 104.188 153.808 107.154 156.468Z" fill="#EAA95C"></path><path d="M107.807 153.022C115.774 158.586 117.5 158.995 117.5 158.995C117.5 158.995 109.37 153.315 102.002 147.656C101.433 147.528 100.856 147.435 100.276 147.377C102.809 149.376 105.443 151.372 107.807 153.022Z" fill="#EAA95C"></path><path d="M118.874 156.756L131.18 141.495C131.18 141.495 133.322 138.434 135.164 141.821C137.006 145.209 136.561 147.16 141.763 150.293C146.966 153.425 150.264 153.852 148.152 155.169C146.04 156.486 144.347 157.809 144.347 157.809L186.703 163.815C186.703 163.815 197.791 157.008 204.447 155.255C211.103 153.502 212.77 153.799 212.829 154.214C212.888 154.629 202.338 162.611 202.634 164.69C202.931 166.77 210.572 171.527 211.106 174.796C211.64 178.065 210.75 177.501 210.272 177.382C209.795 177.264 198.295 169.715 188.278 168.229C178.262 166.743 173 168.911 173 168.911L179.659 173.429C179.659 173.429 165.332 173.547 161.616 175.57C157.899 177.593 155.879 176.401 154.986 175.718C154.093 175.036 148.568 170.86 148.568 170.86L118.874 156.756Z" fill="#F5C789"></path><path opacity="0.57" d="M201.119 171.937C202.655 169.765 203.325 167.808 203.444 166.073C202.99 165.542 202.688 165.07 202.634 164.69C202.59 164.373 202.797 163.919 203.18 163.373C202.353 160.336 199.917 158.304 198.657 157.411C194.56 159.323 190.569 161.456 186.703 163.801L144.347 157.809C144.347 157.809 146.04 156.501 148.149 155.196C148.342 155.085 148.515 154.944 148.662 154.778C146.954 155.51 143.495 155.7 135.908 154.958C129.383 154.318 126.307 151.823 124.215 150.144L119.256 156.293L129.786 161.95L148.565 170.848C148.565 170.848 154.093 175.039 154.983 175.721C155.568 176.178 156.255 176.483 156.985 176.611C159.487 175.275 162.075 174.109 164.733 173.12C168.461 171.762 172.742 170.596 174.723 170.077L173.003 168.911C173.003 168.911 178.264 166.743 188.281 168.229C192.511 168.855 197.002 170.563 200.819 172.337C200.922 172.211 201.022 172.077 201.119 171.937Z" fill="#E8AD66"></path><path d="M121.667 155.733C122.709 153.063 133.14 142.177 133.14 142.177C133.14 142.177 132.307 142.563 128.831 146.191C125.354 149.818 120.715 155.733 120.715 155.733C120.715 155.733 120.715 155.985 120.715 156.258L121.403 156.32C121.492 156.169 121.576 155.976 121.667 155.733Z" fill="#EAA95C"></path><path d="M133.14 144.977C133.14 144.977 132.307 145.363 128.831 148.991C126.674 151.239 124.085 154.362 122.409 156.406L122.978 156.459C126.048 152.372 133.14 144.977 133.14 144.977Z" fill="#EAA95C"></path><path d="M134.327 146.063C134.327 146.063 133.494 146.449 130.017 150.076C128.16 152.01 125.974 154.6 124.34 156.602L124.871 156.649C128.214 152.449 134.327 146.063 134.327 146.063Z" fill="#EAA95C"></path><path d="M135.629 147.282C135.629 147.282 134.796 147.668 131.319 151.295C129.768 152.912 127.985 154.985 126.488 156.786L127.007 156.833C130.435 152.701 135.629 147.282 135.629 147.282Z" fill="#EAA95C"></path><path d="M136.816 148.679C136.816 148.679 135.985 149.065 132.506 152.692C131.29 153.959 129.934 155.507 128.682 156.984L129.207 157.032C132.559 153.125 136.816 148.679 136.816 148.679Z" fill="#EAA95C"></path><path d="M138.643 150.242C138.643 150.242 137.812 150.628 134.333 154.255C133.473 155.145 132.538 156.192 131.622 157.248L132.159 157.296C135.264 153.766 138.643 150.242 138.643 150.242Z" fill="#EAA95C"></path><path d="M140.161 151.156C140.161 151.156 139.328 151.541 135.852 155.166C135.184 155.86 134.478 156.649 133.775 157.441L134.318 157.492C137.225 154.217 140.161 151.156 140.161 151.156Z" fill="#EAA95C"></path><path d="M141.858 151.877C141.858 151.877 141.028 152.262 137.548 155.89C137.026 156.433 136.478 157.032 135.923 157.652L136.469 157.699C139.209 154.611 141.858 151.877 141.858 151.877Z" fill="#EAA95C"></path><path d="M143.291 152.867C143.291 152.867 142.46 153.256 138.981 156.88C138.684 157.177 138.388 157.503 138.091 157.833L138.631 157.883C141.102 155.139 143.291 152.867 143.291 152.867Z" fill="#EAA95C"></path><path d="M145.014 153.719C145.014 153.719 144.181 154.104 140.704 157.732L140.408 158.028L140.936 158.076C143.16 155.653 145.014 153.719 145.014 153.719Z" fill="#EAA95C"></path><path d="M146.559 154.223C146.559 154.223 145.732 154.608 142.273 158.212L142.789 158.257C144.875 155.982 146.559 154.223 146.559 154.223Z" fill="#EAA95C"></path><path d="M121.415 156.326L120.727 156.264C120.763 156.8 120.902 157.408 121.415 156.326Z" fill="#EAA95C"></path><path d="M189.764 163.35C192.368 161.089 209.56 155.377 209.56 155.377C209.56 155.377 208.457 155.32 202.738 157.225C197.019 159.129 188.765 162.819 188.765 162.819C188.655 163.018 188.556 163.223 188.468 163.433C188.782 163.507 189.088 163.593 189.379 163.688C189.482 163.59 189.613 163.48 189.764 163.35Z" fill="#EAA95C"></path><path d="M201.727 170.931C198.14 169.51 193.303 167.986 190.274 167.075C190.099 167.247 189.915 167.413 189.731 167.565C195.269 168.807 208.148 173.915 208.148 173.915C208.148 173.915 207.338 173.159 201.727 170.931Z" fill="#EAA95C"></path><path d="M206.345 171.403C206.345 171.403 205.698 170.81 201.285 169.172C197.906 167.906 193.128 166.553 191.075 165.99C190.983 166.187 190.87 166.374 190.737 166.547C193.97 166.764 206.345 171.403 206.345 171.403Z" fill="#EAA95C"></path><path d="M191.212 165.545C196.165 165.963 202.631 166.936 202.631 166.936C202.631 166.936 201.881 166.506 197.221 165.806C195.394 165.53 193.208 165.31 191.221 165.144C191.24 165.277 191.237 165.413 191.212 165.545Z" fill="#EAA95C"></path><path d="M191.185 164.969C195.866 164.414 201.246 164.059 201.246 164.059C201.246 164.059 200.422 163.801 195.717 164.112C194.258 164.21 192.585 164.388 190.971 164.587C191.07 164.698 191.143 164.828 191.188 164.969H191.185Z" fill="#EAA95C"></path><path d="M202.519 161.235C202.519 161.235 201.661 161.119 197.079 162.217C195.16 162.679 192.882 163.35 190.879 163.978C195.216 161.902 204.245 158.841 204.245 158.841C204.245 158.841 203.379 158.806 198.906 160.324C195.957 161.324 192.164 162.934 189.927 163.913C190.243 164.036 190.538 164.208 190.799 164.423C195.599 162.896 202.519 161.235 202.519 161.235Z" fill="#EAA95C"></path><path d="M149.994 158.106C154.544 158.622 158.534 159.034 162.031 159.354C152.539 157.975 140.971 156.447 129.068 155.391C111.165 153.802 99.2258 156.898 92.3533 159.615C94.7099 159.635 97.0641 159.773 99.4068 160.031C103.461 158.731 119.493 154.62 149.994 158.106Z" fill="#317987"></path><path d="M191.075 165.99L191.998 166.096C192.112 165.935 192.19 165.751 192.228 165.556C192.266 165.362 192.262 165.162 192.217 164.969C192.148 164.556 191.956 164.174 191.665 163.872C183.289 163.359 138.417 160.831 113.822 163.958C115.37 164.868 116.177 165.847 116.492 166.829C127.917 165.109 155.849 162.015 191.075 165.99Z" fill="#317987"></path><path d="M191.666 163.872C190.651 162.905 188.234 163.154 182.58 162.424C178.979 161.962 171.549 160.725 162.031 159.339C158.534 159.019 154.544 158.607 149.994 158.091C119.493 154.62 103.461 158.731 99.4067 160.016C103.5 160.478 108.071 161.368 112.197 163.148C112.759 163.386 113.305 163.661 113.831 163.97C138.417 160.831 183.289 163.359 191.666 163.872Z" fill="#184D55"></path><path d="M112.197 163.148C108.936 161.807 105.522 160.875 102.032 160.372C99.383 160.395 98.3716 161.543 98.3716 161.543C98.3716 161.543 98.6266 167.126 93.8512 167.493C88.9303 167.876 88.6278 163.821 88.6278 163.821C88.6278 163.821 85.5044 164.812 83.9591 165.287C82.4137 165.761 83.0692 167.241 83.0692 167.241C83.6061 167.778 84.493 168.365 85.9138 168.944C89.9537 170.593 95.8266 170.104 95.6457 170.637C95.4647 171.171 89.9507 171.157 89.9507 171.157C89.9507 171.157 106.715 171.216 107.905 168.659C109.094 166.102 106.825 164.687 106.825 164.687C106.825 164.687 115.809 167.149 109.213 172.957C110.456 173.046 111.731 173.129 113.03 173.209C115.982 170.86 119.781 166.39 112.197 163.148Z" fill="#FFDBA3"></path><path d="M83.9472 165.278C85.4926 164.803 88.6159 163.812 88.6159 163.812C88.6159 163.812 88.9126 167.867 93.8393 167.484C98.6148 167.117 98.3597 161.534 98.3597 161.534C98.3597 161.534 99.3712 160.387 102.02 160.363C98.8203 159.874 95.5898 159.616 92.3533 159.589C90.1401 160.466 87.9879 161.489 85.9108 162.653C85.021 163.139 83.0248 164.509 82.5798 165.043C82.2832 165.39 82.0786 166.23 83.0663 167.22C83.0663 167.22 82.4019 165.755 83.9472 165.278Z" fill="#B3BAB2"></path><path d="M99.8782 161.416C99.8782 161.416 110.823 162.22 113.493 165.933C116.162 169.647 113.908 171.521 113.908 171.521C113.908 171.521 116.821 168.327 114.303 165.447C112.339 163.207 106.241 161.178 99.8782 161.416Z" fill="#EDB974"></path><path d="M106.825 164.696C106.825 164.696 109.094 166.111 107.905 168.668C106.715 171.225 89.9507 171.157 89.9507 171.157C89.9507 171.157 98.333 172.183 109.213 172.957C115.809 167.158 106.825 164.696 106.825 164.696Z" fill="#EDB974"></path><path d="M190.274 167.069L190.868 166.995C191.305 166.792 191.688 166.487 191.983 166.105L191.06 165.998C155.835 162.024 127.897 165.109 116.465 166.841C116.72 167.731 116.629 168.685 116.21 169.51L116.646 169.377C116.646 169.377 142.712 172.966 190.274 167.069Z" fill="#82BDCE"></path><path d="M113.03 173.233C117.776 173.529 122.818 173.749 127.775 173.808C145.951 174.034 176.387 169.172 182.275 168.709C185.988 168.413 189.162 167.912 190.876 167.01L190.283 167.084C142.712 172.966 116.646 169.377 116.646 169.377L116.233 169.504C115.569 170.943 114.231 172.254 113.03 173.233Z" fill="#A8CED9"></path><path d="M127.502 171.83C126.772 171.478 126.005 171.21 125.215 171.032C129.795 174.55 134.846 178.077 134.846 178.077C134.846 178.077 133.772 177.816 128.822 174.357C127.354 173.334 125.716 172.094 124.141 170.857C123.857 170.829 123.57 170.816 123.284 170.818C127.733 175.366 133.942 180.903 133.942 180.903C133.942 180.903 132.906 180.515 128.41 176.487C126.565 174.835 124.45 172.74 122.599 170.851C122.457 170.866 122.323 170.884 122.199 170.901C126.247 175.944 132.746 182.873 132.746 182.873C132.746 182.873 131.75 182.398 127.618 177.994C125.687 175.935 123.465 173.274 121.629 171.023C121.489 171.059 121.351 171.103 121.217 171.157C121.795 175.751 126.924 181.68 130.892 182.929C134.861 184.178 135.217 183.018 135.439 179.583C135.662 176.149 131.248 173.613 127.502 171.83Z" fill="#FDC179"></path><g opacity="0.57"><path opacity="0.57" d="M128.27 172.201C128.012 172.073 127.757 171.949 127.502 171.83C126.772 171.478 126.005 171.21 125.215 171.032C125.998 171.625 126.796 172.236 127.588 172.812C127.8 172.591 128.028 172.387 128.27 172.201Z" fill="#E8AD66"></path><path opacity="0.57" d="M133.443 183.417C127.787 180.803 126.155 178.288 126.075 176.298C124.562 174.589 122.987 172.691 121.626 171.021C121.486 171.057 121.348 171.101 121.214 171.155C121.792 175.749 126.92 181.678 130.889 182.927C131.708 183.227 132.571 183.393 133.443 183.417Z" fill="#E8AD66"></path><path opacity="0.57" d="M123.284 170.818C124.334 171.889 125.482 173.016 126.621 174.111C126.797 173.796 127.002 173.498 127.232 173.221C126.217 172.474 125.156 171.673 124.141 170.866C123.856 170.835 123.57 170.819 123.284 170.818Z" fill="#E8AD66"></path><path opacity="0.57" d="M122.599 170.86C122.457 170.875 122.323 170.893 122.198 170.91C123.385 172.373 124.752 173.995 126.12 175.558C126.172 175.237 126.26 174.923 126.381 174.621C125.108 173.393 123.797 172.082 122.599 170.86Z" fill="#E8AD66"></path></g><path d="M132.746 182.876C132.746 182.876 126.247 175.953 122.198 170.904C121.97 170.943 121.783 170.985 121.629 171.026C123.456 173.277 125.687 175.938 127.618 177.996C131.749 182.401 132.746 182.876 132.746 182.876Z" fill="#EAA95C"></path><path d="M128.41 176.496C132.906 180.524 133.941 180.912 133.941 180.912C133.941 180.912 127.742 175.363 123.284 170.827C123.035 170.827 122.807 170.839 122.599 170.863C124.45 172.752 126.565 174.846 128.41 176.496Z" fill="#EAA95C"></path><path d="M128.822 174.357C133.772 177.815 134.846 178.077 134.846 178.077C134.846 178.077 129.804 174.55 125.215 171.032C124.861 170.951 124.503 170.893 124.141 170.857C125.716 172.094 127.354 173.334 128.822 174.357Z" fill="#EAA95C"></path><path d="M109.919 108.242L118.292 97.8603C118.292 97.8603 119.748 95.784 121.003 98.0827C122.258 100.381 121.955 101.725 125.494 103.849C129.032 105.973 131.278 106.275 129.842 107.165C128.407 108.055 127.253 108.945 127.253 108.945L156.078 113.032C156.078 113.032 163.621 108.399 168.153 107.207C172.685 106.014 173.815 106.213 173.857 106.498C173.898 106.782 166.717 112.222 166.919 113.637C167.121 115.052 172.32 118.291 172.682 120.516C173.044 122.74 172.442 122.355 172.119 122.275C171.795 122.194 163.965 117.057 157.149 116.046C150.332 115.034 146.752 116.511 146.752 116.511L151.284 119.584C151.284 119.584 141.535 119.664 139.005 121.041C136.475 122.417 135.101 121.607 134.496 121.141C133.891 120.676 130.127 117.825 130.127 117.825L109.919 108.242Z" fill="#F5C789"></path><path opacity="0.57" d="M165.884 118.576C166.931 117.093 167.388 115.764 167.468 114.583C167.205 114.323 167.015 113.999 166.916 113.643C166.938 113.314 167.068 113.001 167.287 112.753C166.726 110.677 165.077 109.304 164.208 108.696C161.42 109.997 158.705 111.449 156.075 113.044L127.253 108.951C127.253 108.951 128.407 108.061 129.842 107.171C129.975 107.093 130.092 106.993 130.189 106.874C129.027 107.373 126.674 107.503 121.513 106.999C117.064 106.563 114.988 104.866 113.558 103.736L110.183 107.918L117.346 111.774L130.127 117.837C130.127 117.837 133.888 120.688 134.496 121.153C134.893 121.466 135.36 121.676 135.858 121.764C137.56 120.857 139.321 120.064 141.128 119.391C143.667 118.466 146.574 117.674 147.927 117.315L146.74 116.52C146.74 116.52 150.32 115.037 157.137 116.055C160.017 116.482 163.069 117.644 165.67 118.852C165.75 118.76 165.821 118.656 165.884 118.576Z" fill="#E8AD66"></path><path d="M111.82 107.551C112.529 105.729 119.627 98.326 119.627 98.326C119.627 98.326 119.06 98.59 116.696 101.058C114.332 103.526 111.173 107.551 111.173 107.551C111.173 107.551 111.173 107.723 111.173 107.91L111.645 107.951C111.698 107.844 111.757 107.711 111.82 107.551Z" fill="#EAA95C"></path><path d="M119.627 100.227C119.627 100.227 119.06 100.491 116.696 102.959C115.228 104.49 113.46 106.616 112.324 108.001L112.713 108.034C114.801 105.261 119.627 100.227 119.627 100.227Z" fill="#EAA95C"></path><path d="M120.434 100.966C120.434 100.966 119.867 101.23 117.503 103.698C116.24 105.015 114.751 106.776 113.647 108.147L114.009 108.179C116.269 105.308 120.434 100.966 120.434 100.966Z" fill="#EAA95C"></path><path d="M121.324 101.796C121.324 101.796 120.76 102.06 118.393 104.528C117.337 105.629 116.124 107.037 115.104 108.263L115.456 108.295C117.788 105.486 121.324 101.796 121.324 101.796Z" fill="#EAA95C"></path><path d="M122.133 102.748C122.133 102.748 121.567 103.009 119.2 105.477C118.372 106.34 117.45 107.393 116.598 108.399L116.954 108.432C119.232 105.771 122.133 102.748 122.133 102.748Z" fill="#EAA95C"></path><path d="M123.373 103.825C123.373 103.825 122.807 104.089 120.44 106.557C119.846 107.168 119.218 107.877 118.595 108.595L118.96 108.627C121.074 106.198 123.373 103.825 123.373 103.825Z" fill="#EAA95C"></path><path d="M124.405 104.433C124.405 104.433 123.839 104.694 121.472 107.162C121.021 107.634 120.537 108.165 120.054 108.71L120.425 108.743C122.406 106.515 124.405 104.433 124.405 104.433Z" fill="#EAA95C"></path><path d="M125.544 104.914C125.544 104.914 124.978 105.175 122.611 107.643C122.255 108.013 121.881 108.42 121.504 108.844L121.875 108.877C123.765 106.791 125.544 104.914 125.544 104.914Z" fill="#EAA95C"></path><path d="M126.535 105.605C126.535 105.605 125.968 105.866 123.604 108.334C123.406 108.541 123.201 108.758 123.011 108.983L123.379 109.016C125.046 107.153 126.535 105.605 126.535 105.605Z" fill="#EAA95C"></path><path d="M127.709 106.177C127.709 106.177 127.143 106.438 124.776 108.906L124.574 109.12L124.933 109.152C126.434 107.494 127.709 106.177 127.709 106.177Z" fill="#EAA95C"></path><path d="M128.759 106.521C128.759 106.521 128.196 106.782 125.844 109.235L126.194 109.265C127.62 107.717 128.759 106.521 128.759 106.521Z" fill="#EAA95C"></path><path d="M111.651 107.951L111.179 107.91C111.206 108.274 111.307 108.687 111.651 107.951Z" fill="#EAA95C"></path><path d="M158.172 112.724C159.951 111.184 171.644 107.296 171.644 107.296C171.644 107.296 170.882 107.266 166.981 108.571C163.081 109.876 157.472 112.368 157.472 112.368C157.472 112.368 157.359 112.569 157.264 112.786C157.478 112.839 157.688 112.896 157.884 112.961C157.967 112.896 158.059 112.819 158.172 112.724Z" fill="#EAA95C"></path><path d="M166.299 117.891C163.861 116.924 160.568 115.886 158.507 115.263C158.388 115.381 158.264 115.491 158.139 115.595C161.906 116.44 170.671 119.917 170.671 119.917C170.671 119.917 170.119 119.406 166.299 117.891Z" fill="#EAA95C"></path><path d="M169.443 118.211C169.443 118.211 169.004 117.819 165.999 116.692C163.701 115.829 160.45 114.913 159.053 114.527C158.989 114.662 158.912 114.789 158.821 114.907C161.025 115.055 169.443 118.211 169.443 118.211Z" fill="#EAA95C"></path><path d="M159.148 114.224C162.517 114.521 166.919 115.171 166.919 115.171C166.919 115.171 166.406 114.874 163.235 114.402C161.992 114.216 160.503 114.064 159.154 113.952C159.165 114.042 159.163 114.134 159.148 114.224Z" fill="#EAA95C"></path><path d="M159.127 113.833C162.312 113.456 165.976 113.213 165.976 113.213C165.976 113.213 165.412 113.038 162.212 113.249C161.218 113.314 160.079 113.438 158.979 113.572C159.046 113.647 159.097 113.736 159.127 113.833Z" fill="#EAA95C"></path><path d="M166.842 111.291C166.842 111.291 166.249 111.214 163.137 111.961C161.832 112.258 160.281 112.732 158.919 113.148C161.885 111.736 168.013 109.651 168.013 109.651C168.013 109.651 167.42 109.627 164.389 110.656C162.381 111.335 159.8 112.436 158.279 113.097C158.493 113.184 158.693 113.303 158.872 113.45C162.132 112.427 166.842 111.291 166.842 111.291Z" fill="#EAA95C"></path><path d="M131.097 109.164C134.193 109.517 136.907 109.796 139.286 110.016C132.832 109.075 124.963 108.034 116.856 107.316C104.671 106.237 96.5472 108.343 91.8696 110.191C93.4741 110.204 95.0768 110.298 96.6718 110.472C99.4422 109.588 110.343 106.791 131.097 109.164Z" fill="#317987"></path><path d="M159.062 114.527L159.69 114.598C159.767 114.488 159.82 114.363 159.846 114.231C159.871 114.099 159.869 113.964 159.839 113.833C159.793 113.551 159.661 113.29 159.462 113.085C153.764 112.738 123.228 111.009 106.49 113.145C107.543 113.765 108.091 114.432 108.299 115.099C116.07 113.928 135.08 111.834 159.062 114.527Z" fill="#317987"></path><path d="M159.453 113.085C158.765 112.427 157.119 112.596 153.272 112.101C150.822 111.786 145.764 110.944 139.286 110.004C136.913 109.784 134.194 109.505 131.097 109.152C110.334 106.779 99.4304 109.588 96.6719 110.46C99.4571 110.772 102.569 111.389 105.369 112.587C105.751 112.75 106.122 112.936 106.481 113.145C123.219 111.015 153.755 112.738 159.453 113.085Z" fill="#184D55"></path><path d="M105.374 112.587C103.155 111.676 100.832 111.041 98.4574 110.698C96.654 110.698 95.9659 111.496 95.9659 111.496C95.9659 111.496 96.1409 115.295 92.887 115.544C89.5412 115.805 89.3276 113.047 89.3276 113.047C89.3276 113.047 87.2039 113.72 86.1509 114.044C85.0979 114.367 85.5577 115.372 85.5577 115.372C86.1205 115.881 86.7775 116.275 87.4916 116.532C90.2471 117.653 94.2336 117.321 94.1031 117.686C93.9726 118.051 90.2471 118.063 90.2471 118.063C90.2471 118.063 101.655 118.104 102.465 116.363C102.697 115.901 102.75 115.37 102.614 114.871C102.478 114.373 102.163 113.942 101.729 113.661C101.729 113.661 107.842 115.337 103.355 119.297C104.201 119.356 105.067 119.413 105.953 119.469C107.952 117.831 110.536 114.8 105.374 112.587Z" fill="#FFDBA3"></path><path d="M86.1509 114.044C87.2039 113.72 89.3276 113.047 89.3276 113.047C89.3276 113.047 89.5352 115.805 92.887 115.544C96.1497 115.295 95.9658 111.496 95.9658 111.496C95.9658 111.496 96.654 110.713 98.4574 110.698C96.2786 110.368 94.0791 110.194 91.8755 110.179C90.3709 110.775 88.9065 111.469 87.4916 112.255C86.8776 112.587 85.531 113.519 85.2284 113.883C85.0297 114.121 84.8843 114.687 85.5577 115.366C85.5577 115.366 85.1009 114.367 86.1509 114.044Z" fill="#B3BAB2"></path><path d="M96.9922 111.416C96.9922 111.416 104.44 111.961 106.264 114.503C108.089 117.045 106.561 118.306 106.561 118.306C106.561 118.306 108.542 116.132 106.828 114.174C105.472 112.632 101.323 111.241 96.9922 111.416Z" fill="#EDB974"></path><path d="M101.72 113.646C102.154 113.927 102.47 114.358 102.605 114.856C102.741 115.355 102.688 115.886 102.456 116.348C101.646 118.089 90.2473 118.063 90.2473 118.063C90.2473 118.063 95.9512 118.763 103.355 119.291C107.834 115.322 101.72 113.646 101.72 113.646Z" fill="#EDB974"></path><path d="M158.507 115.263L158.922 115.212C159.221 115.071 159.481 114.86 159.682 114.598L159.062 114.527C135.08 111.834 116.07 113.928 108.29 115.096C108.465 115.704 108.402 116.355 108.115 116.918L108.397 116.832C108.397 116.832 126.137 119.276 158.507 115.263Z" fill="#82BDCE"></path><path d="M105.944 119.448C109.168 119.647 112.609 119.798 115.976 119.839C128.344 119.991 149.057 116.683 153.052 116.369C155.579 116.17 157.739 115.826 158.91 115.212L158.495 115.263C126.138 119.276 108.397 116.835 108.397 116.835L108.115 116.921C107.67 117.897 106.76 118.789 105.944 119.448Z" fill="#A8CED9"></path><path d="M115.792 118.502C115.295 118.261 114.773 118.079 114.234 117.959C117.349 120.353 120.79 122.752 120.79 122.752C120.79 122.752 120.057 122.574 116.69 120.222C115.688 119.525 114.576 118.68 113.505 117.849C113.308 117.829 113.11 117.82 112.912 117.822C115.946 120.916 120.164 124.692 120.164 124.692C120.164 124.692 119.461 124.428 116.4 121.687C115.142 120.563 113.706 119.136 112.446 117.831C112.348 117.831 112.256 117.852 112.173 117.867C114.929 121.302 119.351 126.012 119.351 126.012C119.351 126.012 118.675 125.689 115.86 122.693C114.546 121.293 113.03 119.48 111.787 117.947C111.692 117.97 111.597 118 111.506 118.036C111.9 121.162 115.388 125.196 118.087 126.045C120.787 126.893 121.033 126.104 121.184 123.77C121.335 121.435 118.34 119.715 115.792 118.502Z" fill="#FDC179"></path><g opacity="0.57"><path opacity="0.57" d="M116.314 118.754L115.792 118.502C115.295 118.261 114.773 118.079 114.234 117.959C114.768 118.368 115.311 118.778 115.845 119.175C115.99 119.023 116.147 118.882 116.314 118.754Z" fill="#E8AD66"></path><path opacity="0.57" d="M119.834 126.386C115.978 124.607 114.875 122.895 114.822 121.546C113.792 120.383 112.719 119.093 111.796 117.957C111.7 117.98 111.606 118.01 111.514 118.046C111.909 121.172 115.397 125.206 118.096 126.054C118.654 126.259 119.241 126.372 119.834 126.386Z" fill="#E8AD66"></path><path opacity="0.57" d="M112.92 117.814C113.635 118.543 114.403 119.297 115.192 120.056C115.31 119.838 115.449 119.632 115.608 119.442C114.917 118.932 114.202 118.389 113.505 117.84C113.311 117.82 113.116 117.811 112.92 117.814Z" fill="#E8AD66"></path><path opacity="0.57" d="M112.455 117.837C112.357 117.837 112.265 117.858 112.182 117.873C112.983 118.866 113.92 119.97 114.851 121.035C114.886 120.816 114.946 120.602 115.029 120.397C114.16 119.566 113.27 118.674 112.455 117.837Z" fill="#E8AD66"></path></g><path d="M119.36 126.018C119.36 126.018 114.937 121.308 112.197 117.873C112.066 117.892 111.938 117.92 111.811 117.956C113.054 119.486 114.57 121.299 115.884 122.702C118.684 125.695 119.36 126.018 119.36 126.018Z" fill="#EAA95C"></path><path d="M116.409 121.678C119.47 124.419 120.173 124.683 120.173 124.683C120.173 124.683 115.955 120.907 112.921 117.813C112.765 117.813 112.61 117.821 112.455 117.837C113.715 119.127 115.163 120.554 116.409 121.678Z" fill="#EAA95C"></path><path d="M116.69 120.222C120.057 122.574 120.799 122.752 120.799 122.752C120.799 122.752 117.358 120.353 114.243 117.959C114.003 117.903 113.759 117.863 113.514 117.84C114.57 118.68 115.688 119.525 116.69 120.222Z" fill="#EAA95C"></path><path d="M92.5 167.658C94.9853 167.658 97 165.72 97 163.329C97 160.938 94.9853 159 92.5 159C90.0147 159 88 160.938 88 163.329C88 165.72 90.0147 167.658 92.5 167.658Z" fill="#FEF5F4"></path><path d="M92.1262 167.049C94.1355 167.049 95.7644 165.42 95.7644 163.41C95.7644 161.401 94.1355 159.772 92.1262 159.772C90.1169 159.772 88.488 161.401 88.488 163.41C88.488 165.42 90.1169 167.049 92.1262 167.049Z" fill="#0D0607"></path><path d="M90.0039 165.23C90.8412 165.23 91.5199 164.551 91.5199 163.714C91.5199 162.877 90.8412 162.198 90.0039 162.198C89.1667 162.198 88.488 162.877 88.488 163.714C88.488 164.551 89.1667 165.23 90.0039 165.23Z" fill="#FEF5F4"></path><path d="M92.1381 116.038C93.8713 116.038 95.2763 114.686 95.2763 113.019C95.2763 111.352 93.8713 110 92.1381 110C90.405 110 89 111.352 89 113.019C89 114.686 90.405 116.038 92.1381 116.038Z" fill="#FEF5F4"></path><path d="M91.8775 115.613C93.2787 115.613 94.4146 114.477 94.4146 113.076C94.4146 111.674 93.2787 110.539 91.8775 110.539C90.4762 110.539 89.3403 111.674 89.3403 113.076C89.3403 114.477 90.4762 115.613 91.8775 115.613Z" fill="#0D0607"></path><path d="M90.3975 114.344C90.9813 114.344 91.4546 113.871 91.4546 113.287C91.4546 112.703 90.9813 112.23 90.3975 112.23C89.8136 112.23 89.3403 112.703 89.3403 113.287C89.3403 113.871 89.8136 114.344 90.3975 114.344Z" fill="#FEF5F4"></path></svg>