<svg xmlns="http://www.w3.org/2000/svg" width="281" height="224" viewBox="0 0 281 224" fill="none"><path d="M124.366 184.76C124.366 184.76 122.883 183.687 119.876 182.546C120.565 182.948 121.251 183.319 121.911 183.635C122.865 184.092 123.685 184.46 124.366 184.76Z" fill="#E82C2B"></path><path d="M155.326 118.119L157.226 116.508L151.443 115.369L154.511 113.616L148.374 113.09L150.741 111.513L146.447 112.039L148.288 110.198L144.909 109.147L146.008 107.569L138.999 108.095L146.624 104.151H140.664L144.909 101.083L140.577 100.997L146.624 96.877L140.487 96.9664L143.818 94.7738L137.509 94.8632L140.84 92.7599L135.229 93.6354L141.366 90.4806C141.366 90.4806 129.798 91.7951 116.39 99.506C115.296 100.134 114.274 100.778 113.301 101.428C117.899 105.408 128.799 111.155 154.248 117.833L155.326 118.119Z" fill="#E94540"></path><path d="M124.366 184.76C123.678 184.46 122.865 184.092 121.911 183.635C121.251 183.319 120.565 182.948 119.876 182.546C116.014 181.079 109.636 179.494 100.642 179.904C101.778 181.405 103.332 183.322 105.435 185.688C111.613 192.655 120.859 194.8 120.859 194.8L118.23 192.129L124.803 193.969L122.392 191.251L125.896 191.472L122.392 188.798H128.964L123.925 186.148L127.605 185.951C127.605 185.951 126.714 185.767 124.366 184.752V184.76Z" fill="#E82C2B"></path><path d="M148.953 179.355C149.656 179.916 150.401 180.423 151.18 180.874C155.825 183.548 165.245 183.766 165.245 183.766L160.032 178.947L171.423 180.614L166.473 175.774L174.754 177.746L169.627 173.736L179.158 174.851L173.834 171.17L179.473 171.433L177.777 169.33L184.219 170.119L183.167 168.147L187.045 167.621L185.664 166.175L188.951 165.912L187.439 164.401L191.58 163.481L188.054 162.032C188.054 162.032 162.193 177.351 148.953 179.355Z" fill="#E94540"></path><path d="M256.977 178.992L251.193 175.837L255.071 175.377L248.761 170.447L252.376 169.724L245.869 166.11L250.536 165.058L242.188 161.312L244.817 160.26L239.757 157.368L242.386 156.974L235.419 154.082H241.268C241.465 154.082 231.344 151.913 231.344 151.913L237.982 150.598L234.236 149.678L236.996 147.443L233.776 146.918L244.686 143.237L238.574 142.448L246.395 139.096L241.728 138.242L247.709 136.665L244.094 135.219L252.113 131.669L250.01 131.932L255.531 127.66H252.705L260 121.942C260 121.942 254.216 124.308 236.93 132.524C228.904 136.339 221.856 139.911 216.608 142.646C216.608 142.646 225.733 150.062 216.608 164.132C216.542 164.232 216.477 164.324 216.414 164.422C218.283 165.342 220.31 166.328 222.46 167.358C233.765 172.748 259.99 186.156 259.99 186.156L254.206 179.518L256.977 178.992Z" fill="#E94540"></path><path d="M216.608 142.646C210.561 145.8 206.881 147.838 206.881 147.838L153.196 119.926L155.326 118.119L154.248 117.833C128.799 111.147 117.902 105.408 113.301 101.428C102.356 108.752 98.9492 117.034 98.9492 117.034L97.8108 175.661C97.8108 175.661 98.4418 176.996 100.642 179.904C109.636 179.494 116.014 181.079 119.876 182.546C117.274 180.969 114.778 179.225 112.402 177.325L143.337 173.253C144.901 175.551 146.793 177.607 148.953 179.357C162.193 177.354 188.054 162.035 188.054 162.035L186.453 161.38L192.237 156.779L203.411 157.765C203.411 157.765 208.487 160.518 216.414 164.424C216.477 164.327 216.542 164.235 216.608 164.135C225.734 150.062 216.608 142.646 216.608 142.646Z" fill="#E82C2B"></path><path d="M107.357 113.553C107.333 111.804 108.072 109.449 110.869 106.694C117.002 100.647 132.164 93.7221 132.164 93.7221C132.164 93.7221 125.239 96.0015 116.214 101.26C107.188 106.518 105.611 112.125 105.611 112.125L106.478 113.548C106.757 113.548 107.052 113.548 107.357 113.553Z" fill="#BC2226"></path><path d="M112.678 108.505C118.814 102.458 133.973 95.5336 133.973 95.5336C133.973 95.5336 127.051 97.8129 118.025 103.071C110.401 107.514 108.09 112.207 107.556 113.555C108.127 113.555 108.742 113.579 109.397 113.6C109.786 112.141 110.735 110.419 112.678 108.505Z" fill="#BC2226"></path><path d="M140.304 102.435C140.304 102.435 133.381 104.714 124.356 109.972C122.222 111.195 120.233 112.656 118.427 114.326C118.932 114.385 119.448 114.451 119.973 114.523C126.577 108.705 140.304 102.435 140.304 102.435Z" fill="#BC2226"></path><path d="M142.493 109.154C142.493 109.154 136.305 111.208 127.994 115.861C128.441 115.95 128.891 116.04 129.346 116.137C133.603 113.582 137.992 111.251 142.493 109.154Z" fill="#BC2226"></path><path d="M140.751 105.29C140.751 105.29 133.828 107.569 124.8 112.827C123.765 113.429 122.76 114.081 121.79 114.783C122.316 114.859 122.842 114.944 123.399 115.033C130.453 109.993 140.751 105.29 140.751 105.29Z" fill="#BC2226"></path><path d="M116.248 109.162C122.384 103.116 137.543 96.1908 137.543 96.1908C137.543 96.1908 130.621 98.4701 121.595 103.728C114.76 107.714 112.191 111.899 111.342 113.692C111.905 113.724 112.486 113.761 113.093 113.805C113.561 112.446 114.502 110.882 116.248 109.162Z" fill="#BC2226"></path><path d="M117.825 112.317C123.962 106.27 139.12 99.3456 139.12 99.3456C139.12 99.3456 132.198 101.625 123.173 106.883C118.909 109.367 116.309 111.928 114.76 113.939C115.252 113.981 115.756 114.031 116.274 114.084C116.749 113.459 117.267 112.868 117.825 112.317Z" fill="#BC2226"></path><path d="M145.998 113.006C145.998 113.006 141.723 114.413 135.513 117.565L136.546 117.828C141.578 115.025 145.998 113.006 145.998 113.006Z" fill="#BC2226"></path><path d="M144.91 110.514C144.91 110.514 139.262 112.372 131.517 116.608L132.763 116.892C138.797 113.311 144.91 110.514 144.91 110.514Z" fill="#BC2226"></path><path d="M150.257 114.867C150.257 114.867 146.392 116.14 140.671 118.979C140.979 119.068 141.292 119.16 141.602 119.255C146.295 116.679 150.257 114.867 150.257 114.867Z" fill="#BC2226"></path><path d="M153.017 117.825C150.659 118.655 148.344 119.606 146.082 120.672L146.797 120.911C150.349 119.045 153.017 117.825 153.017 117.825Z" fill="#BC2226"></path><path d="M121.556 184.76C121.556 184.76 115.69 180.99 110.138 176.471L108.779 176.526C116.032 182.015 121.556 184.76 121.556 184.76Z" fill="#BC2226"></path><path d="M103.705 180.653C110.501 188.585 116.293 193.01 116.293 193.01C116.293 193.01 106.878 184.032 102.062 176.594C101.536 176.581 101.071 176.565 100.642 176.547C101.562 177.988 102.586 179.361 103.705 180.653Z" fill="#BC2226"></path><path d="M107.564 177.396C115.751 183.884 122.287 187.123 122.287 187.123C122.287 187.123 114.315 182.007 108.174 176.547C107.622 176.565 107.099 176.581 106.597 176.591C106.903 176.858 107.226 177.126 107.564 177.396Z" fill="#BC2226"></path><path d="M106.794 178.532C114.707 185.349 121.098 188.85 121.098 188.85C121.098 188.85 112.312 182.683 106.294 176.597C105.744 176.607 105.218 176.613 104.717 176.615C105.356 177.243 106.039 177.882 106.794 178.532Z" fill="#BC2226"></path><path d="M105.737 180.143C113.409 187.242 119.671 190.959 119.671 190.959C119.671 190.959 109.61 183.359 103.897 176.618C103.347 176.618 102.845 176.618 102.367 176.602C103.407 177.859 104.533 179.042 105.737 180.143Z" fill="#BC2226"></path><path d="M144.079 169.974C151.795 177.017 158.081 180.703 158.081 180.703C158.081 180.703 150.606 175.127 144.862 169.309L143.747 169.669L144.079 169.974Z" fill="#BC2226"></path><path d="M150.885 167.469C158.601 174.512 164.887 178.198 164.887 178.198C164.887 178.198 157.605 172.769 151.892 167.027L150.793 167.382L150.885 167.469Z" fill="#BC2226"></path><path d="M168.076 174.896C164.168 171.936 160.415 168.777 156.832 165.431L155.846 165.749C162.729 171.759 168.076 174.896 168.076 174.896Z" fill="#BC2226"></path><path d="M171.097 172.669C171.097 172.669 165.905 168.794 160.844 164.132L159.918 164.432C166.289 169.848 171.097 172.669 171.097 172.669Z" fill="#BC2226"></path><path d="M175.927 170.248C175.927 170.248 171.194 166.719 166.37 162.345L165.487 162.631C171.486 167.642 175.927 170.248 175.927 170.248Z" fill="#BC2226"></path><path d="M211.121 147.751L250.117 127.729C250.117 127.729 247.751 128.341 241.794 131.146C236.644 133.568 216.245 144.205 210.8 147.049C210.882 147.273 210.958 147.509 211.032 147.751H211.121Z" fill="#BC2226"></path><path d="M211.116 156.059L247.525 168.728C247.525 168.728 244.896 167.187 237.372 164.301C233.639 162.871 223.317 159.277 213.853 156.019L244.675 164.314C244.675 164.314 241.946 162.968 234.23 160.633C230.629 159.542 221.064 156.953 211.884 154.516L241.631 159.676C241.631 159.676 238.792 158.583 230.894 156.958C228.065 156.374 221.661 155.239 214.594 154.019L238.518 156.479C238.518 156.479 235.611 155.586 227.616 154.51C224.987 154.155 219.308 153.543 212.875 152.88L234.17 153.488C234.17 153.488 231.804 152.886 225.231 152.47C223.091 152.336 218.49 152.178 213.261 152.028L232.493 150.288C232.493 150.288 230.071 149.97 223.493 150.338C221.8 150.433 218.577 150.696 214.726 151.032L232.264 147.751C232.264 147.751 229.821 147.664 223.309 148.653C221.732 148.895 218.782 149.415 215.249 150.065L237.648 144.018C237.648 144.018 235.206 144.123 228.791 145.622C227.029 146.032 223.585 146.936 219.521 148.022L240.219 139.309C240.219 139.309 237.814 139.743 231.659 142.086C228.688 143.219 220.785 146.542 213.401 149.678L213.274 149.712L241.904 136.946C241.904 136.946 239.509 137.427 233.405 139.898C230.558 141.05 223.152 144.344 216.053 147.522L248.7 131.977C248.7 131.977 246.316 132.521 240.288 135.148C237.222 136.48 228.82 140.487 221.285 144.11L250.117 129.295C250.117 129.295 247.751 129.908 241.794 132.713C236.765 135.079 217.207 145.272 211.213 148.403C211.836 150.921 211.802 153.557 211.116 156.059Z" fill="#BC2226"></path><path d="M250.38 176.712C250.38 176.712 247.943 174.893 240.779 171.191C236.523 168.994 223.207 162.668 213.096 157.891L249.962 173.571C249.962 173.571 247.446 171.859 240.127 168.473C235.681 166.417 221.511 160.426 211.116 156.059C210.968 156.619 210.793 157.17 210.59 157.712L250.38 176.712Z" fill="#BC2226"></path><path d="M240.632 173.163C236.029 170.66 220.696 162.999 210.514 157.933C210.409 158.196 210.293 158.488 210.172 158.769L250.118 178.881C250.118 178.881 247.72 177.012 240.632 173.163Z" fill="#BC2226"></path><path d="M211.032 147.751C210.958 147.509 210.882 147.273 210.8 147.049L209.457 147.751H211.032Z" fill="#BC2226"></path><path d="M155.846 168.399C128.528 178.053 97.8107 171.893 74.6753 170.163C67.2431 169.609 62.4004 169.901 59.2456 170.547C62.1375 172.083 65.5894 173.784 68.5418 174.896C75.1144 177.372 108.109 180.701 135.245 179.123C162.382 177.546 187.636 160.654 195.523 159.077C199.085 158.331 202.779 158.504 206.255 159.582C192.206 154.255 181.671 159.277 155.846 168.399Z" fill="#CF2127"></path><path d="M102.719 167.03C126.291 167.335 170.548 155.417 188.951 154.452C207.354 153.488 211.116 158.233 211.116 158.233L211.295 158.412C212.691 156.9 214.187 154.647 214.418 151.781C214.878 146.195 211.495 144.42 211.495 144.42C211.495 144.42 211 144.517 208.668 144.42C206.336 144.323 190.922 131.144 150.914 116.892C110.906 102.64 69.4619 118.119 69.4619 118.119C69.4619 118.119 64.5535 119.092 59.5137 122.852C54.4738 126.611 42.2936 130.607 36.0287 133.455C29.7637 136.302 27.9655 139.415 27.1347 143.05C26.3039 146.686 29.5876 149.36 29.5876 149.36C29.5876 149.36 43.6975 163.339 47.3334 165.529C50.9694 167.719 52.9648 167.03 52.9648 167.03C52.9648 167.03 53.8455 167.556 55.2599 168.344C57.7118 167.364 60.2179 166.526 62.7658 165.834C68.2788 164.356 79.1445 166.722 102.719 167.03Z" fill="#E53737"></path><path d="M208.734 160.633C207.944 160.209 207.113 159.864 206.255 159.603C207.068 159.904 207.895 160.248 208.734 160.633Z" fill="#BC2226"></path><path d="M53.4671 174.896L53.4303 174.436C53.4199 174.59 53.4323 174.745 53.4671 174.896Z" fill="#BC2226"></path><path d="M211.295 158.412L211.116 158.233C211.116 158.233 207.354 153.501 188.951 154.452C170.547 155.404 126.291 167.335 102.719 167.03C79.1471 166.725 68.2787 164.356 62.7578 165.847C60.2099 166.539 57.7038 167.378 55.252 168.357C56.3272 168.967 57.7127 169.735 59.2454 170.547C62.4003 169.898 67.2429 169.609 74.6751 170.163C97.8105 171.893 128.528 178.05 155.846 168.399C181.671 159.277 192.205 154.255 206.255 159.589C207.114 159.855 207.944 160.204 208.734 160.633C209.674 159.999 210.534 159.253 211.295 158.412Z" fill="#E12A29"></path><path d="M81.2583 126.543C81.2583 126.543 84.0529 130.486 92.7287 131.538C101.404 132.59 118.756 136.665 126.935 141.746C135.114 146.828 163.975 153.359 182.115 150.073C184.011 149.728 185.796 149.494 187.457 149.347C176.529 145.745 146.25 136.136 125.986 133.378C100.879 129.961 81.2583 126.543 81.2583 126.543Z" fill="#E4453F"></path><path d="M191.58 149.155C203.005 149.116 208.303 153.361 210.595 153.269C210.733 153.264 210.87 153.243 211.003 153.206C210.769 152.733 208.965 149.694 200.342 147.399C190.964 144.901 177.556 139.906 168.881 136.312C160.205 132.718 142.088 127.374 121.79 125.533C101.491 123.693 90.7122 124.745 90.7122 124.745C90.7122 124.745 95.1394 120.365 121.098 123.693C147.057 127.021 154.511 130.003 154.511 130.003C154.511 130.003 163.712 132.852 176.418 137.737C189.124 142.622 202.445 146.392 205.424 147.748C208.403 149.105 212.738 149.72 212.738 149.72C212.706 148.356 212.283 146.994 211.647 146.434C210.201 145.164 207.485 146.523 198.678 143.763C189.871 141.002 180.012 132.195 141.497 121.942C107.32 112.84 88.4538 119.079 84.6444 120.599C84.1475 120.796 83.7085 120.861 83.1064 121.048C81.3713 121.574 77.1859 122.363 76.4944 124.077C75.6058 126.28 81.2582 126.543 81.2582 126.543C81.2582 126.543 141.878 133.071 158.081 139.117C174.283 145.164 191.58 149.155 191.58 149.155Z" fill="#F15D57"></path><path d="M176.418 137.737C163.712 132.852 154.51 130.003 154.51 130.003C154.51 130.003 147.06 127.024 121.098 123.693C95.1366 120.362 90.7119 124.745 90.7119 124.745C90.7119 124.745 101.491 123.693 121.79 125.533C142.088 127.374 160.205 132.721 168.88 136.312C177.556 139.903 190.964 144.901 200.342 147.399C208.965 149.694 210.769 152.733 211.003 153.206C212.291 152.878 212.777 151.3 212.738 149.72C212.738 149.72 208.402 149.108 205.424 147.748C202.445 146.389 189.124 142.622 176.418 137.737Z" fill="#E53737"></path><path d="M191.58 149.155C191.58 149.155 174.283 145.164 158.081 139.117C141.878 133.071 81.2583 126.543 81.2583 126.543C81.2583 126.543 100.879 129.961 125.986 133.378C146.25 136.136 176.529 145.735 187.457 149.347C188.914 149.221 190.286 149.16 191.58 149.155Z" fill="#E53737"></path><path d="M46.4553 140.371C46.4553 140.371 49.597 143.453 53.6194 141.105C57.6418 138.757 54.8813 133.265 53.7666 132.503C52.6519 131.74 48.9818 129.566 46.3081 133.089C43.6344 136.612 45.0304 139.404 46.4553 140.371Z" fill="#FFFFFD"></path><path d="M51.7713 138.431C53.4251 138.431 54.7658 137.091 54.7658 135.437C54.7658 133.783 53.4251 132.442 51.7713 132.442C50.1175 132.442 48.7769 133.783 48.7769 135.437C48.7769 137.091 50.1175 138.431 51.7713 138.431Z" fill="#040407"></path><path d="M53.1987 135.789C53.8898 135.789 54.4501 135.229 54.4501 134.538C54.4501 133.847 53.8898 133.286 53.1987 133.286C52.5075 133.286 51.9473 133.847 51.9473 134.538C51.9473 135.229 52.5075 135.789 53.1987 135.789Z" fill="#FFFFFB"></path><path d="M51.2006 155.885C51.2006 155.885 50.1779 154.676 46.3658 154.939C44.1474 155.063 42.0639 156.044 40.5557 157.676C42.1094 158.937 44.0181 159.939 46.2002 159.979C48.561 160.023 50.1463 158.17 51.2006 155.885Z" fill="#F17E6E"></path><path d="M53.3831 147.488C53.0572 147.373 52.7056 147.353 52.3685 147.429C52.0315 147.504 51.7225 147.674 51.4771 147.917C51.4771 147.917 52.0187 147.507 53.0755 147.801C52.4787 148.663 49.9207 151.697 42.8223 152.599C34.5173 153.651 27.0325 144.644 27.0325 144.644C30.1873 149.673 36.1552 152.307 36.1552 152.307C37.2964 154.341 38.7912 156.154 40.5693 157.662C42.0776 156.031 44.161 155.05 46.3794 154.926C50.1915 154.663 51.2142 155.872 51.2142 155.872C52.647 152.772 53.1097 148.879 53.2122 147.835C54.1797 148.153 54.1692 148.753 54.1692 148.753C54.1692 148.753 54.1876 147.78 53.3831 147.488Z" fill="#F79F95"></path><path d="M77.2358 159.185C77.2358 159.185 82.0522 159.805 90.9067 155.922C99.7612 152.039 103.968 149.328 103.968 149.328C103.968 149.328 107.964 143.445 107.911 141.144C107.859 138.844 107.509 139.28 107.509 139.28C107.509 139.28 99.451 142.869 93.4831 146.807C87.5153 150.745 77.0071 159.087 77.0071 159.087L77.2358 159.185Z" fill="#E94540"></path><path d="M117.181 137.569L121.774 134.677C121.774 134.677 115.549 129.945 97.4873 140.3C82.5676 148.845 73.8472 159.931 73.8472 159.931C73.8472 159.931 85.9406 147.706 96.5882 141.791C107.236 135.876 117.486 135.35 117.486 135.35L114.092 137.572L115.78 138.505L110.73 141.923V144.026L105.395 147.641L106.273 149.941C106.273 149.941 95.0108 158.354 91.593 159.931C88.1753 161.509 82.7858 161.903 82.7858 161.903C82.7858 161.903 92.4685 161.961 99.743 156.95C107.825 151.384 109.163 150.291 109.163 150.291L108.463 148.143L113.02 144.859L112.888 142.451L118.89 138.549L117.181 137.569Z" fill="#BC2226"></path><path d="M96.3067 144.578C86.7739 150.725 77.7249 158.548 77.7249 158.548C97.0166 143.487 111.113 137.569 111.113 137.569C111.113 137.569 102.209 140.774 96.3067 144.578Z" fill="#BC2226"></path><path d="M98.8964 145.385C94.1642 147.943 79.1157 158.22 79.1157 158.22C100.208 144.859 111.113 139.806 111.113 139.806C111.113 139.806 103.899 142.688 98.8964 145.385Z" fill="#BC2226"></path><path d="M97.8104 149.018C92.6891 151.453 81.6682 158.548 81.6682 158.548C101.517 147.507 109.141 143.892 109.141 143.892C109.141 143.892 103.344 146.387 97.8104 149.018Z" fill="#BC2226"></path><path d="M96.1332 153.125C91.1012 155.375 82.6726 158.693 82.6726 158.693C94.0825 156.637 103.968 149.339 103.968 149.339C103.968 149.339 101.165 150.89 96.1332 153.125Z" fill="#BC2226"></path><path d="M49.0947 166.446C49.0947 166.446 55.4937 166.446 57.6127 165.394C58.3421 165.021 58.9727 164.481 59.453 163.817C59.453 163.817 69.9533 162.347 78.8289 150.966C90.2336 136.341 78.3662 128.522 78.3662 128.522C78.3662 128.522 88.9585 138.066 77.4092 150.709C76.5706 151.626 74.7092 154.09 71.515 156.511C67.1613 159.808 63.7304 161.209 60.1445 162.069C60.1445 162.069 60.6703 161.248 60.4074 156.127C60.1918 151.902 58.8299 150.343 58.8299 150.343C58.8299 150.343 60.9489 161.057 58.0176 163.751C55.6962 165.894 47.1177 165.389 47.1177 165.389L47.9064 165.86C47.9195 165.86 48.3717 166.123 48.5689 166.207L49.0947 166.446Z" fill="#BC2226"></path><path d="M58.5097 126.551C58.2847 126.935 58.2168 127.392 58.3201 127.825C58.4235 128.259 58.6901 128.636 59.0644 128.877C61.2018 130.302 66.6885 134.611 65.4398 140.579C63.8965 147.94 57.4554 148.345 62.8449 151.237C68.2344 154.129 78.0932 147.688 79.1448 144.402C80.1964 141.115 82.0236 130.862 73.4215 128.365C66.1995 126.269 59.9451 124.266 58.5097 126.551Z" fill="#F15D57"></path><path d="M91.2645 123.343C92.2083 123.343 92.9734 122.578 92.9734 121.634C92.9734 120.691 92.2083 119.926 91.2645 119.926C90.3207 119.926 89.5557 120.691 89.5557 121.634C89.5557 122.578 90.3207 123.343 91.2645 123.343Z" fill="#F3AF9A"></path><path d="M99.3196 121.795C100.027 121.795 100.6 121.222 100.6 120.514C100.6 119.807 100.027 119.234 99.3196 119.234C98.6125 119.234 98.0393 119.807 98.0393 120.514C98.0393 121.222 98.6125 121.795 99.3196 121.795Z" fill="#F3AF9A"></path><path d="M118.062 122.302C118.556 122.302 118.956 121.902 118.956 121.408C118.956 120.915 118.556 120.514 118.062 120.514C117.568 120.514 117.168 120.915 117.168 121.408C117.168 121.902 117.568 122.302 118.062 122.302Z" fill="#F3AF9A"></path><path d="M78.2507 136.475C78.7226 136.475 79.1051 136.093 79.1051 135.621C79.1051 135.149 78.7226 134.766 78.2507 134.766C77.7788 134.766 77.3962 135.149 77.3962 135.621C77.3962 136.093 77.7788 136.475 78.2507 136.475Z" fill="#F3AF9A"></path><path d="M72.9955 135.968C73.9451 135.968 74.7149 135.198 74.7149 134.248C74.7149 133.299 73.9451 132.529 72.9955 132.529C72.0459 132.529 71.2761 133.299 71.2761 134.248C71.2761 135.198 72.0459 135.968 72.9955 135.968Z" fill="#F3AF9A"></path><path d="M102.561 119.481C102.724 119.452 102.906 119.444 103.071 119.421C104.215 119.266 108.939 118.771 111.079 119.45C113.445 120.204 112.375 121.122 111.55 121.103C110.724 121.085 109.838 120.38 106.689 120.564C103.539 120.748 102.091 121.027 102.012 120.039C101.972 119.555 102.209 119.542 102.561 119.481Z" fill="#F3AF9A"></path></svg>